<svg width="25" height="26" viewBox="0 0 25 26" fill="none" xmlns="http://www.w3.org/2000/svg">
<circle cx="12.5" cy="13" r="12" stroke="#666666"/>
<path d="M8.00781 10.6016C8.00781 9.51302 8.38802 8.63021 9.14844 7.95312C9.90885 7.27604 10.8984 6.9375 12.1172 6.9375C13.2943 6.9375 14.2526 7.24479 14.9922 7.85938C15.737 8.46875 16.1094 9.25781 16.1094 10.2266C16.1094 10.8411 15.9167 11.4531 15.5312 12.0625C15.1458 12.6667 14.4661 13.4271 13.4922 14.3438L11.3359 16.3984V16.5391H16.2734V18.5H8.14062V16.8516L11.8203 13.25C12.612 12.4792 13.1406 11.901 13.4062 11.5156C13.6719 11.1302 13.8047 10.7526 13.8047 10.3828C13.8047 9.92969 13.638 9.5599 13.3047 9.27344C12.9766 8.98177 12.5547 8.83594 12.0391 8.83594C11.4922 8.83594 11.0469 9 10.7031 9.32812C10.3646 9.65104 10.1953 10.0729 10.1953 10.5938V10.6406H8.00781V10.6016Z" fill="#666666"/>
</svg>
