<svg width="25" height="26" viewBox="0 0 25 26" fill="none" xmlns="http://www.w3.org/2000/svg">
<circle cx="12.5" cy="13" r="12" stroke="#666666"/>
<path d="M10.8906 13.6094V11.8516H12.2656C12.8021 11.8516 13.2344 11.7083 13.5625 11.4219C13.8958 11.1354 14.0625 10.763 14.0625 10.3047C14.0625 9.85156 13.8984 9.49219 13.5703 9.22656C13.2474 8.95573 12.8099 8.82031 12.2578 8.82031C11.7109 8.82031 11.2682 8.96354 10.9297 9.25C10.5911 9.53646 10.4062 9.92448 10.375 10.4141H8.19531C8.23698 9.34635 8.6276 8.5 9.36719 7.875C10.1068 7.25 11.0911 6.9375 12.3203 6.9375C13.4766 6.9375 14.4271 7.22396 15.1719 7.79688C15.9219 8.36458 16.2969 9.09115 16.2969 9.97656C16.2969 10.6276 16.1068 11.1875 15.7266 11.6562C15.3516 12.125 14.849 12.4245 14.2188 12.5547V12.6953C14.9948 12.7839 15.6068 13.0703 16.0547 13.5547C16.5078 14.0339 16.7344 14.6432 16.7344 15.3828C16.7344 16.0339 16.5443 16.6198 16.1641 17.1406C15.7891 17.6562 15.263 18.0599 14.5859 18.3516C13.9089 18.6432 13.1484 18.7891 12.3047 18.7891C11.0495 18.7891 10.0286 18.4688 9.24219 17.8281C8.45573 17.1875 8.03646 16.3359 7.98438 15.2734H10.2422C10.2786 15.7526 10.4844 16.1328 10.8594 16.4141C11.2344 16.6901 11.724 16.8281 12.3281 16.8281C12.9167 16.8281 13.3958 16.6771 13.7656 16.375C14.1406 16.0729 14.3281 15.6823 14.3281 15.2031C14.3281 14.7083 14.1458 14.3203 13.7812 14.0391C13.4167 13.7526 12.9193 13.6094 12.2891 13.6094H10.8906Z" fill="#666666"/>
</svg>
