<svg width="16" height="16" viewBox="0 0 16 16" fill="none" xmlns="http://www.w3.org/2000/svg">
<path d="M9.15385 1.65385C9.15385 1.01562 8.63822 0.5 8 0.5C7.36178 0.5 6.84615 1.01562 6.84615 1.65385V6.84615H1.65385C1.01562 6.84615 0.5 7.36178 0.5 8C0.5 8.63822 1.01562 9.15385 1.65385 9.15385H6.84615V14.3462C6.84615 14.9844 7.36178 15.5 8 15.5C8.63822 15.5 9.15385 14.9844 9.15385 14.3462V9.15385H14.3462C14.9844 9.15385 15.5 8.63822 15.5 8C15.5 7.36178 14.9844 6.84615 14.3462 6.84615H9.15385V1.65385Z" fill="#BF63C5"/>
</svg>
