<svg width="24" height="20" viewBox="0 0 24 20" fill="none" xmlns="http://www.w3.org/2000/svg">
<path d="M2.66667 0.666504C1.19583 0.666504 0 1.86234 0 3.33317V16.6665C0 18.1373 1.19583 19.3332 2.66667 19.3332H21.3333C22.8042 19.3332 24 18.1373 24 16.6665V3.33317C24 1.86234 22.8042 0.666504 21.3333 0.666504H2.66667ZM6 11.3332H8.66667C10.5083 11.3332 12 12.8248 12 14.6665C12 15.0332 11.7 15.3332 11.3333 15.3332H3.33333C2.96667 15.3332 2.66667 15.0332 2.66667 14.6665C2.66667 12.8248 4.15833 11.3332 6 11.3332ZM10 7.33317C10 8.804 8.80417 9.99984 7.33333 9.99984C5.8625 9.99984 4.66667 8.804 4.66667 7.33317C4.66667 5.86234 5.8625 4.6665 7.33333 4.6665C8.80417 4.6665 10 5.86234 10 7.33317ZM15.3333 5.99984H20.6667C21.0333 5.99984 21.3333 6.29984 21.3333 6.6665C21.3333 7.03317 21.0333 7.33317 20.6667 7.33317H15.3333C14.9667 7.33317 14.6667 7.03317 14.6667 6.6665C14.6667 6.29984 14.9667 5.99984 15.3333 5.99984ZM15.3333 8.6665H20.6667C21.0333 8.6665 21.3333 8.9665 21.3333 9.33317C21.3333 9.69984 21.0333 9.99984 20.6667 9.99984H15.3333C14.9667 9.99984 14.6667 9.69984 14.6667 9.33317C14.6667 8.9665 14.9667 8.6665 15.3333 8.6665ZM15.3333 11.3332H20.6667C21.0333 11.3332 21.3333 11.6332 21.3333 11.9998C21.3333 12.3665 21.0333 12.6665 20.6667 12.6665H15.3333C14.9667 12.6665 14.6667 12.3665 14.6667 11.9998C14.6667 11.6332 14.9667 11.3332 15.3333 11.3332Z" fill="#666666"/>
</svg>
