<svg width="22" height="24" viewBox="0 0 22 24" fill="none" xmlns="http://www.w3.org/2000/svg">
<path d="M9.03241 14.4562L9.32884 14.4576C13.7331 14.4993 16.2357 15.4875 16.2357 18.1362C16.2357 20.7224 13.8526 21.7088 9.62087 21.7897L9.03241 21.7952C4.44415 21.7952 1.8291 20.8227 1.8291 18.1152C1.8291 15.4106 4.4326 14.4562 9.03241 14.4562ZM9.03241 15.9562L8.72449 15.9578C5.07856 15.996 3.20081 16.722 3.20081 18.1152C3.20081 19.5553 5.19028 20.2952 9.03241 20.2952C12.8794 20.2952 14.864 19.5674 14.864 18.1362C14.864 16.696 12.8745 15.9562 9.03241 15.9562ZM17.5614 7.91908C17.9087 7.91908 18.1956 8.20123 18.241 8.56731L18.2473 8.66908L18.2466 9.92388L19.4324 9.92398C19.8111 9.92398 20.1182 10.2598 20.1182 10.674C20.1182 11.0537 19.8602 11.3675 19.5254 11.4171L19.4324 11.424L18.2466 11.4239L18.2473 12.6791C18.2473 13.0933 17.9402 13.4291 17.5614 13.4291C17.2142 13.4291 16.9273 13.1469 16.8818 12.7808L16.8756 12.6791L16.8749 11.4239L15.6922 11.424C15.3134 11.424 15.0063 11.0882 15.0063 10.674C15.0063 10.2943 15.2643 9.98049 15.5991 9.93082L15.6922 9.92398L16.8749 9.92388L16.8756 8.66908C16.8756 8.25486 17.1826 7.91908 17.5614 7.91908ZM9.03241 1.99988C11.7303 1.99988 13.8956 4.36766 13.8956 7.31788C13.8956 10.2674 11.73 12.6359 9.03241 12.6359C6.33543 12.6359 4.16924 10.2671 4.16924 7.31788C4.16924 4.36799 6.33514 1.99988 9.03241 1.99988ZM9.03241 3.49988C7.09267 3.49988 5.54095 5.19646 5.54095 7.31788C5.54095 9.43866 7.09301 11.1359 9.03241 11.1359C10.9724 11.1359 12.5239 9.43904 12.5239 7.31788C12.5239 5.19609 10.9727 3.49988 9.03241 3.49988Z" fill="#6374A0"/>
</svg>
