<svg width="40" height="39" viewBox="0 0 40 39" fill="none" xmlns="http://www.w3.org/2000/svg">
<path d="M37.0625 19.5C37.0625 28.6706 29.427 36.1134 20 36.1134C10.573 36.1134 2.9375 28.6706 2.9375 19.5C2.9375 10.321 10.573 2.88647 20 2.88647C29.427 2.88647 37.0625 10.321 37.0625 19.5Z" fill="#333333"/>
<path d="M27.9976 15.2961C27.9045 15.349 25.688 16.4651 25.688 18.9398C25.7925 21.762 28.4851 22.7517 28.5313 22.7517C28.4851 22.8046 28.1247 24.0999 27.0574 25.4578C26.2103 26.6275 25.2701 27.8068 23.8425 27.8068C22.4844 27.8068 21.9969 27.0272 20.4299 27.0272C18.7472 27.0272 18.271 27.8068 16.9826 27.8068C15.5549 27.8068 14.5451 26.5643 13.6519 25.4056C12.4914 23.8891 11.505 21.5092 11.4702 19.2241C11.4468 18.0132 11.7026 16.8229 12.3521 15.8119C13.2688 14.4005 14.9054 13.4423 16.6927 13.4107C18.0621 13.3688 19.2808 14.2638 20.1166 14.2638C20.9174 14.2638 22.4148 13.4107 24.1089 13.4107C24.8402 13.4114 26.7902 13.6113 27.9976 15.2961ZM20.0007 13.169C19.757 12.0632 20.4299 10.9574 21.0567 10.252C21.8576 9.39895 23.1226 8.81995 24.2134 8.81995C24.283 9.92575 23.8417 11.0103 23.0529 11.8001C22.3451 12.6532 21.1264 13.2954 20.0007 13.169Z" fill="white"/>
</svg>
