<svg width="25" height="25" viewBox="0 0 25 25" fill="none" xmlns="http://www.w3.org/2000/svg">
<path d="M11.9792 19.7916C16.294 19.7916 19.7917 16.2939 19.7917 11.9791C19.7917 7.6644 16.294 4.16663 11.9792 4.16663C7.66452 4.16663 4.16675 7.6644 4.16675 11.9791C4.16675 16.2939 7.66452 19.7916 11.9792 19.7916Z" stroke="#F8C341" stroke-width="1.5" stroke-linecap="round" stroke-linejoin="round"/>
<path d="M12 4.5C7.86 4.5 4.5 7.86 4.5 12C4.5 16.14 7.86 19.5 12 19.5C16.14 19.5 19.5 16.14 19.5 12C19.5 7.86 16.14 4.5 12 4.5ZM12.75 15.75H11.25V14.25H12.75V15.75ZM12.75 12.75H11.25V8.25H12.75V12.75Z" fill="#F8C341"/>
</svg>
