<svg width="16" height="21" viewBox="0 0 16 21" fill="none" xmlns="http://www.w3.org/2000/svg">
<path d="M15.5662 3.72274V11.9298C15.5662 11.9405 15.5662 11.9565 15.5662 11.9671C15.3902 15.0814 12.8732 18.809 7.93509 20.3288C7.82843 20.3608 7.71111 20.3608 7.60446 20.3235C2.933 18.7983 0.421285 15.844 0.0106655 12.0525C0.0106655 12.0311 0.00533274 12.0098 0.00533274 11.9885C0.00533274 9.3221 0.0106654 6.6504 0 3.98404C0 3.80806 3.81426e-08 3.63208 0.0639927 3.4721C0.239972 3.04548 0.837237 3.13081 1.21053 3.08281C1.71714 3.01349 2.21308 2.90683 2.70369 2.75752C3.53026 2.50688 4.31417 2.14425 5.05009 1.69631C5.75401 1.26969 6.47392 0.517774 7.2525 0.112487C7.5618 -0.0474946 7.92976 -0.0368291 8.22839 0.144483C9.89753 1.15237 11.412 2.8855 15.0596 3.18413C15.2942 3.20547 15.5022 3.37078 15.5555 3.60009V3.60542C15.5662 3.64275 15.5662 3.68008 15.5662 3.72274Z" fill="url(#paint0_linear_954_15468)"/>
<path d="M7.78575 5.96252C5.46068 5.96252 3.5729 7.85031 3.5729 10.1754C3.5729 12.5004 5.46068 14.3882 7.78575 14.3882C10.1108 14.3882 11.9986 12.5004 11.9986 10.1754C11.9986 7.85031 10.1108 5.96252 7.78575 5.96252ZM9.65753 9.32747C9.65753 9.33814 9.65753 9.3488 9.65753 9.35947C9.61487 9.47145 9.53488 9.56211 9.44955 9.65277C9.10293 9.99939 8.7563 10.3514 8.40434 10.7033C8.15904 10.938 7.91373 11.1779 7.67909 11.4286C7.52977 11.5565 7.36979 11.6259 7.17248 11.5619C7.08183 11.5352 7.02317 11.4766 6.96451 11.4179C6.7672 11.2259 6.56988 11.0286 6.37257 10.8366C6.26592 10.7246 6.15393 10.6233 6.05261 10.506C5.86063 10.2927 5.86063 10.0901 6.03661 9.87141C6.19126 9.67943 6.48456 9.65277 6.67654 9.81275C6.83119 9.94607 6.96984 10.0954 7.11382 10.2394C7.26847 10.394 7.38046 10.394 7.53511 10.2394C7.76441 10.0047 7.99905 9.77009 8.22836 9.54078C8.42567 9.34347 8.62832 9.14616 8.82563 8.94885C9.00694 8.77287 9.19358 8.72487 9.39089 8.81553C9.58821 8.90085 9.67353 9.0715 9.65753 9.32747Z" fill="#FEFEFE"/>
<defs>
<linearGradient id="paint0_linear_954_15468" x1="5.87796" y1="2.19981" x2="11.0771" y2="18.4137" gradientUnits="userSpaceOnUse">
<stop stop-color="#8CF7AA"/>
<stop offset="1" stop-color="#0BBA9D"/>
</linearGradient>
</defs>
</svg>
