<svg width="34" height="34" viewBox="0 0 34 34" fill="none" xmlns="http://www.w3.org/2000/svg">
<circle cx="16.9987" cy="16.9999" r="16.6667" fill="#F7931A"/>
<path fill-rule="evenodd" clip-rule="evenodd" d="M19.8636 16.9535C20.8727 16.7088 21.636 16.0228 21.8466 14.6111C22.137 12.6828 20.7172 11.6549 18.7715 10.9752L19.4176 8.36199L17.8754 7.97507L17.2459 10.5193C16.8414 10.4168 16.4255 10.3206 16.0117 10.2265L16.6454 7.6645L15.1042 7.27759L14.4581 9.88976C14.122 9.81343 13.7922 9.73709 13.4728 9.65657L13.4749 9.64925L11.3488 9.11385L10.9287 10.8121C10.9287 10.8121 12.0727 11.0766 12.0478 11.0923C12.6732 11.2502 12.7841 11.6748 12.7634 12.0125L12.027 14.9897C12.0817 15.0034 12.1354 15.0209 12.1878 15.042L12.0239 15.0012L10.993 19.1715C10.9152 19.367 10.7203 19.6609 10.2826 19.5531C10.2981 19.5751 9.16249 19.2708 9.16249 19.2708L8.38672 21.0924L10.3936 21.5975C10.6196 21.6545 10.8427 21.713 11.0636 21.771L11.0637 21.771L11.0638 21.771L11.0641 21.7711C11.2078 21.8088 11.3507 21.8463 11.4929 21.883L10.8395 24.5265L12.3786 24.9134L13.0258 22.2992C13.4339 22.4107 13.8433 22.5178 14.2538 22.6202L13.6097 25.224L15.1509 25.6109L15.8043 22.9737C18.4344 23.4704 20.4153 23.2529 21.2616 20.7986C21.943 18.8222 21.244 17.6886 19.8636 16.9535ZM26.8476 23.1618L27.4129 20.8791L29.6769 21.449L30.0534 19.9264L27.7893 19.3576L28.3535 17.0748L26.8445 16.6952L26.2793 18.978L24.0152 18.4091L23.6387 19.9306L25.9028 20.4995L25.3386 22.7833L26.8476 23.1618ZM18.2924 19.7194C18.7501 17.8676 16.087 17.2664 14.7845 16.9724C14.6381 16.9393 14.5088 16.9101 14.4031 16.8835L13.5392 20.3835C13.6258 20.4051 13.7273 20.4322 13.841 20.4625C15.0997 20.7979 17.8474 21.5301 18.2944 19.7184L18.2924 19.7194ZM15.9031 12.1778C16.9889 12.4193 19.2133 12.9141 18.7974 14.5996C18.3891 16.2484 16.0967 15.6292 15.0497 15.3465C14.9558 15.3211 14.8719 15.2985 14.8003 15.2804L15.5855 12.1046C15.6734 12.1267 15.781 12.1506 15.9031 12.1778Z" fill="white"/>
</svg>
