<svg width="22" height="24" viewBox="0 0 22 24" fill="none" xmlns="http://www.w3.org/2000/svg">
<path d="M13.7038 2C16.5044 2 18.2893 3.43503 18.2893 6.25765V20.3309C18.2893 20.7736 18.1324 21.1982 17.8532 21.5112C17.574 21.8242 17.1954 22 16.7903 22C16.5486 21.9957 16.3111 21.9291 16.082 21.7971L10.9497 18.6635L5.8382 21.8037C5.22257 22.1624 4.47658 21.9969 4.00915 21.3975L3.91951 21.2719L3.83387 21.1174C3.72211 20.8782 3.66181 20.613 3.65771 20.3309V6.43434C3.65771 3.49929 5.40358 2 8.2432 2H13.7038ZM13.7038 3.44775H8.2432C6.05295 3.44775 4.949 4.39579 4.949 6.43434L4.94891 20.3189C4.94956 20.3631 4.95943 20.4065 4.9487 20.3897L4.98296 20.4519C5.04198 20.5421 5.15274 20.5715 5.23026 20.5265L10.3396 17.3883C10.7204 17.1576 11.1793 17.1576 11.562 17.3894L16.6855 20.5173C16.7243 20.5397 16.7672 20.5517 16.8005 20.5523C16.8529 20.5523 16.9031 20.529 16.9402 20.4875C16.9772 20.446 16.998 20.3897 16.998 20.3309V6.25765C16.998 4.35788 15.866 3.44775 13.7038 3.44775ZM14.0899 8.31663C14.4465 8.31663 14.7356 8.64072 14.7356 9.0405C14.7356 9.40697 14.4927 9.70984 14.1775 9.75777L14.0899 9.76438H7.80981C7.45323 9.76438 7.16417 9.44029 7.16417 9.0405C7.16417 8.67404 7.40707 8.37117 7.7222 8.32324L7.80981 8.31663H14.0899Z" fill="#6374A0"/>
</svg>
