<svg width="20" height="21" viewBox="0 0 20 21" fill="none" xmlns="http://www.w3.org/2000/svg">
<path d="M14.0194 0.5C14.3823 0.5 14.6821 0.762469 14.7296 1.103L14.7361 1.19767L14.7362 1.98626C17.6795 2.18121 19.4818 4.01888 19.4725 6.98579V15.4744C19.4725 18.6193 17.4489 20.5 14.1965 20.5H6.11382C2.86527 20.5 0.837891 18.5872 0.837891 15.4041V6.98579C0.837891 4.01995 2.64598 2.18177 5.58293 1.98635L5.58302 1.19767C5.58302 0.812359 5.9039 0.5 6.29973 0.5C6.66257 0.5 6.96244 0.762469 7.0099 1.103L7.01644 1.19767L7.0163 1.969H13.3024L13.3027 1.19767C13.3027 0.812359 13.6236 0.5 14.0194 0.5ZM18.0387 8.783H2.27069L2.27132 15.4041C2.27132 17.7292 3.55975 19.0198 5.87852 19.1006L6.11382 19.1047H14.1965C16.6717 19.1047 18.039 17.8338 18.039 15.4744L18.0387 8.783ZM14.4089 14.636C14.8048 14.636 15.1257 14.9484 15.1257 15.3337C15.1257 15.6869 14.856 15.9788 14.5062 16.025L14.4089 16.0314C14.0043 16.0314 13.6834 15.719 13.6834 15.3337C13.6834 14.9805 13.953 14.6886 14.3028 14.6424L14.4089 14.636ZM10.1684 14.636C10.5643 14.636 10.8851 14.9484 10.8851 15.3337C10.8851 15.6869 10.6155 15.9788 10.2657 16.025L10.1684 16.0314C9.76374 16.0314 9.44286 15.719 9.44286 15.3337C9.44286 14.9805 9.71249 14.6886 10.0623 14.6424L10.1684 14.636ZM5.91906 14.636C6.31489 14.636 6.63577 14.9484 6.63577 15.3337C6.63577 15.6869 6.36614 15.9788 6.01631 16.025L5.9102 16.0314C5.51437 16.0314 5.19349 15.719 5.19349 15.3337C5.19349 14.9805 5.46312 14.6886 5.81295 14.6424L5.91906 14.636ZM14.4089 11.0206C14.8048 11.0206 15.1257 11.333 15.1257 11.7183C15.1257 12.0715 14.856 12.3634 14.5062 12.4096L14.4089 12.416C14.0043 12.416 13.6834 12.1036 13.6834 11.7183C13.6834 11.3651 13.953 11.0732 14.3028 11.027L14.4089 11.0206ZM10.1684 11.0206C10.5643 11.0206 10.8851 11.333 10.8851 11.7183C10.8851 12.0715 10.6155 12.3634 10.2657 12.4096L10.1684 12.416C9.76374 12.416 9.44286 12.1036 9.44286 11.7183C9.44286 11.3651 9.71249 11.0732 10.0623 11.027L10.1684 11.0206ZM5.91906 11.0206C6.31489 11.0206 6.63577 11.333 6.63577 11.7183C6.63577 12.0715 6.36614 12.3634 6.01631 12.4096L5.9102 12.416C5.51437 12.416 5.19349 12.1036 5.19349 11.7183C5.19349 11.3651 5.46312 11.0732 5.81295 11.027L5.91906 11.0206ZM13.3024 3.364H7.0163L7.01644 4.25887C7.01644 4.64418 6.69556 4.95654 6.29973 4.95654C5.93689 4.95654 5.63702 4.69407 5.58956 4.35354L5.58302 4.25887L5.582 3.38521C3.44559 3.55837 2.27132 4.8066 2.27132 6.98579L2.27069 7.387H18.0387L18.039 6.98365C18.0459 4.80275 16.8776 3.55711 14.7362 3.38499L14.7361 4.25887C14.7361 4.64418 14.4152 4.95654 14.0194 4.95654C13.6566 4.95654 13.3567 4.69407 13.3092 4.35354L13.3027 4.25887L13.3024 3.364Z" fill="white"/>
</svg>
