<svg width="24" height="24" viewBox="0 0 24 24" fill="none" xmlns="http://www.w3.org/2000/svg">
<rect width="24" height="24" rx="12" fill="white" fill-opacity="0.5"/>
<path d="M9.07695 6.87857L8.79258 7.71429H6.75C5.78477 7.71429 5 8.48304 5 9.42857V16.2857C5 17.2312 5.78477 18 6.75 18H17.25C18.2152 18 19 17.2312 19 16.2857V9.42857C19 8.48304 18.2152 7.71429 17.25 7.71429H15.2074L14.923 6.87857C14.7453 6.35357 14.2449 6 13.6789 6H10.3211C9.75508 6 9.25469 6.35357 9.07695 6.87857ZM12 15.4286C10.5508 15.4286 9.375 14.2768 9.375 12.8571C9.375 11.4375 10.5508 10.2857 12 10.2857C13.4492 10.2857 14.625 11.4375 14.625 12.8571C14.625 14.2768 13.4492 15.4286 12 15.4286Z" fill="black"/>
</svg>
