<svg width="15" height="14" viewBox="0 0 15 14" fill="none" xmlns="http://www.w3.org/2000/svg">
<g filter="url(#filter0_d_166_2931)">
<path d="M7.5 12C4.18594 12 1.5 9.31406 1.5 6C1.5 2.68594 4.18594 0 7.5 0C10.8141 0 13.5 2.68594 13.5 6C13.5 9.31406 10.8141 12 7.5 12ZM6.9375 2.8125V6C6.9375 6.1875 7.03125 6.36328 7.18828 6.46875L9.43828 7.96875C9.69609 8.14219 10.0453 8.07187 10.2188 7.81172C10.3922 7.55156 10.3219 7.20469 10.0617 7.03125L8.0625 5.7V2.8125C8.0625 2.50078 7.81172 2.25 7.5 2.25C7.18828 2.25 6.9375 2.50078 6.9375 2.8125Z" fill="white"/>
</g>
<defs>
<filter id="filter0_d_166_2931" x="0.5" y="0" width="14" height="14" filterUnits="userSpaceOnUse" color-interpolation-filters="sRGB">
<feFlood flood-opacity="0" result="BackgroundImageFix"/>
<feColorMatrix in="SourceAlpha" type="matrix" values="0 0 0 0 0 0 0 0 0 0 0 0 0 0 0 0 0 0 127 0" result="hardAlpha"/>
<feOffset dy="1"/>
<feGaussianBlur stdDeviation="0.5"/>
<feComposite in2="hardAlpha" operator="out"/>
<feColorMatrix type="matrix" values="0 0 0 0 0 0 0 0 0 0 0 0 0 0 0 0 0 0 0.25 0"/>
<feBlend mode="normal" in2="BackgroundImageFix" result="effect1_dropShadow_166_2931"/>
<feBlend mode="normal" in="SourceGraphic" in2="effect1_dropShadow_166_2931" result="shape"/>
</filter>
</defs>
</svg>
