<svg width="13" height="14" viewBox="0 0 13 14" fill="none" xmlns="http://www.w3.org/2000/svg">
<path fill-rule="evenodd" clip-rule="evenodd" d="M9.26938 0.333313C11.3491 0.333313 12.7469 1.91398 12.7469 4.26598V9.70065C12.7469 12.0526 11.3491 13.6333 9.26938 13.6333H3.95478C1.8781 13.6333 0.483398 12.0526 0.483398 9.70065V4.26598C0.483398 1.91398 1.8781 0.333313 3.95478 0.333313H9.26938ZM9.26938 1.33331H3.95478C2.40587 1.33331 1.405 2.48465 1.405 4.26598V9.70065C1.405 11.4826 2.40587 12.6333 3.95478 12.6333H9.26938C10.822 12.6333 11.8253 11.4826 11.8253 9.70065V4.26598C11.8253 2.48465 10.822 1.33331 9.26938 1.33331ZM9.66198 7.06625C9.66586 7.06968 9.6697 7.07309 9.6777 7.08121L9.68957 7.0935C9.69198 7.09603 9.69461 7.09881 9.69752 7.1019L9.73181 7.13885C9.84262 7.25923 10.1489 7.59862 11.0616 8.61558C11.2392 8.81291 11.2361 9.12958 11.0536 9.32225C10.8717 9.51625 10.5793 9.51025 10.4017 9.31291C10.4017 9.31291 9.14281 7.91091 9.05311 7.81625C8.95787 7.73158 8.80489 7.68225 8.65436 7.69825C8.50137 7.71491 8.36374 7.79425 8.26605 7.92291C6.83818 9.80225 6.82098 9.82025 6.79763 9.84491C6.27047 10.4062 5.41952 10.3969 4.90158 9.82358C4.90158 9.82358 4.33018 9.19425 4.32035 9.18158C4.17842 9.03891 3.92529 9.04825 3.77353 9.22225L2.83349 10.2976C2.74256 10.4016 2.62091 10.4536 2.49926 10.4536C2.38498 10.4536 2.27131 10.4082 2.18223 10.3162C1.99729 10.1269 1.98992 9.80958 2.16502 9.61025L3.10383 8.53491C3.60088 7.96225 4.43955 7.93425 4.96978 8.47425L5.55838 9.12225C5.72242 9.30225 5.98907 9.30558 6.15373 9.12958C6.21579 9.05025 7.55396 7.28691 7.55396 7.28691C7.80832 6.95225 8.16714 6.74558 8.56588 6.70291C8.96525 6.66491 9.35293 6.79091 9.66198 7.06625ZM4.51278 3.41925C5.36189 3.41991 6.05187 4.16925 6.05187 5.08858C6.05187 6.00925 5.36127 6.75858 4.51278 6.75858C3.66429 6.75858 2.97431 6.00925 2.97431 5.08858C2.97431 4.16791 3.66429 3.41925 4.51278 3.41925ZM4.51217 4.41925C4.1724 4.41925 3.89592 4.71925 3.89592 5.08858C3.89592 5.45791 4.1724 5.75858 4.51278 5.75858C4.85316 5.75858 5.13026 5.45791 5.13026 5.08858C5.13026 4.71991 4.85316 4.41991 4.51217 4.41925Z" fill="black" fill-opacity="0.46"/>
</svg>
