<svg width="41" height="40" viewBox="0 0 41 40" fill="none" xmlns="http://www.w3.org/2000/svg">
<circle opacity="0.1" cx="20.5" cy="20" r="20" fill="white"/>
<path d="M28 19.5834C28.0029 20.6832 27.7459 21.7683 27.25 22.75C26.662 23.9265 25.7581 24.916 24.6395 25.6078C23.521 26.2995 22.2319 26.6662 20.9167 26.6667C19.8168 26.6696 18.7318 26.4126 17.75 25.9167L13 27.5L14.5833 22.75C14.0874 21.7683 13.8305 20.6832 13.8333 19.5834C13.8338 18.2682 14.2005 16.9791 14.8923 15.8605C15.584 14.7419 16.5735 13.838 17.75 13.25C18.7318 12.7541 19.8168 12.4972 20.9167 12.5H21.3333C23.0703 12.5959 24.7109 13.329 25.941 14.5591C27.171 15.7892 27.9042 17.4297 28 19.1667V19.5834Z" stroke="white" stroke-width="1.66667" stroke-linecap="round" stroke-linejoin="round"/>
</svg>
