<svg width="20" height="20" viewBox="0 0 20 20" fill="none" xmlns="http://www.w3.org/2000/svg">
<path d="M1.48787 7.93259L1.48787 7.93263C1.0076 9.93851 1.25682 12.0498 2.19089 13.8888C2.35692 14.2116 2.4183 14.5782 2.3665 14.9375L2.36471 14.9499L2.36231 14.9622L1.81713 17.7479C1.81701 17.7485 1.8169 17.7492 1.81678 17.7498C1.7937 17.875 1.79826 18.0038 1.83015 18.1271C1.86221 18.251 1.92109 18.3664 2.00264 18.4651C2.08417 18.5637 2.18641 18.6432 2.3021 18.6981C2.41661 18.7523 2.54152 18.781 2.6682 18.7822C2.75265 18.7809 2.83645 18.767 2.91677 18.7408L2.92546 18.738L2.93425 18.7354L5.53825 17.9914L5.53967 17.991C5.91512 17.885 6.31557 17.9113 6.67384 18.0655C8.32718 18.7446 10.1489 18.9013 11.894 18.5144C13.6405 18.1272 15.2264 17.214 16.4381 15.898C17.6498 14.5819 18.4291 12.9262 18.671 11.1537C18.913 9.3812 18.606 7.57714 17.7914 5.98446C16.9767 4.39179 15.6936 3.087 14.1148 2.24582C12.536 1.40464 10.7373 1.06747 8.96105 1.27972C7.18477 1.49198 5.51618 2.24345 4.18002 3.43295C2.84386 4.62244 1.9043 6.19282 1.48787 7.93259ZM1.90661 17.8129L1.90652 17.8129L1.90827 17.8036L2.43539 15.0064C2.43552 15.0057 2.43564 15.005 2.43577 15.0043C2.49599 14.6644 2.45348 14.3151 2.31509 14.0008L2.28306 13.9795L2.22367 13.8623C1.30424 12.0492 1.05105 9.97069 1.50828 7.98985C1.96551 6.00901 3.10411 4.25176 4.72521 3.02505C6.34631 1.79834 8.34685 1.18014 10.3774 1.27844C12.4079 1.37674 14.3394 2.18529 15.8345 3.56285C17.3295 4.94041 18.293 6.79942 18.5568 8.81516C18.8205 10.8309 18.3678 12.8752 17.2775 14.5911C16.1872 16.3069 14.5288 17.5852 12.5919 18.2027C10.655 18.8201 8.56279 18.7374 6.68064 17.9691L6.67946 17.9686C6.44993 17.8743 6.20471 17.8239 5.9566 17.8202C5.80494 17.8219 5.65438 17.8463 5.5099 17.8925L5.50839 17.8929L2.92985 18.7085C2.92972 18.7085 2.92959 18.7086 2.92946 18.7086C2.79485 18.7515 2.65112 18.7572 2.51355 18.725C2.37982 18.6937 2.2568 18.6278 2.15676 18.5339C2.05946 18.4459 1.98541 18.335 1.94138 18.2112C1.89599 18.0835 1.88404 17.9464 1.90661 17.8129Z" stroke="#CABBCB"/>
</svg>
