<svg width="24" height="24" viewBox="0 0 24 24" fill="none" xmlns="http://www.w3.org/2000/svg">
<path d="M9.71429 5C10.2279 5 10.6429 5.39102 10.6429 5.875V6.75H14.3571V5.875C14.3571 5.39102 14.7721 5 15.2857 5C15.7993 5 16.2143 5.39102 16.2143 5.875V6.75H17.6071C18.3761 6.75 19 7.33789 19 8.0625V9.375H6V8.0625C6 7.33789 6.62388 6.75 7.39286 6.75H8.78571V5.875C8.78571 5.39102 9.20067 5 9.71429 5ZM6 10.25H19V17.6875C19 18.4121 18.3761 19 17.6071 19H7.39286C6.62388 19 6 18.4121 6 17.6875V10.25ZM7.85714 12.4375V13.3125C7.85714 13.5531 8.06607 13.75 8.32143 13.75H9.25C9.50536 13.75 9.71429 13.5531 9.71429 13.3125V12.4375C9.71429 12.1969 9.50536 12 9.25 12H8.32143C8.06607 12 7.85714 12.1969 7.85714 12.4375ZM11.5714 12.4375V13.3125C11.5714 13.5531 11.7804 13.75 12.0357 13.75H12.9643C13.2196 13.75 13.4286 13.5531 13.4286 13.3125V12.4375C13.4286 12.1969 13.2196 12 12.9643 12H12.0357C11.7804 12 11.5714 12.1969 11.5714 12.4375ZM15.75 12C15.4946 12 15.2857 12.1969 15.2857 12.4375V13.3125C15.2857 13.5531 15.4946 13.75 15.75 13.75H16.6786C16.9339 13.75 17.1429 13.5531 17.1429 13.3125V12.4375C17.1429 12.1969 16.9339 12 16.6786 12H15.75ZM7.85714 15.9375V16.8125C7.85714 17.0531 8.06607 17.25 8.32143 17.25H9.25C9.50536 17.25 9.71429 17.0531 9.71429 16.8125V15.9375C9.71429 15.6969 9.50536 15.5 9.25 15.5H8.32143C8.06607 15.5 7.85714 15.6969 7.85714 15.9375ZM12.0357 15.5C11.7804 15.5 11.5714 15.6969 11.5714 15.9375V16.8125C11.5714 17.0531 11.7804 17.25 12.0357 17.25H12.9643C13.2196 17.25 13.4286 17.0531 13.4286 16.8125V15.9375C13.4286 15.6969 13.2196 15.5 12.9643 15.5H12.0357ZM15.2857 15.9375V16.8125C15.2857 17.0531 15.4946 17.25 15.75 17.25H16.6786C16.9339 17.25 17.1429 17.0531 17.1429 16.8125V15.9375C17.1429 15.6969 16.9339 15.5 16.6786 15.5H15.75C15.4946 15.5 15.2857 15.6969 15.2857 15.9375Z" fill="#6374A0"/>
<path fill-rule="evenodd" clip-rule="evenodd" d="M19.7329 0.919189C20.0801 0.919189 20.367 1.20134 20.4125 1.56742L20.4187 1.66919L20.4181 2.92399L21.6038 2.92409C21.9826 2.92409 22.2896 3.25988 22.2896 3.67409C22.2896 4.05379 22.0316 4.36758 21.6969 4.41724L21.6038 4.42409L20.4181 4.42399L20.4187 5.67919C20.4187 6.0934 20.1117 6.42919 19.7329 6.42919C19.3856 6.42919 19.0987 6.14704 19.0533 5.78096L19.047 5.67919L19.0464 4.42399L17.8636 4.42409C17.4848 4.42409 17.1777 4.0883 17.1777 3.67409C17.1777 3.29439 17.4358 2.9806 17.7705 2.93094L17.8636 2.92409L19.0464 2.92399L19.047 1.66919C19.047 1.25498 19.3541 0.919189 19.7329 0.919189Z" fill="#6374A0"/>
</svg>
