<svg width="21" height="20" viewBox="0 0 21 20" fill="none" xmlns="http://www.w3.org/2000/svg">
<path d="M5.5 10.7514C7.33304 11.7249 9.24577 12.7438 10.7231 13.5323L15.9034 10.7514C14.0277 13.538 12.4648 15.8578 10.7231 18.4252C8.97823 15.8635 7.05128 13.0367 5.5 10.7514ZM5.69924 9.9828L10.7287 7.29901L15.6928 9.96317L10.7316 12.6499L5.69924 9.9828ZM10.7231 6.43916L5.5 9.18875L10.7003 1.57477L15.9034 9.20581L10.7231 6.43916Z" fill="#9BB09B"/>
<path d="M10.722 13.5323L15.9024 10.7514C14.0267 13.538 10.722 18.4252 10.722 18.4252V13.5323ZM10.7277 7.29901L15.6918 9.96317L10.7305 12.6499L10.7277 7.29901ZM10.722 6.43936L10.6992 1.57477L15.9024 9.20581L10.722 6.43936Z" fill="#284B29"/>
<path d="M5.69922 9.98285L10.729 10.3956L15.693 9.96579L10.7316 12.6527L5.69922 9.98285Z" fill="#284B29"/>
<path d="M10.7305 10.3956L15.6946 9.96579L10.7333 12.6527L10.7305 10.3956Z" fill="black"/>
</svg>
