<svg width="22" height="23" viewBox="0 0 22 23" fill="none" xmlns="http://www.w3.org/2000/svg">
<rect y="0.0566406" width="22" height="22" rx="11" fill="white" fill-opacity="0.3"/>
<path d="M12.3493 5.70367C13.2089 4.84097 14.6032 4.84097 15.4629 5.70367L16.3553 6.59927C17.2149 7.46197 17.2149 8.86124 16.3553 9.72394L9.6475 16.4556C9.26394 16.8406 8.74391 17.0566 8.20112 17.0566H5.45405C5.19886 17.0566 4.99378 16.8456 5.00014 16.5895L5.06925 13.8078C5.08298 13.282 5.29735 12.7808 5.66787 12.4089L12.3493 5.70367ZM11.83 7.51241L6.30999 13.0533C6.10403 13.26 5.98467 13.5391 5.97704 13.8311L5.91938 16.1449L8.20112 16.1452C8.4696 16.1452 8.7278 16.0504 8.9316 15.879L9.00538 15.8112L14.5527 10.2442L11.83 7.51241ZM14.8207 6.34807C14.3157 5.84127 13.4964 5.84127 12.9914 6.34807L12.4726 6.86793L15.1946 9.5997L15.7132 9.07953C16.1901 8.60088 16.2166 7.84087 15.7926 7.33096L15.7132 7.24368L14.8207 6.34807Z" fill="white"/>
</svg>
