<svg width="24" height="24" viewBox="0 0 24 24" fill="none" xmlns="http://www.w3.org/2000/svg">
<path d="M9.28571 4C9.87835 4 10.3571 4.44687 10.3571 5V6H14.6429V5C14.6429 4.44687 15.1217 4 15.7143 4C16.3069 4 16.7857 4.44687 16.7857 5V6H18.3929C19.2801 6 20 6.67188 20 7.5V9H5V7.5C5 6.67188 5.71987 6 6.60714 6H8.21429V5C8.21429 4.44687 8.69308 4 9.28571 4ZM5 10H20V18.5C20 19.3281 19.2801 20 18.3929 20H6.60714C5.71987 20 5 19.3281 5 18.5V10ZM7.14286 12.5V13.5C7.14286 13.775 7.38393 14 7.67857 14H8.75C9.04464 14 9.28571 13.775 9.28571 13.5V12.5C9.28571 12.225 9.04464 12 8.75 12H7.67857C7.38393 12 7.14286 12.225 7.14286 12.5ZM11.4286 12.5V13.5C11.4286 13.775 11.6696 14 11.9643 14H13.0357C13.3304 14 13.5714 13.775 13.5714 13.5V12.5C13.5714 12.225 13.3304 12 13.0357 12H11.9643C11.6696 12 11.4286 12.225 11.4286 12.5ZM16.25 12C15.9554 12 15.7143 12.225 15.7143 12.5V13.5C15.7143 13.775 15.9554 14 16.25 14H17.3214C17.6161 14 17.8571 13.775 17.8571 13.5V12.5C17.8571 12.225 17.6161 12 17.3214 12H16.25ZM7.14286 16.5V17.5C7.14286 17.775 7.38393 18 7.67857 18H8.75C9.04464 18 9.28571 17.775 9.28571 17.5V16.5C9.28571 16.225 9.04464 16 8.75 16H7.67857C7.38393 16 7.14286 16.225 7.14286 16.5ZM11.9643 16C11.6696 16 11.4286 16.225 11.4286 16.5V17.5C11.4286 17.775 11.6696 18 11.9643 18H13.0357C13.3304 18 13.5714 17.775 13.5714 17.5V16.5C13.5714 16.225 13.3304 16 13.0357 16H11.9643ZM15.7143 16.5V17.5C15.7143 17.775 15.9554 18 16.25 18H17.3214C17.6161 18 17.8571 17.775 17.8571 17.5V16.5C17.8571 16.225 17.6161 16 17.3214 16H16.25C15.9554 16 15.7143 16.225 15.7143 16.5Z" fill="#6374A0"/>
</svg>
