<svg width="186" height="44" viewBox="0 0 107 26" fill="none" xmlns="http://www.w3.org/2000/svg">
<path d="M49.5238 25.4967C49.2458 25.4866 48.9691 25.4521 48.6971 25.3941C48.0498 25.2548 47.4431 24.9708 46.9232 24.5638C46.4033 24.1569 45.9839 23.638 45.697 23.0461C45.481 22.5993 45.3459 22.1186 45.2977 21.6255C45.2769 21.466 45.2696 18.861 45.2696 13.4167V5.44189H35.2787V1.07057H45.4249C52.2985 1.07057 55.6329 1.07996 55.7732 1.09609C56.5966 1.20018 57.374 1.53125 58.0165 2.05235C58.6591 2.57345 59.141 3.26349 59.4071 4.04306C59.5431 4.46137 59.6206 4.89574 59.6376 5.33491V5.44623H49.6467V25.5L49.5238 25.4967ZM42.5235 25.3985C40.7373 25.1803 39.0267 24.5535 37.5267 23.5674C36.7659 23.067 36.069 22.4775 35.4514 21.8107C35.2894 21.64 34.2136 20.3608 33.0554 18.9745C31.8972 17.5883 30.9386 16.4549 30.9268 16.4549C30.9151 16.4549 29.9447 17.876 28.768 19.6115C27.5913 21.3469 26.5548 22.8632 26.4684 22.9739C26.1859 23.3044 25.8756 23.6103 25.5408 23.8889C24.8137 24.4465 23.9738 24.8421 23.0785 25.0487C22.3595 25.2039 23.1677 25.1924 13.294 25.2041C6.95609 25.2096 4.2521 25.204 4.01934 25.1823C3.52377 25.1559 3.03947 25.0261 2.59811 24.8011C2.07281 24.5414 1.61558 24.1637 1.26254 23.6988C0.909493 23.2339 0.67026 22.6942 0.563768 22.1219C0.512167 21.86 0.507675 21.8156 0.502627 17.9678C0.495897 15.3777 0.502641 13.9581 0.516663 13.7278C0.54456 13.2139 0.684032 12.7118 0.925544 12.2563C1.18788 11.7515 1.5622 11.3123 2.02032 10.9715C2.47844 10.6306 3.00849 10.397 3.57068 10.2884L3.81298 10.233L12.4769 10.2254L21.1429 10.2183L21.1216 10.4876C21.0744 11.3592 20.7768 12.1989 20.264 12.9084C19.9594 13.2949 19.6092 13.6439 19.2208 13.9478C18.6162 14.3724 17.9221 14.6552 17.191 14.7742C16.984 14.8109 16.4344 14.8153 11.041 14.8231L5.11418 14.8318V20.9316L12.8408 20.9245C20.0716 20.9145 20.5742 20.9129 20.7694 20.8756C21.218 20.7841 21.6452 20.6095 22.0285 20.3608C22.4632 20.0773 22.4846 20.0532 25.4538 16.2893C27.2442 14.0195 28.2279 12.7525 28.2189 12.7347C28.1673 12.6551 22.6208 5.79773 22.5221 5.69819C22.2671 5.44652 21.9532 5.26154 21.6084 5.15952C21.4699 5.11726 20.9578 5.11515 11.0774 5.10847L0.689404 5.10413V4.99281C0.701239 4.72297 0.735805 4.45437 0.792651 4.19022C1.00108 3.21927 1.5164 2.33945 2.26372 1.67875C3.01104 1.01805 3.95139 0.611221 4.94815 0.516686C5.06033 0.505565 9.00779 0.498171 13.7203 0.500395C21.7543 0.505956 22.3017 0.508171 22.53 0.547095C23.7353 0.731333 24.8356 1.33306 25.6356 2.24567C25.8397 2.48032 43.9684 25.472 43.9566 25.4837C43.9372 25.4872 43.9174 25.4882 43.8977 25.487C43.6627 25.4914 42.827 25.4379 42.5235 25.399V25.3985ZM92.1611 25.4718V14.0167L91.8274 13.5899C91.4842 13.1579 82.1983 1.08545 82.1607 1.02984C82.1467 1.00704 82.7009 0.999975 84.9001 0.999975H87.6579L90.9985 5.34143L94.3391 9.68614L94.5315 9.43201C94.6397 9.29077 96.1428 7.33706 97.872 5.08838L101.017 0.999975H103.766C104.677 0.963563 105.59 0.975177 106.5 1.03419C106.488 1.0681 97.4137 12.8537 96.8355 13.5899L96.5394 13.9635L96.5343 17.8526L96.5276 21.7369L96.4715 22.0002C96.3584 22.5598 96.1344 23.0914 95.8127 23.5647C95.4909 24.038 95.0778 24.4437 94.597 24.7577C93.9137 25.1989 93.1215 25.4462 92.3064 25.4723L92.1611 25.4718ZM66.9335 25.1807C65.1666 24.9005 63.5522 24.022 62.365 22.6948C61.1778 21.3675 60.491 19.6736 60.4217 17.901L60.4054 17.523H64.7584L64.7747 17.7451C64.8208 18.3608 65.0291 18.9535 65.3787 19.4643C65.6299 19.7926 65.9266 20.0844 66.2599 20.3304C66.6562 20.5921 67.1035 20.7681 67.5729 20.8474C67.7939 20.8852 68.2167 20.8899 72.0341 20.8832L76.2508 20.8762L76.5042 20.8088C77.1301 20.6508 77.6984 20.3211 78.1437 19.8575C78.5918 19.3901 78.8972 18.8069 79.0248 18.1746C79.087 17.761 79.087 17.3404 79.0248 16.9268C78.9007 16.2898 78.5913 15.7027 78.1348 15.238C77.6607 14.7371 77.042 14.3934 76.3635 14.2546L76.1285 14.1992L71.1928 14.1851C66.6844 14.1689 66.2357 14.1647 66.0198 14.1297C64.5921 13.9176 63.2767 13.2393 62.2821 12.202C61.9987 11.9161 61.7459 11.6016 61.5278 11.2642C61.0771 10.5895 60.7524 9.84039 60.5692 9.05189C60.4478 8.555 60.3987 8.0432 60.4234 7.53252C60.4011 7.04647 60.4422 6.55989 60.5456 6.08428C60.8359 4.66584 61.592 3.38247 62.6957 2.43518C63.7995 1.48789 65.1888 0.93007 66.6463 0.848472C66.726 0.844023 69.1764 0.841904 72.0919 0.844128C77.7158 0.848576 77.5116 0.844015 78.1196 0.964678C79.267 1.19417 80.3327 1.72109 81.208 2.49165C82.0832 3.26222 82.7369 4.24873 83.1024 5.3512C83.3033 5.93194 83.4119 6.54022 83.4244 7.15403L83.4384 7.60365H79.0877L79.0737 7.34735C79.0635 7.06758 78.9963 6.79268 78.8762 6.53933C78.7351 6.23526 78.5277 5.96641 78.2689 5.75141C78.0101 5.53641 77.7065 5.38096 77.3798 5.29636L77.1734 5.24043H66.6704L66.4634 5.29636C66.3172 5.33632 66.1749 5.38945 66.0383 5.45492C65.6285 5.65246 65.2882 5.9675 65.0619 6.35959C64.8356 6.75169 64.7337 7.20272 64.7696 7.65307C64.7867 8.09001 64.932 8.51209 65.1878 8.86835C65.4435 9.22461 65.7986 9.49928 66.2094 9.65845C66.611 9.80914 66.2234 9.79762 71.6174 9.81375C77.0321 9.82988 76.5861 9.81381 77.3422 9.9734C78.5075 10.228 79.5976 10.746 80.5275 11.4873C81.3688 12.1703 82.0623 13.0147 82.5663 13.97C83.1502 15.0723 83.4472 16.302 83.4305 17.5469C83.4435 18.4048 83.3061 19.258 83.0244 20.0692C82.5883 21.3408 81.8234 22.4768 80.8061 23.3638C79.7887 24.2507 78.5546 24.858 77.2267 25.1242C76.4701 25.271 76.6911 25.2641 72.2254 25.2746C71.328 25.2746 70.6044 25.2779 70.0121 25.2779C68.9859 25.3259 67.9574 25.2935 66.9363 25.1807H66.9335Z" fill="url(#paint0_linear_27_2755)"/>
<defs>
<linearGradient id="paint0_linear_27_2755" x1="7.602" y1="3.05" x2="18.4673" y2="44.4018" gradientUnits="userSpaceOnUse">
<stop stop-color="#8E4192"/>
<stop offset="1" stop-color="#5E7AA1"/>
</linearGradient>
</defs>
</svg>
