<svg width="23" height="20" viewBox="0 0 23 20" fill="none" xmlns="http://www.w3.org/2000/svg">
<path fill-rule="evenodd" clip-rule="evenodd" d="M10.0635 11.8178L14.1953 17.7508C14.3761 18.0108 14.6586 18.0078 14.7727 17.9938C14.8868 17.9798 15.1614 17.9178 15.2608 17.6228L20.4276 2.17777C20.518 1.90477 20.3519 1.71877 20.2773 1.65277C20.205 1.58677 19.9983 1.44577 19.6988 1.52077L2.2359 6.04677C1.90485 6.13277 1.83254 6.37877 1.81672 6.47977C1.80091 6.58277 1.79639 6.83777 2.08902 7.00077L8.86924 10.7538L14.8597 5.39577C15.1885 5.10177 15.7252 5.09877 16.0585 5.38977C16.3918 5.68077 16.394 6.15677 16.0653 6.45077L10.0635 11.8178ZM14.6846 19.4998C13.8982 19.4998 13.1774 19.1458 12.7525 18.5378L8.37211 12.2468L1.19079 8.27177C0.416842 7.84277 0.0123559 7.07877 0.137769 6.27577C0.262053 5.47277 0.884599 4.83477 1.7591 4.60777L19.222 0.0817716C20.0254 -0.126228 20.8863 0.0707716 21.4784 0.592772C22.0704 1.11977 22.2907 1.88977 22.0512 2.60377L16.8844 18.0478C16.6257 18.8248 15.9026 19.3738 14.9975 19.4808C14.8913 19.4928 14.7885 19.4998 14.6846 19.4998Z" fill="white"/>
</svg>
