<svg width="25" height="50" viewBox="0 0 25 50" fill="none" xmlns="http://www.w3.org/2000/svg">
<path d="M21.0409 1.99976H16.4584C16.0718 2.00025 15.7011 2.15407 15.4277 2.42747C15.1543 2.70088 15.0005 3.07155 15 3.4582V8.04162C15.0005 8.42827 15.1543 8.79894 15.4277 9.07234C15.7011 9.34575 16.0718 9.49956 16.4584 9.50006H21.0419C21.4285 9.49956 21.7992 9.34575 22.0726 9.07234C22.346 8.79894 22.4998 8.42827 22.5003 8.04162V3.4582C22.4998 3.07139 22.3459 2.70057 22.0723 2.42714C21.7986 2.15371 21.4277 2 21.0409 1.99976V1.99976Z" fill="#666666"/>
<path d="M16.4584 21.9991H21.0419C21.4285 21.9986 21.7992 21.8448 22.0726 21.5714C22.346 21.298 22.4998 20.9273 22.5003 20.5407V15.9582C22.4998 15.5714 22.3459 15.2006 22.0723 14.9271C21.7986 14.6537 21.4277 14.5 21.0409 14.4998H16.4584C16.0718 14.5003 15.7011 14.6541 15.4277 14.9275C15.1543 15.2009 15.0005 15.5716 15 15.9582V20.5416C15.0007 20.9281 15.1547 21.2985 15.4281 21.5717C15.7014 21.8449 16.072 21.9986 16.4584 21.9991Z" fill="#666666"/>
<path d="M18.7502 1.99976H16.3963C16.0205 2.01625 15.6656 2.1771 15.4055 2.44879C15.1454 2.72048 15.0001 3.08207 15 3.4582V8.04162C15.0005 8.42827 15.1543 8.79894 15.4277 9.07234C15.7011 9.34575 16.0718 9.49956 16.4584 9.50006H18.7502V1.99976Z" fill="#666666"/>
<path d="M18.7502 14.4998H16.4584C16.0718 14.5003 15.7011 14.6541 15.4277 14.9275C15.1543 15.2009 15.0005 15.5716 15 15.9582V20.5416C15.0005 20.9283 15.1543 21.2989 15.4277 21.5723C15.7011 21.8457 16.0718 21.9996 16.4584 22.0001H18.7502V14.4998Z" fill="#666666"/>
<path d="M8.5419 1.99976H3.95942C3.57277 2.00025 3.2021 2.15407 2.9287 2.42747C2.65529 2.70088 2.50147 3.07155 2.50098 3.4582V8.04162C2.50172 8.4281 2.65565 8.79853 2.92903 9.07173C3.2024 9.34493 3.57293 9.49862 3.95942 9.49912H8.5419C8.92838 9.49862 9.29891 9.34493 9.57229 9.07173C9.84567 8.79853 9.99959 8.4281 10.0003 8.04162V3.4582C9.99984 3.07155 9.84602 2.70088 9.57262 2.42747C9.29922 2.15407 8.92855 2.00025 8.5419 1.99976V1.99976Z" fill="#666666"/>
<path d="M3.95942 21.9991H8.5419C8.92855 21.9986 9.29922 21.8448 9.57262 21.5714C9.84602 21.298 9.99984 20.9273 10.0003 20.5407V15.9582C9.99984 15.5716 9.84602 15.2009 9.57262 14.9275C9.29922 14.6541 8.92855 14.5003 8.5419 14.4998H3.95942C3.57277 14.5003 3.2021 14.6541 2.9287 14.9275C2.65529 15.2009 2.50147 15.5716 2.50098 15.9582V20.5416C2.50172 20.9281 2.65565 21.2985 2.92903 21.5717C3.2024 21.8449 3.57293 21.9986 3.95942 21.9991Z" fill="#666666"/>
<path d="M6.25113 1.99976H3.89728C3.52151 2.01625 3.16659 2.1771 2.90647 2.44879C2.64635 2.72048 2.5011 3.08207 2.50098 3.4582V8.04162C2.50172 8.4281 2.65565 8.79853 2.92903 9.07173C3.2024 9.34493 3.57293 9.49862 3.95942 9.49912H6.25113V1.99976Z" fill="#666666"/>
<path d="M6.25113 14.4998H3.95942C3.57277 14.5003 3.2021 14.6541 2.9287 14.9275C2.65529 15.2009 2.50147 15.5716 2.50098 15.9582V20.5416C2.50147 20.9283 2.65529 21.2989 2.9287 21.5723C3.2021 21.8457 3.57277 21.9996 3.95942 22.0001H6.25113V14.4998Z" fill="#666666"/>
<path d="M15.0009 5.12476H6.25116C6.08535 5.12476 5.92633 5.19062 5.80909 5.30787C5.69184 5.42511 5.62598 5.58413 5.62598 5.74994C5.62598 5.91575 5.69184 6.07476 5.80909 6.19201C5.92633 6.30925 6.08535 6.37512 6.25116 6.37512H15.0009V5.12476Z" fill="white"/>
<path d="M18.7497 17.6238H10V18.8741H18.7497C18.9155 18.8741 19.0746 18.8083 19.1918 18.691C19.309 18.5738 19.3749 18.4148 19.3749 18.249C19.3749 18.0832 19.309 17.9241 19.1918 17.8069C19.0746 17.6896 18.9155 17.6238 18.7497 17.6238Z" fill="white"/>
<path d="M12.1525 5.33325H5.90253C5.73672 5.33325 5.5777 5.39912 5.46046 5.51636C5.34321 5.63361 5.27734 5.79263 5.27734 5.95843C5.27734 6.12424 5.34321 6.28326 5.46046 6.4005C5.5777 6.51775 5.73672 6.58362 5.90253 6.58362H12.1534L12.1525 5.33325Z" fill="white"/>
<path d="M12.5007 17.6238H10V18.8741H12.5007V17.6238Z" fill="white"/>
<path d="M5.62598 9.49927V18.249C5.62598 18.4148 5.69184 18.5738 5.80909 18.6911C5.92633 18.8083 6.08535 18.8742 6.25116 18.8742C6.41697 18.8742 6.57599 18.8083 6.69323 18.6911C6.81047 18.5738 6.87634 18.4148 6.87634 18.249V9.49927H5.62598Z" fill="white"/>
<path d="M19.306 14.7082V5.95843C19.306 5.87633 19.2899 5.79504 19.2584 5.71919C19.227 5.64334 19.181 5.57442 19.1229 5.51636C19.0649 5.45831 18.9959 5.41226 18.9201 5.38084C18.8442 5.34942 18.7629 5.33325 18.6808 5.33325C18.5987 5.33325 18.5175 5.34942 18.4416 5.38084C18.3657 5.41226 18.2968 5.45831 18.2388 5.51636C18.1807 5.57442 18.1347 5.64334 18.1033 5.71919C18.0718 5.79504 18.0557 5.87633 18.0557 5.95843V14.7082H19.306Z" fill="white"/>
<path d="M6.87634 11.999H5.62598V18.249C5.62598 18.4148 5.69184 18.5738 5.80909 18.691C5.92633 18.8083 6.08535 18.8741 6.25116 18.8741C6.41697 18.8741 6.57599 18.8083 6.69323 18.691C6.81047 18.5738 6.87634 18.4148 6.87634 18.249V11.999Z" fill="white"/>
<path d="M19.3754 11.999H18.125V14.4988H19.3754V11.999Z" fill="white"/>
<path d="M7.98779 37.168C7.98779 37.6627 7.87112 38.1293 7.63779 38.568C7.40446 39.0067 7.03112 39.366 6.51779 39.646C6.00446 39.9167 5.34646 40.052 4.54379 40.052H2.77979V44H1.18379V34.27H4.54379C5.29046 34.27 5.92046 34.4007 6.43379 34.662C6.95646 34.914 7.34379 35.2593 7.59579 35.698C7.85712 36.1367 7.98779 36.6267 7.98779 37.168ZM4.54379 38.75C5.15046 38.75 5.60312 38.6147 5.90179 38.344C6.20046 38.064 6.34979 37.672 6.34979 37.168C6.34979 36.104 5.74779 35.572 4.54379 35.572H2.77979V38.75H4.54379ZM10.182 41.83C11.078 41.0553 11.7826 40.4207 12.296 39.926C12.8186 39.422 13.2526 38.8993 13.598 38.358C13.9433 37.8167 14.116 37.2753 14.116 36.734C14.116 36.174 13.9806 35.7353 13.71 35.418C13.4486 35.1007 13.0333 34.942 12.464 34.942C11.9133 34.942 11.484 35.1193 11.176 35.474C10.8773 35.8193 10.7186 36.286 10.7 36.874H9.15996C9.18796 35.81 9.50529 34.998 10.112 34.438C10.728 33.8687 11.5073 33.584 12.45 33.584C13.4673 33.584 14.2606 33.864 14.83 34.424C15.4086 34.984 15.698 35.7307 15.698 36.664C15.698 37.336 15.5253 37.9847 15.18 38.61C14.844 39.226 14.438 39.7813 13.962 40.276C13.4953 40.7613 12.898 41.326 12.17 41.97L11.54 42.53H15.978V43.86H9.17396V42.698L10.182 41.83ZM24.394 37.168C24.394 37.6627 24.2774 38.1293 24.044 38.568C23.8107 39.0067 23.4374 39.366 22.924 39.646C22.4107 39.9167 21.7527 40.052 20.95 40.052H19.186V44H17.59V34.27H20.95C21.6967 34.27 22.3267 34.4007 22.84 34.662C23.3627 34.914 23.75 35.2593 24.002 35.698C24.2634 36.1367 24.394 36.6267 24.394 37.168ZM20.95 38.75C21.5567 38.75 22.0094 38.6147 22.308 38.344C22.6067 38.064 22.756 37.672 22.756 37.168C22.756 36.104 22.154 35.572 20.95 35.572H19.186V38.75H20.95Z" fill="#666666"/>
</svg>
