<svg width="52" height="56" viewBox="0 0 52 56" fill="none" xmlns="http://www.w3.org/2000/svg">
<path fill-rule="evenodd" clip-rule="evenodd" d="M25.534 17.1497L25.6658 17.1497L25.9605 17.1507C28.2128 17.1655 33.36 17.3931 33.36 20.8818C33.36 24.3477 28.3922 24.5737 25.9956 24.5885L25.1076 24.5885C22.8551 24.5736 17.7069 24.3464 17.7069 20.862C17.7069 17.3918 22.8551 17.1655 25.1076 17.1507L25.4023 17.1497C25.448 17.1497 25.492 17.1497 25.534 17.1497ZM25.534 18.8997C22.762 18.8997 19.4569 19.2403 19.4569 20.862C19.4569 22.447 22.5648 22.8175 25.2807 22.8385L25.534 22.8395C28.306 22.8395 31.61 22.5 31.61 20.8818C31.61 19.2438 28.306 18.8997 25.534 18.8997ZM34.8132 16.6762C37.6401 17.0997 38.2339 18.4274 38.2339 19.4669C38.2339 20.1016 37.9842 21.2601 36.3159 21.8959C36.2132 21.9344 36.1082 21.9531 36.0044 21.9531C35.6521 21.9531 35.3196 21.7384 35.1866 21.3896C35.0139 20.9381 35.2414 20.4317 35.6929 20.2602C36.4839 19.9592 36.4839 19.6267 36.4839 19.4669C36.4839 18.9559 35.8341 18.5989 34.5531 18.4076C34.0759 18.3352 33.7457 17.8907 33.8169 17.4112C33.8881 16.9329 34.3314 16.6144 34.8132 16.6762ZM17.25 17.4112C17.3212 17.8907 16.991 18.3352 16.5138 18.4076C15.2328 18.5989 14.583 18.9559 14.583 19.4669C14.583 19.6267 14.583 19.9581 15.3752 20.2602C15.8267 20.4317 16.0542 20.9381 15.8815 21.3896C15.7485 21.7384 15.416 21.9531 15.0637 21.9531C14.9598 21.9531 14.8548 21.9344 14.7522 21.8959C13.0827 21.2589 12.833 20.1004 12.833 19.4669C12.833 18.4286 13.4268 17.0997 16.2548 16.6762C16.7367 16.6156 17.1777 16.9329 17.25 17.4112ZM25.534 5C28.474 5 30.8645 7.39167 30.8645 10.3305C30.8645 13.2693 28.474 15.661 25.534 15.661H25.5025C24.0792 15.6563 22.7457 15.0987 21.747 14.0907C20.746 13.0838 20.1989 11.7468 20.2047 10.327C20.2047 7.39167 22.5952 5 25.534 5ZM25.534 6.75C23.56 6.75 21.9547 8.3565 21.9547 10.3305C21.9512 11.2872 22.3175 12.182 22.9884 12.8575C23.6592 13.533 24.5529 13.9075 25.5049 13.911L25.534 14.786V13.911C27.508 13.911 29.1145 12.3057 29.1145 10.3305C29.1145 8.3565 27.508 6.75 25.534 6.75ZM32.7545 6.14275C34.8055 6.47992 36.2954 8.23458 36.2954 10.3148C36.2907 12.4089 34.7262 14.2056 32.6554 14.4961C32.6145 14.5019 32.5737 14.5043 32.534 14.5043C32.1047 14.5043 31.7302 14.1881 31.6684 13.7506C31.6019 13.2711 31.9344 12.8289 32.4139 12.7624C33.6272 12.5921 34.543 11.5398 34.5454 10.3124C34.5454 9.09558 33.6727 8.06658 32.4699 7.86942C31.9939 7.79125 31.6707 7.34092 31.7489 6.86375C31.8282 6.38658 32.275 6.06692 32.7545 6.14275ZM19.3192 6.86375C19.3974 7.34092 19.0742 7.79125 18.5982 7.86942C17.3954 8.06658 16.5227 9.09558 16.5227 10.3148C16.525 11.5398 17.4409 12.5933 18.653 12.7624C19.1325 12.8289 19.465 13.2711 19.3985 13.7506C19.3367 14.1881 18.9622 14.5043 18.5329 14.5043C18.4932 14.5043 18.4524 14.5019 18.4115 14.4961C16.3407 14.2056 14.7774 12.4089 14.7727 10.3171C14.7727 8.23458 16.2625 6.47992 18.3135 6.14275C18.8047 6.06575 19.2399 6.38892 19.3192 6.86375Z" fill="#666666"/>
<path d="M3.2544 41.058V43.914H6.6144V45.216H3.2544V48.198H7.0344V49.5H1.6584V39.756H7.0344V41.058H3.2544ZM12.3042 45.594L14.7962 49.5H12.9902L11.3242 46.882L9.7562 49.5H8.0902L10.5822 45.706L8.0902 41.786H9.8962L11.5622 44.404L13.1302 41.786H14.7962L12.3042 45.594ZM17.5825 42.92C17.8532 42.5653 18.2219 42.2667 18.6885 42.024C19.1552 41.7813 19.6825 41.66 20.2705 41.66C20.9425 41.66 21.5539 41.828 22.1045 42.164C22.6645 42.4907 23.1032 42.9527 23.4205 43.55C23.7379 44.1473 23.8965 44.8333 23.8965 45.608C23.8965 46.3827 23.7379 47.078 23.4205 47.694C23.1032 48.3007 22.6645 48.7767 22.1045 49.122C21.5539 49.458 20.9425 49.626 20.2705 49.626C19.6825 49.626 19.1599 49.5093 18.7025 49.276C18.2452 49.0333 17.8719 48.7347 17.5825 48.38V53.168H15.9865V41.786H17.5825V42.92ZM22.2725 45.608C22.2725 45.076 22.1605 44.6187 21.9365 44.236C21.7219 43.844 21.4325 43.55 21.0685 43.354C20.7139 43.1487 20.3312 43.046 19.9205 43.046C19.5192 43.046 19.1365 43.1487 18.7725 43.354C18.4179 43.5593 18.1285 43.858 17.9045 44.25C17.6899 44.642 17.5825 45.104 17.5825 45.636C17.5825 46.168 17.6899 46.6347 17.9045 47.036C18.1285 47.428 18.4179 47.7267 18.7725 47.932C19.1365 48.1373 19.5192 48.24 19.9205 48.24C20.3312 48.24 20.7139 48.1373 21.0685 47.932C21.4325 47.7173 21.7219 47.4093 21.9365 47.008C22.1605 46.6067 22.2725 46.14 22.2725 45.608ZM27.0708 39.14V49.5H25.4748V39.14H27.0708ZM32.5122 49.626C31.7842 49.626 31.1262 49.4627 30.5382 49.136C29.9502 48.8 29.4882 48.3333 29.1522 47.736C28.8162 47.1293 28.6482 46.4293 28.6482 45.636C28.6482 44.852 28.8209 44.1567 29.1662 43.55C29.5115 42.9433 29.9829 42.4767 30.5802 42.15C31.1775 41.8233 31.8449 41.66 32.5822 41.66C33.3195 41.66 33.9869 41.8233 34.5842 42.15C35.1815 42.4767 35.6529 42.9433 35.9982 43.55C36.3435 44.1567 36.5162 44.852 36.5162 45.636C36.5162 46.42 36.3389 47.1153 35.9842 47.722C35.6295 48.3287 35.1442 48.8 34.5282 49.136C33.9215 49.4627 33.2495 49.626 32.5122 49.626ZM32.5122 48.24C32.9229 48.24 33.3055 48.142 33.6602 47.946C34.0242 47.75 34.3182 47.456 34.5422 47.064C34.7662 46.672 34.8782 46.196 34.8782 45.636C34.8782 45.076 34.7709 44.6047 34.5562 44.222C34.3415 43.83 34.0569 43.536 33.7022 43.34C33.3475 43.144 32.9649 43.046 32.5542 43.046C32.1435 43.046 31.7609 43.144 31.4062 43.34C31.0609 43.536 30.7855 43.83 30.5802 44.222C30.3749 44.6047 30.2722 45.076 30.2722 45.636C30.2722 46.4667 30.4822 47.1107 30.9022 47.568C31.3315 48.016 31.8682 48.24 32.5122 48.24ZM39.6899 42.906C39.9233 42.514 40.2313 42.2107 40.6139 41.996C41.0059 41.772 41.4679 41.66 41.9999 41.66V43.312H41.5939C40.9686 43.312 40.4926 43.4707 40.1659 43.788C39.8486 44.1053 39.6899 44.656 39.6899 45.44V49.5H38.0939V41.786H39.6899V42.906ZM50.537 45.454C50.537 45.7433 50.5183 46.0047 50.481 46.238H44.587C44.6337 46.854 44.8623 47.3487 45.273 47.722C45.6837 48.0953 46.1877 48.282 46.785 48.282C47.6437 48.282 48.2503 47.9227 48.605 47.204H50.327C50.0937 47.9133 49.669 48.4967 49.053 48.954C48.4463 49.402 47.6903 49.626 46.785 49.626C46.0477 49.626 45.385 49.4627 44.797 49.136C44.2183 48.8 43.761 48.3333 43.425 47.736C43.0983 47.1293 42.935 46.4293 42.935 45.636C42.935 44.8427 43.0937 44.1473 43.411 43.55C43.7377 42.9433 44.1903 42.4767 44.769 42.15C45.357 41.8233 46.029 41.66 46.785 41.66C47.513 41.66 48.1617 41.8187 48.731 42.136C49.3003 42.4533 49.7437 42.9013 50.061 43.48C50.3783 44.0493 50.537 44.7073 50.537 45.454ZM48.871 44.95C48.8617 44.362 48.6517 43.8907 48.241 43.536C47.8303 43.1813 47.3217 43.004 46.715 43.004C46.1643 43.004 45.693 43.1813 45.301 43.536C44.909 43.8813 44.6757 44.3527 44.601 44.95H48.871Z" fill="#666666"/>
</svg>
