<svg width="41" height="54" viewBox="0 0 41 54" fill="none" xmlns="http://www.w3.org/2000/svg">
<path d="M27.5515 25.6666H25.2638C24.8824 25.6666 24.5168 25.5155 24.2481 25.2468C23.9794 24.9781 23.8299 24.6141 23.8326 24.2355V20.6681C23.8326 20.2308 23.6576 19.8114 23.3462 19.5022L27.5515 25.6666ZM27.5515 25.6666C28.6199 25.6693 29.6455 25.2499 30.402 24.5009C31.1585 23.7518 31.5837 22.7347 31.5837 21.674V11.5113C31.5837 10.6545 31.2011 9.84173 30.539 9.29203L27.5515 25.6666ZM24.8326 24.2428H24.8326V24.2355V20.6681C24.8326 19.9633 24.5505 19.2887 24.0507 18.7925C23.5511 18.2966 22.8751 18.0193 22.1717 18.0193H18.8185C17.3558 18.0193 16.1576 19.1983 16.1576 20.6681V23.5131L16.1315 23.5217L16.1263 24.2386C16.1246 24.4686 15.9342 24.6666 15.6847 24.6666H13.4492C11.7677 24.6666 10.417 23.3153 10.417 21.6637V11.5243C10.4334 10.9613 10.7027 10.4326 11.155 10.0846L11.1626 10.0787L11.1701 10.0727L18.7749 3.98542L18.7887 3.97435L18.8021 3.96279C19.7508 3.14667 21.1542 3.12122 22.1324 3.90296L22.1354 3.90536L29.908 10.0679C30.3376 10.4284 30.5837 10.9567 30.5837 11.5113V21.674C30.5837 22.4667 30.266 23.2283 29.6984 23.7903C29.1306 24.3525 28.3592 24.6687 27.554 24.6666H27.5515H25.2638C25.1465 24.6666 25.0356 24.6201 24.9552 24.5397C24.8751 24.4596 24.8318 24.3526 24.8326 24.2428Z" stroke="#666666" stroke-width="2"/>
<path d="M9.05145 38.27V48H7.45545V43.744H2.87745V48H1.28145V38.27H2.87745V42.442H7.45545V38.27H9.05145ZM15.5905 48.098C14.6852 48.098 13.8499 47.888 13.0845 47.468C12.3285 47.0387 11.7265 46.446 11.2785 45.69C10.8399 44.9247 10.6205 44.066 10.6205 43.114C10.6205 42.162 10.8399 41.308 11.2785 40.552C11.7265 39.796 12.3285 39.208 13.0845 38.788C13.8499 38.3587 14.6852 38.144 15.5905 38.144C16.5052 38.144 17.3405 38.3587 18.0965 38.788C18.8619 39.208 19.4639 39.796 19.9025 40.552C20.3412 41.308 20.5605 42.162 20.5605 43.114C20.5605 44.066 20.3412 44.9247 19.9025 45.69C19.4639 46.446 18.8619 47.0387 18.0965 47.468C17.3405 47.888 16.5052 48.098 15.5905 48.098ZM15.5905 46.712C16.2345 46.712 16.8085 46.5673 17.3125 46.278C17.8165 45.9793 18.2085 45.5593 18.4885 45.018C18.7779 44.4673 18.9225 43.8327 18.9225 43.114C18.9225 42.3953 18.7779 41.7653 18.4885 41.224C18.2085 40.6827 17.8165 40.2673 17.3125 39.978C16.8085 39.6887 16.2345 39.544 15.5905 39.544C14.9465 39.544 14.3725 39.6887 13.8685 39.978C13.3645 40.2673 12.9679 40.6827 12.6785 41.224C12.3985 41.7653 12.2585 42.3953 12.2585 43.114C12.2585 43.8327 12.3985 44.4673 12.6785 45.018C12.9679 45.5593 13.3645 45.9793 13.8685 46.278C14.3725 46.5673 14.9465 46.712 15.5905 46.712ZM32.3791 38.27V48H30.7831V41.336L27.8151 48H26.7091L23.7271 41.336V48H22.1311V38.27H23.8531L27.2691 45.9L30.6711 38.27H32.3791ZM36.0728 39.558V42.414H39.4328V43.716H36.0728V46.698H39.8528V48H34.4768V38.256H39.8528V39.558H36.0728Z" fill="#666666"/>
</svg>
