<svg width="42" height="54" viewBox="0 0 42 54" fill="none" xmlns="http://www.w3.org/2000/svg">
<path d="M17.6576 24.2355V20.6681C17.6576 19.7575 18.4012 19.0193 19.3185 19.0193H22.6717C23.1122 19.0193 23.5347 19.193 23.8462 19.5022C24.1576 19.8114 24.3326 20.2308 24.3326 20.6681V24.2355C24.3299 24.6141 24.4794 24.9781 24.7481 25.2468C25.0168 25.5155 25.3824 25.6666 25.7638 25.6666H28.0515C29.1199 25.6693 30.1455 25.2499 30.902 24.5009C31.6585 23.7518 32.0837 22.7347 32.0837 21.674V11.5113C32.0837 10.6545 31.7011 9.84173 31.039 9.29203L23.2567 3.12177C21.9029 2.03991 19.9633 2.07484 18.6499 3.20473L11.0452 9.29203C10.3519 9.82553 9.93747 10.6407 9.91699 11.5113V21.6637C9.91699 23.8744 11.7223 25.6666 13.9492 25.6666H16.1847C16.9768 25.6666 17.6205 25.0322 17.6262 24.2459L17.6576 24.2355Z" fill="#7C167D"/>
<path d="M9.53684 38.228V48H7.57684V43.842H3.39084V48H1.43084V38.228H3.39084V42.246H7.57684V38.228H9.53684ZM16.002 48.098C15.0873 48.098 14.2473 47.8833 13.482 47.454C12.7167 47.0247 12.11 46.432 11.662 45.676C11.214 44.9107 10.99 44.0473 10.99 43.086C10.99 42.134 11.214 41.28 11.662 40.524C12.11 39.7587 12.7167 39.1613 13.482 38.732C14.2473 38.3027 15.0873 38.088 16.002 38.088C16.926 38.088 17.766 38.3027 18.522 38.732C19.2873 39.1613 19.8893 39.7587 20.328 40.524C20.776 41.28 21 42.134 21 43.086C21 44.0473 20.776 44.9107 20.328 45.676C19.8893 46.432 19.2873 47.0247 18.522 47.454C17.7567 47.8833 16.9167 48.098 16.002 48.098ZM16.002 46.348C16.59 46.348 17.108 46.2173 17.556 45.956C18.004 45.6853 18.354 45.3027 18.606 44.808C18.858 44.3133 18.984 43.7393 18.984 43.086C18.984 42.4327 18.858 41.8633 18.606 41.378C18.354 40.8833 18.004 40.5053 17.556 40.244C17.108 39.9827 16.59 39.852 16.002 39.852C15.414 39.852 14.8913 39.9827 14.434 40.244C13.986 40.5053 13.636 40.8833 13.384 41.378C13.132 41.8633 13.006 42.4327 13.006 43.086C13.006 43.7393 13.132 44.3133 13.384 44.808C13.636 45.3027 13.986 45.6853 14.434 45.956C14.8913 46.2173 15.414 46.348 16.002 46.348ZM33.1122 38.228V48H31.1522V41.644L28.5342 48H27.0502L24.4182 41.644V48H22.4582V38.228H24.6842L27.7922 45.494L30.9002 38.228H33.1122ZM37.01 39.81V42.26H40.3V43.814H37.01V46.404H40.72V48H35.05V38.214H40.72V39.81H37.01Z" fill="#7C167D"/>
</svg>
