<svg width="91" height="54" viewBox="0 0 91 54" fill="none" xmlns="http://www.w3.org/2000/svg">
<path d="M44.7885 0.236566C45.3323 -0.0788551 46.0023 -0.0788555 46.546 0.236566L57.0916 6.35369C57.6353 6.66911 57.9703 7.25203 57.9703 7.88288V20.1171C57.9703 20.748 57.6353 21.3309 57.0916 21.6463L46.546 27.7634C46.0023 28.0789 45.3323 28.0789 44.7885 27.7634L34.243 21.6463C33.6992 21.3309 33.3643 20.748 33.3643 20.1171V7.88288C33.3643 7.25203 33.6992 6.66911 34.243 6.35369L44.7885 0.236566Z" fill="#7C167D"/>
<path d="M38.0825 18C37.8487 18 37.6705 17.929 37.548 17.787C37.4255 17.645 37.3643 17.4352 37.3643 17.1577V11.8811C37.3643 11.597 37.4255 11.3808 37.548 11.2324C37.6705 11.0775 37.8319 11 38.0324 11C38.2106 11 38.3497 11.0387 38.45 11.1162C38.5502 11.1936 38.6615 11.3227 38.784 11.5035L41.4315 15.3375H41.1976V11.8326C41.1976 11.5615 41.2561 11.355 41.373 11.213C41.4955 11.071 41.6737 11 41.9075 11C42.1414 11 42.3168 11.071 42.4337 11.213C42.5562 11.355 42.6174 11.5615 42.6174 11.8326V17.1964C42.6174 17.4417 42.5617 17.6385 42.4504 17.787C42.339 17.929 42.1887 18 41.9994 18C41.8101 18 41.6598 17.9613 41.5484 17.8838C41.4426 17.7999 41.3285 17.6708 41.206 17.4965L38.5585 13.6528H38.7924V17.1577C38.7924 17.4352 38.7311 17.645 38.6086 17.787C38.4917 17.929 38.3163 18 38.0825 18Z" fill="white"/>
<path d="M44.8875 18C44.6425 18 44.4504 17.9225 44.3112 17.7676C44.1776 17.6063 44.1108 17.3771 44.1108 17.0802V12.0069C44.1108 11.71 44.1776 11.4841 44.3112 11.3292C44.4504 11.1678 44.6509 11.0871 44.9125 11.0871H47.6936C47.8941 11.0871 48.0444 11.1452 48.1446 11.2614C48.2448 11.3776 48.2949 11.5454 48.2949 11.7649C48.2949 11.9908 48.2448 12.1651 48.1446 12.2877C48.0444 12.4039 47.8941 12.462 47.6936 12.462H45.6475V13.8368H47.5099C47.7048 13.8368 47.8523 13.8949 47.9525 14.0111C48.0583 14.1272 48.1112 14.2951 48.1112 14.5145C48.1112 14.7404 48.0583 14.9115 47.9525 15.0277C47.8523 15.1438 47.7048 15.2019 47.5099 15.2019H45.6475V17.0802C45.6475 17.6934 45.3941 18 44.8875 18Z" fill="white"/>
<path d="M51.65 18C51.405 18 51.2157 17.9225 51.0821 17.7676C50.9485 17.6063 50.8816 17.3836 50.8816 17.0996V12.5394H49.5704C49.3644 12.5394 49.2058 12.4781 49.0944 12.3555C48.9886 12.2264 48.9357 12.0456 48.9357 11.8133C48.9357 11.5745 48.9886 11.3937 49.0944 11.2711C49.2058 11.1485 49.3644 11.0871 49.5704 11.0871H53.7295C53.9355 11.0871 54.0914 11.1485 54.1972 11.2711C54.3086 11.3937 54.3643 11.5745 54.3643 11.8133C54.3643 12.0456 54.3086 12.2264 54.1972 12.3555C54.0914 12.4781 53.9355 12.5394 53.7295 12.5394H52.4183V17.0996C52.4183 17.3836 52.3543 17.6063 52.2263 17.7676C52.0982 17.9225 51.9061 18 51.65 18Z" fill="white"/>
<path d="M12.327 38.228V48H10.367V41.644L7.74903 48H6.26503L3.63303 41.644V48H1.67303V38.228H3.89903L7.00703 45.494L10.115 38.228H12.327ZM13.7608 44.094C13.7608 43.31 13.9148 42.6147 14.2228 42.008C14.5402 41.4013 14.9648 40.9347 15.4968 40.608C16.0382 40.2813 16.6402 40.118 17.3028 40.118C17.8815 40.118 18.3855 40.2347 18.8148 40.468C19.2535 40.7013 19.6035 40.9953 19.8648 41.35V40.244H21.8388V48H19.8648V46.866C19.6128 47.23 19.2628 47.5333 18.8148 47.776C18.3762 48.0093 17.8675 48.126 17.2888 48.126C16.6355 48.126 16.0382 47.958 15.4968 47.622C14.9648 47.286 14.5402 46.8147 14.2228 46.208C13.9148 45.592 13.7608 44.8873 13.7608 44.094ZM19.8648 44.122C19.8648 43.646 19.7715 43.24 19.5848 42.904C19.3982 42.5587 19.1462 42.2973 18.8288 42.12C18.5115 41.9333 18.1708 41.84 17.8068 41.84C17.4428 41.84 17.1068 41.9287 16.7988 42.106C16.4908 42.2833 16.2388 42.5447 16.0428 42.89C15.8562 43.226 15.7628 43.6273 15.7628 44.094C15.7628 44.5607 15.8562 44.9713 16.0428 45.326C16.2388 45.6713 16.4908 45.9373 16.7988 46.124C17.1162 46.3107 17.4522 46.404 17.8068 46.404C18.1708 46.404 18.5115 46.3153 18.8288 46.138C19.1462 45.9513 19.3982 45.69 19.5848 45.354C19.7715 45.0087 19.8648 44.598 19.8648 44.122ZM25.7131 41.448C25.9651 41.0373 26.2918 40.7153 26.6931 40.482C27.1038 40.2487 27.5704 40.132 28.0931 40.132V42.19H27.5751C26.9591 42.19 26.4924 42.3347 26.1751 42.624C25.8671 42.9133 25.7131 43.4173 25.7131 44.136V48H23.7531V40.244H25.7131V41.448ZM34.0053 48L31.3733 44.696V48H29.4133V37.64H31.3733V43.534L33.9773 40.244H36.5253L33.1093 44.136L36.5533 48H34.0053ZM44.799 43.954C44.799 44.234 44.7804 44.486 44.743 44.71H39.073C39.1197 45.27 39.3157 45.7087 39.661 46.026C40.0064 46.3433 40.431 46.502 40.935 46.502C41.663 46.502 42.181 46.1893 42.489 45.564H44.603C44.379 46.3107 43.9497 46.9267 43.315 47.412C42.6804 47.888 41.901 48.126 40.977 48.126C40.2304 48.126 39.5584 47.9627 38.961 47.636C38.373 47.3 37.911 46.8287 37.575 46.222C37.2484 45.6153 37.085 44.9153 37.085 44.122C37.085 43.3193 37.2484 42.6147 37.575 42.008C37.9017 41.4013 38.359 40.9347 38.947 40.608C39.535 40.2813 40.2117 40.118 40.977 40.118C41.7144 40.118 42.3724 40.2767 42.951 40.594C43.539 40.9113 43.9917 41.364 44.309 41.952C44.6357 42.5307 44.799 43.198 44.799 43.954ZM42.769 43.394C42.7597 42.89 42.5777 42.4887 42.223 42.19C41.8684 41.882 41.4344 41.728 40.921 41.728C40.4357 41.728 40.025 41.8773 39.689 42.176C39.3624 42.4653 39.1617 42.8713 39.087 43.394H42.769ZM48.5117 41.854V45.606C48.5117 45.8673 48.5723 46.0587 48.6937 46.18C48.8243 46.292 49.039 46.348 49.3377 46.348H50.2477V48H49.0157C47.3637 48 46.5377 47.1973 46.5377 45.592V41.854H45.6137V40.244H46.5377V38.326H48.5117V40.244H50.2477V41.854H48.5117ZM53.6174 41.364C53.8694 41.0093 54.2147 40.7153 54.6534 40.482C55.1014 40.2393 55.6101 40.118 56.1794 40.118C56.8421 40.118 57.4394 40.2813 57.9714 40.608C58.5127 40.9347 58.9374 41.4013 59.2454 42.008C59.5627 42.6053 59.7214 43.3007 59.7214 44.094C59.7214 44.8873 59.5627 45.592 59.2454 46.208C58.9374 46.8147 58.5127 47.286 57.9714 47.622C57.4394 47.958 56.8421 48.126 56.1794 48.126C55.6101 48.126 55.1061 48.0093 54.6674 47.776C54.2381 47.5427 53.8881 47.2487 53.6174 46.894V51.696H51.6574V40.244H53.6174V41.364ZM57.7194 44.094C57.7194 43.6273 57.6214 43.226 57.4254 42.89C57.2387 42.5447 56.9867 42.2833 56.6694 42.106C56.3614 41.9287 56.0254 41.84 55.6614 41.84C55.3067 41.84 54.9707 41.9333 54.6534 42.12C54.3454 42.2973 54.0934 42.5587 53.8974 42.904C53.7107 43.2493 53.6174 43.6553 53.6174 44.122C53.6174 44.5887 53.7107 44.9947 53.8974 45.34C54.0934 45.6853 54.3454 45.9513 54.6534 46.138C54.9707 46.3153 55.3067 46.404 55.6614 46.404C56.0254 46.404 56.3614 46.3107 56.6694 46.124C56.9867 45.9373 57.2387 45.6713 57.4254 45.326C57.6214 44.9807 57.7194 44.57 57.7194 44.094ZM63.1057 37.64V48H61.1457V37.64H63.1057ZM64.5382 44.094C64.5382 43.31 64.6922 42.6147 65.0002 42.008C65.3175 41.4013 65.7422 40.9347 66.2742 40.608C66.8155 40.2813 67.4175 40.118 68.0802 40.118C68.6588 40.118 69.1628 40.2347 69.5922 40.468C70.0308 40.7013 70.3808 40.9953 70.6422 41.35V40.244H72.6162V48H70.6422V46.866C70.3902 47.23 70.0402 47.5333 69.5922 47.776C69.1535 48.0093 68.6448 48.126 68.0662 48.126C67.4128 48.126 66.8155 47.958 66.2742 47.622C65.7422 47.286 65.3175 46.8147 65.0002 46.208C64.6922 45.592 64.5382 44.8873 64.5382 44.094ZM70.6422 44.122C70.6422 43.646 70.5488 43.24 70.3622 42.904C70.1755 42.5587 69.9235 42.2973 69.6062 42.12C69.2888 41.9333 68.9482 41.84 68.5842 41.84C68.2202 41.84 67.8842 41.9287 67.5762 42.106C67.2682 42.2833 67.0162 42.5447 66.8202 42.89C66.6335 43.226 66.5402 43.6273 66.5402 44.094C66.5402 44.5607 66.6335 44.9713 66.8202 45.326C67.0162 45.6713 67.2682 45.9373 67.5762 46.124C67.8935 46.3107 68.2295 46.404 68.5842 46.404C68.9482 46.404 69.2888 46.3153 69.6062 46.138C69.9235 45.9513 70.1755 45.69 70.3622 45.354C70.5488 45.0087 70.6422 44.598 70.6422 44.122ZM74.0265 44.122C74.0265 43.3193 74.1898 42.6193 74.5165 42.022C74.8431 41.4153 75.2958 40.9487 75.8745 40.622C76.4531 40.286 77.1158 40.118 77.8625 40.118C78.8238 40.118 79.6171 40.3607 80.2425 40.846C80.8771 41.322 81.3018 41.994 81.5165 42.862H79.4025C79.2905 42.526 79.0991 42.2647 78.8285 42.078C78.5671 41.882 78.2405 41.784 77.8485 41.784C77.2885 41.784 76.8451 41.9893 76.5185 42.4C76.1918 42.8013 76.0285 43.3753 76.0285 44.122C76.0285 44.8593 76.1918 45.4333 76.5185 45.844C76.8451 46.2453 77.2885 46.446 77.8485 46.446C78.6418 46.446 79.1598 46.0913 79.4025 45.382H81.5165C81.3018 46.222 80.8771 46.8893 80.2425 47.384C79.6078 47.8787 78.8145 48.126 77.8625 48.126C77.1158 48.126 76.4531 47.9627 75.8745 47.636C75.2958 47.3 74.8431 46.8333 74.5165 46.236C74.1898 45.6293 74.0265 44.9247 74.0265 44.122ZM90.1623 43.954C90.1623 44.234 90.1437 44.486 90.1063 44.71H84.4363C84.483 45.27 84.679 45.7087 85.0243 46.026C85.3697 46.3433 85.7943 46.502 86.2983 46.502C87.0263 46.502 87.5443 46.1893 87.8523 45.564H89.9663C89.7423 46.3107 89.313 46.9267 88.6783 47.412C88.0437 47.888 87.2643 48.126 86.3403 48.126C85.5937 48.126 84.9217 47.9627 84.3243 47.636C83.7363 47.3 83.2743 46.8287 82.9383 46.222C82.6117 45.6153 82.4483 44.9153 82.4483 44.122C82.4483 43.3193 82.6117 42.6147 82.9383 42.008C83.265 41.4013 83.7223 40.9347 84.3103 40.608C84.8983 40.2813 85.575 40.118 86.3403 40.118C87.0777 40.118 87.7357 40.2767 88.3143 40.594C88.9023 40.9113 89.355 41.364 89.6723 41.952C89.999 42.5307 90.1623 43.198 90.1623 43.954ZM88.1323 43.394C88.123 42.89 87.941 42.4887 87.5863 42.19C87.2317 41.882 86.7977 41.728 86.2843 41.728C85.799 41.728 85.3883 41.8773 85.0523 42.176C84.7257 42.4653 84.525 42.8713 84.4503 43.394H88.1323Z" fill="#7C167D"/>
</svg>
