<svg width="53" height="56" viewBox="0 0 53 56" fill="none" xmlns="http://www.w3.org/2000/svg">
<path fill-rule="evenodd" clip-rule="evenodd" d="M26.201 17.3164L26.3328 17.3165L26.6275 17.3175C28.8798 17.3323 34.027 17.5598 34.027 21.0486C34.027 24.5144 29.0592 24.7405 26.6626 24.7552L25.7746 24.7552C23.5221 24.7404 18.3739 24.5132 18.3739 21.0287C18.3739 17.5585 23.5221 17.3322 25.7746 17.3174L26.0693 17.3165C26.115 17.3164 26.159 17.3164 26.201 17.3164ZM26.201 19.0664C23.429 19.0664 20.1239 19.4071 20.1239 21.0287C20.1239 22.6137 23.2318 22.9843 25.9477 23.0053L26.201 23.0063C28.973 23.0063 32.277 22.6667 32.277 21.0486C32.277 19.4106 28.973 19.0664 26.201 19.0664ZM35.4802 16.843C38.3071 17.2665 38.9009 18.5941 38.9009 19.6336C38.9009 20.2683 38.6512 21.4268 36.9829 22.0626C36.8802 22.1011 36.7752 22.1198 36.6714 22.1198C36.3191 22.1198 35.9866 21.9051 35.8536 21.5563C35.6809 21.1048 35.9084 20.5985 36.3599 20.427C37.1509 20.126 37.1509 19.7935 37.1509 19.6336C37.1509 19.1226 36.5011 18.7656 35.2201 18.5743C34.7429 18.502 34.4127 18.0575 34.4839 17.578C34.5551 17.0996 34.9984 16.7811 35.4802 16.843ZM17.917 17.578C17.9882 18.0575 17.658 18.502 17.1808 18.5743C15.8998 18.7656 15.25 19.1226 15.25 19.6336C15.25 19.7935 15.25 20.1248 16.0422 20.427C16.4937 20.5985 16.7212 21.1048 16.5485 21.5563C16.4155 21.9051 16.083 22.1198 15.7307 22.1198C15.6268 22.1198 15.5218 22.1011 15.4192 22.0626C13.7497 21.4256 13.5 20.2671 13.5 19.6336C13.5 18.5953 14.0938 17.2665 16.9218 16.843C17.4037 16.7823 17.8447 17.0996 17.917 17.578ZM26.201 5.16675C29.141 5.16675 31.5315 7.55841 31.5315 10.4972C31.5315 13.4361 29.141 15.8277 26.201 15.8277H26.1695C24.7462 15.8231 23.4127 15.2654 22.414 14.2574C21.413 13.2506 20.8659 11.9136 20.8717 10.4937C20.8717 7.55841 23.2622 5.16675 26.201 5.16675ZM26.201 6.91675C24.227 6.91675 22.6217 8.52325 22.6217 10.4972C22.6182 11.4539 22.9845 12.3487 23.6554 13.0242C24.3262 13.6997 25.2199 14.0742 26.1719 14.0777L26.201 14.9527V14.0777C28.175 14.0777 29.7815 12.4724 29.7815 10.4972C29.7815 8.52325 28.175 6.91675 26.201 6.91675ZM33.4215 6.3095C35.4725 6.64666 36.9624 8.40133 36.9624 10.4815C36.9577 12.5757 35.3932 14.3723 33.3224 14.6628C33.2815 14.6687 33.2407 14.671 33.201 14.671C32.7717 14.671 32.3972 14.3548 32.3354 13.9173C32.2689 13.4378 32.6014 12.9957 33.0809 12.9292C34.2942 12.7588 35.21 11.7065 35.2124 10.4792C35.2124 9.26233 34.3397 8.23333 33.1369 8.03616C32.6609 7.958 32.3377 7.50766 32.4159 7.0305C32.4952 6.55333 32.942 6.23366 33.4215 6.3095ZM19.9862 7.0305C20.0644 7.50766 19.7412 7.958 19.2652 8.03616C18.0624 8.23333 17.1897 9.26233 17.1897 10.4815C17.192 11.7065 18.1079 12.76 19.32 12.9292C19.7995 12.9957 20.132 13.4378 20.0655 13.9173C20.0037 14.3548 19.6292 14.671 19.1999 14.671C19.1602 14.671 19.1194 14.6687 19.0785 14.6628C17.0077 14.3723 15.4444 12.5757 15.4397 10.4838C15.4397 8.40133 16.9295 6.64666 18.9805 6.3095C19.4717 6.2325 19.9069 6.55566 19.9862 7.0305Z" fill="#7C167D"/>
<circle cx="26.333" cy="10.5" r="4" fill="#7C167D"/>
<ellipse cx="26.333" cy="20.5002" rx="7" ry="3" fill="#7C167D"/>
<path d="M3.44651 41.31V43.76H6.73651V45.314H3.44651V47.904H7.15651V49.5H1.48651V39.714H7.15651V41.31H3.44651ZM13.2217 49.5L11.6257 47.092L10.2117 49.5H8.11168L10.6457 45.608L8.08368 41.744H10.2957L11.8777 44.138L13.3057 41.744H15.4057L12.8577 45.608L15.4337 49.5H13.2217ZM18.4582 42.864C18.7102 42.5093 19.0556 42.2153 19.4942 41.982C19.9422 41.7393 20.4509 41.618 21.0202 41.618C21.6829 41.618 22.2802 41.7813 22.8122 42.108C23.3536 42.4347 23.7782 42.9013 24.0862 43.508C24.4036 44.1053 24.5622 44.8007 24.5622 45.594C24.5622 46.3873 24.4036 47.092 24.0862 47.708C23.7782 48.3147 23.3536 48.786 22.8122 49.122C22.2802 49.458 21.6829 49.626 21.0202 49.626C20.4509 49.626 19.9469 49.5093 19.5082 49.276C19.0789 49.0427 18.7289 48.7487 18.4582 48.394V53.196H16.4982V41.744H18.4582V42.864ZM22.5602 45.594C22.5602 45.1273 22.4622 44.726 22.2662 44.39C22.0796 44.0447 21.8276 43.7833 21.5102 43.606C21.2022 43.4287 20.8662 43.34 20.5022 43.34C20.1476 43.34 19.8116 43.4333 19.4942 43.62C19.1862 43.7973 18.9342 44.0587 18.7382 44.404C18.5516 44.7493 18.4582 45.1553 18.4582 45.622C18.4582 46.0887 18.5516 46.4947 18.7382 46.84C18.9342 47.1853 19.1862 47.4513 19.4942 47.638C19.8116 47.8153 20.1476 47.904 20.5022 47.904C20.8662 47.904 21.2022 47.8107 21.5102 47.624C21.8276 47.4373 22.0796 47.1713 22.2662 46.826C22.4622 46.4807 22.5602 46.07 22.5602 45.594ZM27.9465 39.14V49.5H25.9865V39.14H27.9465ZM33.327 49.626C32.5803 49.626 31.9083 49.4627 31.311 49.136C30.7137 48.8 30.2423 48.3287 29.897 47.722C29.561 47.1153 29.393 46.4153 29.393 45.622C29.393 44.8287 29.5657 44.1287 29.911 43.522C30.2657 42.9153 30.7463 42.4487 31.353 42.122C31.9597 41.786 32.6363 41.618 33.383 41.618C34.1297 41.618 34.8063 41.786 35.413 42.122C36.0197 42.4487 36.4957 42.9153 36.841 43.522C37.1957 44.1287 37.373 44.8287 37.373 45.622C37.373 46.4153 37.191 47.1153 36.827 47.722C36.4723 48.3287 35.987 48.8 35.371 49.136C34.7643 49.4627 34.083 49.626 33.327 49.626ZM33.327 47.918C33.6817 47.918 34.013 47.834 34.321 47.666C34.6383 47.4887 34.8903 47.2273 35.077 46.882C35.2637 46.5367 35.357 46.1167 35.357 45.622C35.357 44.8847 35.161 44.32 34.769 43.928C34.3863 43.5267 33.915 43.326 33.355 43.326C32.795 43.326 32.3237 43.5267 31.941 43.928C31.5677 44.32 31.381 44.8847 31.381 45.622C31.381 46.3593 31.563 46.9287 31.927 47.33C32.3003 47.722 32.767 47.918 33.327 47.918ZM40.7707 42.948C41.0227 42.5373 41.3494 42.2153 41.7507 41.982C42.1614 41.7487 42.6281 41.632 43.1507 41.632V43.69H42.6327C42.0167 43.69 41.5501 43.8347 41.2327 44.124C40.9247 44.4133 40.7707 44.9173 40.7707 45.636V49.5H38.8107V41.744H40.7707V42.948ZM51.6809 45.454C51.6809 45.734 51.6622 45.986 51.6249 46.21H45.9549C46.0015 46.77 46.1975 47.2087 46.5429 47.526C46.8882 47.8433 47.3129 48.002 47.8169 48.002C48.5449 48.002 49.0629 47.6893 49.3709 47.064H51.4849C51.2609 47.8107 50.8315 48.4267 50.1969 48.912C49.5622 49.388 48.7829 49.626 47.8589 49.626C47.1122 49.626 46.4402 49.4627 45.8429 49.136C45.2549 48.8 44.7929 48.3287 44.4569 47.722C44.1302 47.1153 43.9669 46.4153 43.9669 45.622C43.9669 44.8193 44.1302 44.1147 44.4569 43.508C44.7835 42.9013 45.2409 42.4347 45.8289 42.108C46.4169 41.7813 47.0935 41.618 47.8589 41.618C48.5962 41.618 49.2542 41.7767 49.8329 42.094C50.4209 42.4113 50.8736 42.864 51.1909 43.452C51.5176 44.0307 51.6809 44.698 51.6809 45.454ZM49.6509 44.894C49.6415 44.39 49.4595 43.9887 49.1049 43.69C48.7502 43.382 48.3162 43.228 47.8029 43.228C47.3175 43.228 46.9069 43.3773 46.5709 43.676C46.2442 43.9653 46.0435 44.3713 45.9689 44.894H49.6509Z" fill="#7C167D"/>
</svg>
