<svg width="26" height="50" viewBox="0 0 26 50" fill="none" xmlns="http://www.w3.org/2000/svg">
<path d="M21.5409 1.99976H16.9584C16.5718 2.00025 16.2011 2.15407 15.9277 2.42747C15.6543 2.70088 15.5005 3.07155 15.5 3.4582V8.04162C15.5005 8.42827 15.6543 8.79894 15.9277 9.07234C16.2011 9.34575 16.5718 9.49956 16.9584 9.50006H21.5419C21.9285 9.49956 22.2992 9.34575 22.5726 9.07234C22.846 8.79894 22.9998 8.42827 23.0003 8.04162V3.4582C22.9998 3.07139 22.8459 2.70057 22.5723 2.42714C22.2986 2.15371 21.9277 2 21.5409 1.99976V1.99976Z" fill="#7C167D"/>
<path d="M16.9584 21.9991H21.5419C21.9285 21.9986 22.2992 21.8448 22.5726 21.5714C22.846 21.298 22.9998 20.9273 23.0003 20.5407V15.9582C22.9998 15.5714 22.8459 15.2006 22.5723 14.9271C22.2986 14.6537 21.9277 14.5 21.5409 14.4998H16.9584C16.5718 14.5003 16.2011 14.6541 15.9277 14.9275C15.6543 15.2009 15.5005 15.5715 15.5 15.9582V20.5416C15.5007 20.9281 15.6547 21.2985 15.9281 21.5717C16.2014 21.8449 16.572 21.9986 16.9584 21.9991V21.9991Z" fill="#7C167D"/>
<path d="M19.2502 1.99976H16.8963C16.5205 2.01625 16.1656 2.1771 15.9055 2.44879C15.6454 2.72048 15.5001 3.08207 15.5 3.4582V8.04162C15.5005 8.42827 15.6543 8.79894 15.9277 9.07234C16.2011 9.34575 16.5718 9.49956 16.9584 9.50006H19.2502V1.99976Z" fill="#7C167D"/>
<path d="M19.2502 14.4998H16.9584C16.5718 14.5003 16.2011 14.6541 15.9277 14.9275C15.6543 15.2009 15.5005 15.5715 15.5 15.9582V20.5416C15.5005 20.9283 15.6543 21.2989 15.9277 21.5723C16.2011 21.8457 16.5718 21.9996 16.9584 22.0001H19.2502V14.4998Z" fill="#7C167D"/>
<path d="M9.0419 1.99976H4.45942C4.07277 2.00025 3.7021 2.15407 3.4287 2.42747C3.15529 2.70088 3.00147 3.07155 3.00098 3.4582V8.04162C3.00172 8.4281 3.15565 8.79853 3.42903 9.07173C3.7024 9.34493 4.07293 9.49862 4.45942 9.49912H9.0419C9.42838 9.49862 9.79891 9.34493 10.0723 9.07173C10.3457 8.79853 10.4996 8.4281 10.5003 8.04162V3.4582C10.4998 3.07155 10.346 2.70088 10.0726 2.42747C9.79922 2.15407 9.42855 2.00025 9.0419 1.99976V1.99976Z" fill="#7C167D"/>
<path d="M4.45942 21.9991H9.0419C9.42855 21.9986 9.79922 21.8448 10.0726 21.5714C10.346 21.298 10.4998 20.9273 10.5003 20.5407V15.9582C10.4998 15.5715 10.346 15.2009 10.0726 14.9275C9.79922 14.6541 9.42855 14.5003 9.0419 14.4998H4.45942C4.07277 14.5003 3.7021 14.6541 3.4287 14.9275C3.15529 15.2009 3.00147 15.5715 3.00098 15.9582V20.5416C3.00172 20.9281 3.15565 21.2985 3.42903 21.5717C3.7024 21.8449 4.07293 21.9986 4.45942 21.9991V21.9991Z" fill="#7C167D"/>
<path d="M6.75113 1.99976H4.39728C4.02151 2.01625 3.66659 2.1771 3.40647 2.44879C3.14635 2.72048 3.0011 3.08207 3.00098 3.4582V8.04162C3.00172 8.4281 3.15565 8.79853 3.42903 9.07173C3.7024 9.34493 4.07293 9.49862 4.45942 9.49912H6.75113V1.99976Z" fill="#7C167D"/>
<path d="M6.75113 14.4998H4.45942C4.07277 14.5003 3.7021 14.6541 3.4287 14.9275C3.15529 15.2009 3.00147 15.5715 3.00098 15.9582V20.5416C3.00147 20.9283 3.15529 21.2989 3.4287 21.5723C3.7021 21.8457 4.07277 21.9996 4.45942 22.0001H6.75113V14.4998Z" fill="#7C167D"/>
<path d="M15.5009 5.12476H6.75116C6.58535 5.12476 6.42633 5.19062 6.30909 5.30787C6.19184 5.42511 6.12598 5.58413 6.12598 5.74994C6.12598 5.91575 6.19184 6.07476 6.30909 6.19201C6.42633 6.30925 6.58535 6.37512 6.75116 6.37512H15.5009V5.12476Z" fill="white"/>
<path d="M19.2497 17.6238H10.5V18.8741H19.2497C19.4155 18.8741 19.5746 18.8083 19.6918 18.691C19.809 18.5738 19.8749 18.4148 19.8749 18.249C19.8749 18.0832 19.809 17.9241 19.6918 17.8069C19.5746 17.6896 19.4155 17.6238 19.2497 17.6238V17.6238Z" fill="white"/>
<path d="M12.6525 5.33325H6.40253C6.23672 5.33325 6.0777 5.39912 5.96046 5.51636C5.84321 5.63361 5.77734 5.79263 5.77734 5.95843C5.77734 6.12424 5.84321 6.28326 5.96046 6.4005C6.0777 6.51775 6.23672 6.58362 6.40253 6.58362H12.6534L12.6525 5.33325Z" fill="white"/>
<path d="M13.0007 17.6238H10.5V18.8741H13.0007V17.6238Z" fill="white"/>
<path d="M6.12598 9.49927V18.249C6.12598 18.4148 6.19184 18.5738 6.30909 18.6911C6.42633 18.8083 6.58535 18.8742 6.75116 18.8742C6.91697 18.8742 7.07598 18.8083 7.19323 18.6911C7.31047 18.5738 7.37634 18.4148 7.37634 18.249V9.49927H6.12598Z" fill="white"/>
<path d="M19.806 14.7082V5.95843C19.806 5.87633 19.7899 5.79504 19.7584 5.71919C19.727 5.64334 19.681 5.57442 19.6229 5.51636C19.5649 5.45831 19.4959 5.41226 19.4201 5.38084C19.3442 5.34942 19.2629 5.33325 19.1808 5.33325C19.0987 5.33325 19.0175 5.34942 18.9416 5.38084C18.8657 5.41226 18.7968 5.45831 18.7388 5.51636C18.6807 5.57442 18.6347 5.64334 18.6033 5.71919C18.5718 5.79504 18.5557 5.87633 18.5557 5.95843V14.7082H19.806Z" fill="white"/>
<path d="M7.37634 11.999H6.12598V18.249C6.12598 18.4148 6.19184 18.5738 6.30909 18.691C6.42633 18.8083 6.58535 18.8741 6.75116 18.8741C6.91697 18.8741 7.07598 18.8083 7.19323 18.691C7.31047 18.5738 7.37634 18.4148 7.37634 18.249V11.999Z" fill="white"/>
<path d="M19.8754 11.999H18.625V14.4988H19.8754V11.999Z" fill="white"/>
<path d="M8.55489 37.252C8.55489 37.7747 8.42889 38.2647 8.17689 38.722C7.93422 39.1793 7.54689 39.548 7.01489 39.828C6.49222 40.108 5.82956 40.248 5.02689 40.248H3.38889V44H1.42889V34.228H5.02689C5.78289 34.228 6.42689 34.3587 6.95889 34.62C7.49089 34.8813 7.88756 35.2407 8.14889 35.698C8.41956 36.1553 8.55489 36.6733 8.55489 37.252ZM4.94289 38.666C5.48422 38.666 5.88556 38.5447 6.14689 38.302C6.40822 38.05 6.53889 37.7 6.53889 37.252C6.53889 36.3 6.00689 35.824 4.94289 35.824H3.38889V38.666H4.94289ZM10.3385 41.788C11.2345 41.0413 11.9485 40.4207 12.4805 39.926C13.0125 39.422 13.4558 38.8993 13.8105 38.358C14.1651 37.8167 14.3425 37.2847 14.3425 36.762C14.3425 36.286 14.2305 35.9127 14.0065 35.642C13.7825 35.3713 13.4371 35.236 12.9705 35.236C12.5038 35.236 12.1445 35.3947 11.8925 35.712C11.6405 36.02 11.5098 36.4447 11.5005 36.986H9.59647C9.6338 35.866 9.96514 35.0167 10.5905 34.438C11.2251 33.8593 12.0278 33.57 12.9985 33.57C14.0625 33.57 14.8791 33.8547 15.4485 34.424C16.0178 34.984 16.3025 35.726 16.3025 36.65C16.3025 37.378 16.1065 38.0733 15.7145 38.736C15.3225 39.3987 14.8745 39.9773 14.3705 40.472C13.8665 40.9573 13.2085 41.5453 12.3965 42.236H16.5265V43.86H9.61047V42.404L10.3385 41.788ZM25.1115 37.252C25.1115 37.7747 24.9855 38.2647 24.7335 38.722C24.4909 39.1793 24.1035 39.548 23.5715 39.828C23.0489 40.108 22.3862 40.248 21.5835 40.248H19.9455V44H17.9855V34.228H21.5835C22.3395 34.228 22.9835 34.3587 23.5155 34.62C24.0475 34.8813 24.4442 35.2407 24.7055 35.698C24.9762 36.1553 25.1115 36.6733 25.1115 37.252ZM21.4995 38.666C22.0409 38.666 22.4422 38.5447 22.7035 38.302C22.9649 38.05 23.0955 37.7 23.0955 37.252C23.0955 36.3 22.5635 35.824 21.4995 35.824H19.9455V38.666H21.4995Z" fill="#7C167D"/>
</svg>
