<svg width="90" height="54" viewBox="0 0 90 54" fill="none" xmlns="http://www.w3.org/2000/svg">
<path d="M44.5394 0.669069C44.928 0.443644 45.4065 0.443644 45.7951 0.669069L56.3407 6.78619C56.7296 7.01177 56.9703 7.42952 56.9703 7.88288V20.1171C56.9703 20.5705 56.7296 20.9882 56.3407 21.2138L45.7951 27.3309C45.4065 27.5564 44.928 27.5564 44.5394 27.3309L33.9939 21.2138C33.605 20.9882 33.3643 20.5705 33.3643 20.1171V7.88288C33.3643 7.42952 33.605 7.01178 33.9939 6.78619L44.5394 0.669069Z" stroke="#666666"/>
<path d="M37.5825 18C37.3487 18 37.1705 17.929 37.048 17.787C36.9255 17.645 36.8643 17.4352 36.8643 17.1577V11.8811C36.8643 11.597 36.9255 11.3808 37.048 11.2324C37.1705 11.0775 37.3319 11 37.5324 11C37.7106 11 37.8497 11.0387 37.95 11.1162C38.0502 11.1936 38.1615 11.3227 38.284 11.5035L40.9315 15.3375H40.6976V11.8326C40.6976 11.5615 40.7561 11.355 40.873 11.213C40.9955 11.071 41.1737 11 41.4075 11C41.6414 11 41.8168 11.071 41.9337 11.213C42.0562 11.355 42.1174 11.5615 42.1174 11.8326V17.1964C42.1174 17.4417 42.0617 17.6385 41.9504 17.787C41.839 17.929 41.6887 18 41.4994 18C41.3101 18 41.1598 17.9613 41.0484 17.8838C40.9426 17.7999 40.8285 17.6708 40.706 17.4965L38.0585 13.6528H38.2924V17.1577C38.2924 17.4352 38.2311 17.645 38.1086 17.787C37.9917 17.929 37.8163 18 37.5825 18Z" fill="#666666"/>
<path d="M44.3875 18C44.1425 18 43.9504 17.9225 43.8112 17.7676C43.6776 17.6063 43.6108 17.3771 43.6108 17.0802V12.0069C43.6108 11.71 43.6776 11.4841 43.8112 11.3292C43.9504 11.1678 44.1509 11.0871 44.4125 11.0871H47.1936C47.3941 11.0871 47.5444 11.1452 47.6446 11.2614C47.7448 11.3776 47.7949 11.5454 47.7949 11.7649C47.7949 11.9908 47.7448 12.1651 47.6446 12.2877C47.5444 12.4039 47.3941 12.462 47.1936 12.462H45.1475V13.8368H47.0099C47.2048 13.8368 47.3523 13.8949 47.4525 14.0111C47.5583 14.1272 47.6112 14.2951 47.6112 14.5145C47.6112 14.7404 47.5583 14.9115 47.4525 15.0277C47.3523 15.1438 47.2048 15.2019 47.0099 15.2019H45.1475V17.0802C45.1475 17.6934 44.8941 18 44.3875 18Z" fill="#666666"/>
<path d="M51.15 18C50.905 18 50.7157 17.9225 50.5821 17.7676C50.4485 17.6063 50.3816 17.3836 50.3816 17.0996V12.5394H49.0704C48.8644 12.5394 48.7058 12.4781 48.5944 12.3555C48.4886 12.2264 48.4357 12.0456 48.4357 11.8133C48.4357 11.5745 48.4886 11.3937 48.5944 11.2711C48.7058 11.1485 48.8644 11.0871 49.0704 11.0871H53.2295C53.4355 11.0871 53.5914 11.1485 53.6972 11.2711C53.8086 11.3937 53.8643 11.5745 53.8643 11.8133C53.8643 12.0456 53.8086 12.2264 53.6972 12.3555C53.5914 12.4781 53.4355 12.5394 53.2295 12.5394H51.9183V17.0996C51.9183 17.3836 51.8543 17.6063 51.7263 17.7676C51.5982 17.9225 51.4061 18 51.15 18Z" fill="#666666"/>
<path d="M12.2091 38.27V48H10.6131V41.336L7.64513 48H6.53913L3.55713 41.336V48H1.96113V38.27H3.68313L7.09913 45.9L10.5011 38.27H12.2091ZM13.7748 44.108C13.7748 43.3333 13.9335 42.6473 14.2508 42.05C14.5775 41.4527 15.0162 40.9907 15.5668 40.664C16.1268 40.328 16.7428 40.16 17.4148 40.16C18.0215 40.16 18.5488 40.2813 18.9968 40.524C19.4542 40.7573 19.8182 41.0513 20.0888 41.406V40.286H21.6988V48H20.0888V46.852C19.8182 47.216 19.4495 47.5193 18.9828 47.762C18.5162 48.0047 17.9842 48.126 17.3868 48.126C16.7242 48.126 16.1175 47.958 15.5668 47.622C15.0162 47.2767 14.5775 46.8007 14.2508 46.194C13.9335 45.578 13.7748 44.8827 13.7748 44.108ZM20.0888 44.136C20.0888 43.604 19.9768 43.142 19.7528 42.75C19.5382 42.358 19.2535 42.0593 18.8988 41.854C18.5442 41.6487 18.1615 41.546 17.7508 41.546C17.3402 41.546 16.9575 41.6487 16.6028 41.854C16.2482 42.05 15.9588 42.344 15.7348 42.736C15.5202 43.1187 15.4128 43.576 15.4128 44.108C15.4128 44.64 15.5202 45.1067 15.7348 45.508C15.9588 45.9093 16.2482 46.2173 16.6028 46.432C16.9668 46.6373 17.3495 46.74 17.7508 46.74C18.1615 46.74 18.5442 46.6373 18.8988 46.432C19.2535 46.2267 19.5382 45.928 19.7528 45.536C19.9768 45.1347 20.0888 44.668 20.0888 44.136ZM25.3911 41.406C25.6245 41.014 25.9325 40.7107 26.3151 40.496C26.7071 40.272 27.1691 40.16 27.7011 40.16V41.812H27.2951C26.6698 41.812 26.1938 41.9707 25.8671 42.288C25.5498 42.6053 25.3911 43.156 25.3911 43.94V48H23.7951V40.286H25.3911V41.406ZM32.2202 44.15L35.7762 48H33.6202L30.7642 44.682V48H29.1682V37.64H30.7642V43.66L33.5642 40.286H35.7762L32.2202 44.15ZM43.9901 43.954C43.9901 44.2433 43.9715 44.5047 43.9341 44.738H38.0401C38.0868 45.354 38.3155 45.8487 38.7261 46.222C39.1368 46.5953 39.6408 46.782 40.2381 46.782C41.0968 46.782 41.7035 46.4227 42.0581 45.704H43.7801C43.5468 46.4133 43.1221 46.9967 42.5061 47.454C41.8995 47.902 41.1435 48.126 40.2381 48.126C39.5008 48.126 38.8381 47.9627 38.2501 47.636C37.6715 47.3 37.2141 46.8333 36.8781 46.236C36.5515 45.6293 36.3881 44.9293 36.3881 44.136C36.3881 43.3427 36.5468 42.6473 36.8641 42.05C37.1908 41.4433 37.6435 40.9767 38.2221 40.65C38.8101 40.3233 39.4821 40.16 40.2381 40.16C40.9661 40.16 41.6148 40.3187 42.1841 40.636C42.7535 40.9533 43.1968 41.4013 43.5141 41.98C43.8315 42.5493 43.9901 43.2073 43.9901 43.954ZM42.3241 43.45C42.3148 42.862 42.1048 42.3907 41.6941 42.036C41.2835 41.6813 40.7748 41.504 40.1681 41.504C39.6175 41.504 39.1461 41.6813 38.7541 42.036C38.3621 42.3813 38.1288 42.8527 38.0541 43.45H42.3241ZM47.4227 41.588V45.858C47.4227 46.1473 47.4881 46.3573 47.6187 46.488C47.7587 46.6093 47.9921 46.67 48.3187 46.67H49.2987V48H48.0387C47.3201 48 46.7694 47.832 46.3867 47.496C46.0041 47.16 45.8127 46.614 45.8127 45.858V41.588H44.9027V40.286H45.8127V38.368H47.4227V40.286H49.2987V41.588H47.4227ZM52.3657 41.42C52.6364 41.0653 53.0051 40.7667 53.4717 40.524C53.9384 40.2813 54.4657 40.16 55.0537 40.16C55.7257 40.16 56.3371 40.328 56.8877 40.664C57.4477 40.9907 57.8864 41.4527 58.2037 42.05C58.5211 42.6473 58.6797 43.3333 58.6797 44.108C58.6797 44.8827 58.5211 45.578 58.2037 46.194C57.8864 46.8007 57.4477 47.2767 56.8877 47.622C56.3371 47.958 55.7257 48.126 55.0537 48.126C54.4657 48.126 53.9431 48.0093 53.4857 47.776C53.0284 47.5333 52.6551 47.2347 52.3657 46.88V51.668H50.7697V40.286H52.3657V41.42ZM57.0557 44.108C57.0557 43.576 56.9437 43.1187 56.7197 42.736C56.5051 42.344 56.2157 42.05 55.8517 41.854C55.4971 41.6487 55.1144 41.546 54.7037 41.546C54.3024 41.546 53.9197 41.6487 53.5557 41.854C53.2011 42.0593 52.9117 42.358 52.6877 42.75C52.4731 43.142 52.3657 43.604 52.3657 44.136C52.3657 44.668 52.4731 45.1347 52.6877 45.536C52.9117 45.928 53.2011 46.2267 53.5557 46.432C53.9197 46.6373 54.3024 46.74 54.7037 46.74C55.1144 46.74 55.4971 46.6373 55.8517 46.432C56.2157 46.2173 56.5051 45.9093 56.7197 45.508C56.9437 45.1067 57.0557 44.64 57.0557 44.108ZM61.854 37.64V48H60.258V37.64H61.854ZM63.4174 44.108C63.4174 43.3333 63.5761 42.6473 63.8934 42.05C64.2201 41.4527 64.6587 40.9907 65.2094 40.664C65.7694 40.328 66.3854 40.16 67.0574 40.16C67.6641 40.16 68.1914 40.2813 68.6394 40.524C69.0967 40.7573 69.4607 41.0513 69.7314 41.406V40.286H71.3414V48H69.7314V46.852C69.4607 47.216 69.0921 47.5193 68.6254 47.762C68.1587 48.0047 67.6267 48.126 67.0294 48.126C66.3667 48.126 65.7601 47.958 65.2094 47.622C64.6587 47.2767 64.2201 46.8007 63.8934 46.194C63.5761 45.578 63.4174 44.8827 63.4174 44.108ZM69.7314 44.136C69.7314 43.604 69.6194 43.142 69.3954 42.75C69.1807 42.358 68.8961 42.0593 68.5414 41.854C68.1867 41.6487 67.8041 41.546 67.3934 41.546C66.9827 41.546 66.6001 41.6487 66.2454 41.854C65.8907 42.05 65.6014 42.344 65.3774 42.736C65.1627 43.1187 65.0554 43.576 65.0554 44.108C65.0554 44.64 65.1627 45.1067 65.3774 45.508C65.6014 45.9093 65.8907 46.2173 66.2454 46.432C66.6094 46.6373 66.9921 46.74 67.3934 46.74C67.8041 46.74 68.1867 46.6373 68.5414 46.432C68.8961 46.2267 69.1807 45.928 69.3954 45.536C69.6194 45.1347 69.7314 44.668 69.7314 44.136ZM72.9057 44.136C72.9057 43.3427 73.0644 42.6473 73.3817 42.05C73.7084 41.4433 74.1564 40.9767 74.7257 40.65C75.295 40.3233 75.9484 40.16 76.6857 40.16C77.619 40.16 78.389 40.384 78.9957 40.832C79.6117 41.2707 80.027 41.9007 80.2417 42.722H78.5197C78.3797 42.3393 78.1557 42.0407 77.8477 41.826C77.5397 41.6113 77.1524 41.504 76.6857 41.504C76.0324 41.504 75.5097 41.7373 75.1177 42.204C74.735 42.6613 74.5437 43.3053 74.5437 44.136C74.5437 44.9667 74.735 45.6153 75.1177 46.082C75.5097 46.5487 76.0324 46.782 76.6857 46.782C77.6097 46.782 78.221 46.376 78.5197 45.564H80.2417C80.0177 46.348 79.5977 46.9733 78.9817 47.44C78.3657 47.8973 77.6004 48.126 76.6857 48.126C75.9484 48.126 75.295 47.9627 74.7257 47.636C74.1564 47.3 73.7084 46.8333 73.3817 46.236C73.0644 45.6293 72.9057 44.9293 72.9057 44.136ZM88.9022 43.954C88.9022 44.2433 88.8836 44.5047 88.8462 44.738H82.9522C82.9989 45.354 83.2276 45.8487 83.6382 46.222C84.0489 46.5953 84.5529 46.782 85.1502 46.782C86.0089 46.782 86.6156 46.4227 86.9702 45.704H88.6922C88.4589 46.4133 88.0342 46.9967 87.4182 47.454C86.8116 47.902 86.0556 48.126 85.1502 48.126C84.4129 48.126 83.7502 47.9627 83.1622 47.636C82.5836 47.3 82.1262 46.8333 81.7902 46.236C81.4636 45.6293 81.3002 44.9293 81.3002 44.136C81.3002 43.3427 81.4589 42.6473 81.7762 42.05C82.1029 41.4433 82.5556 40.9767 83.1342 40.65C83.7222 40.3233 84.3942 40.16 85.1502 40.16C85.8782 40.16 86.5269 40.3187 87.0962 40.636C87.6656 40.9533 88.1089 41.4013 88.4262 41.98C88.7436 42.5493 88.9022 43.2073 88.9022 43.954ZM87.2362 43.45C87.2269 42.862 87.0169 42.3907 86.6062 42.036C86.1956 41.6813 85.6869 41.504 85.0802 41.504C84.5296 41.504 84.0582 41.6813 83.6662 42.036C83.2742 42.3813 83.0409 42.8527 82.9662 43.45H87.2362Z" fill="#666666"/>
</svg>
