<svg width="48" height="49" viewBox="0 0 48 49" fill="none" xmlns="http://www.w3.org/2000/svg">
<path d="M48 24.5C48 11.2452 37.2548 0.5 24 0.5C10.7452 0.5 0 11.2452 0 24.5C0 37.7548 10.7452 48.5 24 48.5C37.2548 48.5 48 37.7548 48 24.5Z" fill="#7C167D"/>
<path opacity="0.2" d="M24 48.5C37.2548 48.5 48 37.7548 48 24.5C48 11.2452 37.2548 0.5 24 0.5C10.7452 0.5 0 11.2452 0 24.5C0 37.7548 10.7452 48.5 24 48.5Z" fill="url(#paint0_linear_1_187)"/>
<path opacity="0.5" d="M33.331 19.705C32.912 19.4547 32.397 19.4326 31.958 19.6444L30.476 20.3538C29.928 20.6156 29.588 21.145 29.588 21.7341V27.265C29.588 27.8541 29.928 28.3825 30.476 28.6462L31.957 29.3547C32.158 29.4529 32.373 29.5 32.588 29.5C32.846 29.5 33.102 29.4307 33.331 29.295C33.75 29.0457 34 28.6135 34 28.1399V20.861C34 20.3875 33.75 19.9553 33.331 19.705Z" fill="#D8DBFA"/>
<path d="M24 17.5H18C15.7909 17.5 14 19.2909 14 21.5V27.5C14 29.7091 15.7909 31.5 18 31.5H24C26.2091 31.5 28 29.7091 28 27.5V21.5C28 19.2909 26.2091 17.5 24 17.5Z" fill="white"/>
<defs>
<linearGradient id="paint0_linear_1_187" x1="24" y1="0.5" x2="24" y2="48.5" gradientUnits="userSpaceOnUse">
<stop stop-color="white"/>
<stop offset="1" stop-color="white" stop-opacity="0"/>
</linearGradient>
</defs>
</svg>
