<svg width="48" height="48" viewBox="0 0 48 48" fill="none" xmlns="http://www.w3.org/2000/svg">
<path d="M48 24C48 10.7452 37.2548 0 24 0C10.7452 0 0 10.7452 0 24C0 37.2548 10.7452 48 24 48C37.2548 48 48 37.2548 48 24Z" fill="#7C167D"/>
<path opacity="0.2" d="M24 48C37.2549 48 48 37.2548 48 24C48 10.7452 37.2549 0 24 0C10.7452 0 0 10.7452 0 24C0 37.2548 10.7452 48 24 48Z" fill="url(#paint0_linear_1_10)"/>
<path opacity="0.5" d="M29 21H19C16.2386 21 14 23.2386 14 26V29C14 31.7614 16.2386 34 19 34H29C31.7614 34 34 31.7614 34 29V26C34 23.2386 31.7614 21 29 21Z" fill="#D8DBFA"/>
<path d="M27.8799 17.5675L24.5299 14.2175C24.2399 13.9275 23.7599 13.9275 23.4699 14.2175L20.1199 17.5675C19.8299 17.8575 19.8299 18.3375 20.1199 18.6275C20.4099 18.9175 20.8899 18.9175 21.1799 18.6275L23.2499 16.5575V27.2475C23.2499 27.6575 23.5899 27.9975 23.9999 27.9975C24.4099 27.9975 24.7499 27.6575 24.7499 27.2475V16.5575L26.8199 18.6275C26.9699 18.7775 27.1599 18.8475 27.3499 18.8475C27.5399 18.8475 27.7299 18.7775 27.8799 18.6275C28.1799 18.3375 28.1799 17.8675 27.8799 17.5675Z" fill="white"/>
<defs>
<linearGradient id="paint0_linear_1_10" x1="24" y1="0" x2="24" y2="48" gradientUnits="userSpaceOnUse">
<stop stop-color="white"/>
<stop offset="1" stop-color="white" stop-opacity="0"/>
</linearGradient>
</defs>
</svg>
