<svg width="18" height="16" viewBox="0 0 18 16" fill="none" xmlns="http://www.w3.org/2000/svg">
<path d="M15.3492 2.64929C14.985 2.28493 14.5526 1.9959 14.0767 1.7987C13.6007 1.6015 13.0906 1.5 12.5755 1.5C12.0603 1.5 11.5502 1.6015 11.0743 1.7987C10.5983 1.9959 10.1659 2.28493 9.80175 2.64929L9.04593 3.40512L8.29011 2.64929C7.55447 1.91366 6.55673 1.50038 5.51638 1.50038C4.47604 1.50038 3.4783 1.91366 2.74266 2.64929C2.00703 3.38493 1.59375 4.38267 1.59375 5.42302C1.59375 6.46336 2.00703 7.4611 2.74266 8.19674L3.49848 8.95256L9.04593 14.5L14.5934 8.95256L15.3492 8.19674C15.7136 7.83255 16.0026 7.40014 16.1998 6.92422C16.397 6.44829 16.4985 5.93818 16.4985 5.42302C16.4985 4.90785 16.397 4.39774 16.1998 3.92182C16.0026 3.44589 15.7136 3.01348 15.3492 2.64929Z" fill="white" fill-opacity="0.5" stroke="white" stroke-width="1.6" stroke-linecap="round" stroke-linejoin="round"/>
</svg>
