<svg width="18" height="15" viewBox="0 0 18 15" fill="none" xmlns="http://www.w3.org/2000/svg">
<path d="M15.3033 2.14929C14.9391 1.78493 14.5067 1.4959 14.0308 1.2987C13.5548 1.1015 13.0447 1 12.5296 1C12.0144 1 11.5043 1.1015 11.0284 1.2987C10.5524 1.4959 10.12 1.78493 9.75585 2.14929L9.00003 2.90512L8.24421 2.14929C7.50857 1.41366 6.51083 1.00038 5.47049 1.00038C4.43014 1.00038 3.4324 1.41366 2.69676 2.14929C1.96113 2.88493 1.54785 3.88267 1.54785 4.92302C1.54785 5.96336 1.96113 6.9611 2.69676 7.69674L3.45259 8.45256L9.00003 14L14.5475 8.45256L15.3033 7.69674C15.6677 7.33255 15.9567 6.90014 16.1539 6.42422C16.3511 5.94829 16.4526 5.43818 16.4526 4.92302C16.4526 4.40785 16.3511 3.89774 16.1539 3.42182C15.9567 2.94589 15.6677 2.51348 15.3033 2.14929Z" fill="#FF0000" fill-opacity="0.5" stroke="#FF0000" stroke-opacity="0.2" stroke-width="1.6" stroke-linecap="round" stroke-linejoin="round"/>
</svg>
