<svg width="28" height="29" viewBox="0 0 28 29" fill="none" xmlns="http://www.w3.org/2000/svg">
<path d="M10.6576 24.7356V21.1683C10.6576 20.2576 11.4012 19.5194 12.3185 19.5194H15.6717C16.1122 19.5194 16.5347 19.6931 16.8462 20.0023C17.1576 20.3116 17.3326 20.731 17.3326 21.1683V24.7356C17.3299 25.1142 17.4794 25.4782 17.7481 25.7469C18.0168 26.0156 18.3824 26.1667 18.7638 26.1667H21.0515C22.1199 26.1695 23.1455 25.75 23.902 25.001C24.6585 24.2519 25.0837 23.2349 25.0837 22.1742V12.0114C25.0837 11.1546 24.7011 10.3419 24.039 9.79215L16.2567 3.62189C14.9029 2.54003 12.9633 2.57496 11.6499 3.70485L4.04517 9.79215C3.35186 10.3257 2.93747 11.1408 2.91699 12.0114V22.1638C2.91699 24.3745 4.72227 26.1667 6.94919 26.1667H9.18466C9.97676 26.1667 10.6205 25.5323 10.6262 24.746L10.6576 24.7356Z" fill="#7C167D"/>
</svg>
