<svg width="29" height="29" viewBox="0 0 29 29" fill="none" xmlns="http://www.w3.org/2000/svg">
<path fill-rule="evenodd" clip-rule="evenodd" d="M14.534 17.1495L14.6658 17.1496L14.9605 17.1506C17.2128 17.1654 22.36 17.3929 22.36 20.8817C22.36 24.3476 17.3922 24.5736 14.9956 24.5884L14.1076 24.5883C11.8551 24.5735 6.70688 24.3463 6.70688 20.8619C6.70688 17.3917 11.8551 17.1653 14.1076 17.1506L14.4023 17.1496C14.448 17.1495 14.492 17.1495 14.534 17.1495ZM14.534 18.8995C11.762 18.8995 8.45688 19.2402 8.45688 20.8619C8.45688 22.4468 11.5648 22.8174 14.2807 22.8384L14.534 22.8394C17.306 22.8394 20.61 22.4999 20.61 20.8817C20.61 19.2437 17.306 18.8995 14.534 18.8995ZM23.8132 16.6761C26.6401 17.0996 27.2339 18.4273 27.2339 19.4668C27.2339 20.1014 26.9842 21.2599 25.3159 21.8958C25.2132 21.9343 25.1082 21.9529 25.0044 21.9529C24.6521 21.9529 24.3196 21.7383 24.1866 21.3894C24.0139 20.9379 24.2414 20.4316 24.6929 20.2601C25.4839 19.9591 25.4839 19.6266 25.4839 19.4668C25.4839 18.9558 24.8341 18.5988 23.5531 18.4074C23.0759 18.3351 22.7457 17.8906 22.8169 17.4111C22.8881 16.9328 23.3314 16.6143 23.8132 16.6761ZM6.25001 17.4111C6.32118 17.8906 5.99101 18.3351 5.51384 18.4074C4.23284 18.5988 3.58301 18.9558 3.58301 19.4668C3.58301 19.6266 3.58301 19.9579 4.37517 20.2601C4.82668 20.4316 5.05418 20.9379 4.88151 21.3894C4.74851 21.7383 4.41601 21.9529 4.06367 21.9529C3.95984 21.9529 3.85484 21.9343 3.75217 21.8958C2.08267 21.2588 1.83301 20.1003 1.83301 19.4668C1.83301 18.4284 2.42684 17.0996 5.25484 16.6761C5.73668 16.6154 6.17768 16.9328 6.25001 17.4111ZM14.534 4.99988C17.474 4.99988 19.8645 7.39154 19.8645 10.3304C19.8645 13.2692 17.474 15.6609 14.534 15.6609H14.5025C13.0792 15.6562 11.7457 15.0985 10.747 14.0905C9.74604 13.0837 9.19888 11.7467 9.20466 10.3269C9.20466 7.39154 11.5952 4.99988 14.534 4.99988ZM14.534 6.74988C12.56 6.74988 10.9547 8.35638 10.9547 10.3304C10.9512 11.287 11.3175 12.1819 11.9884 12.8574C12.6592 13.5329 13.5529 13.9074 14.5049 13.9109L14.534 14.7859V13.9109C16.508 13.9109 18.1145 12.3055 18.1145 10.3304C18.1145 8.35638 16.508 6.74988 14.534 6.74988ZM21.7545 6.14263C23.8055 6.47979 25.2954 8.23446 25.2954 10.3146C25.2907 12.4088 23.7262 14.2055 21.6554 14.496C21.6145 14.5018 21.5737 14.5041 21.534 14.5041C21.1047 14.5041 20.7302 14.188 20.6684 13.7505C20.6019 13.271 20.9344 12.8288 21.4139 12.7623C22.6272 12.592 23.543 11.5396 23.5454 10.3123C23.5454 9.09546 22.6727 8.06646 21.4699 7.86929C20.9939 7.79113 20.6707 7.34079 20.7489 6.86363C20.8282 6.38646 21.275 6.06679 21.7545 6.14263ZM8.31921 6.86363C8.39738 7.34079 8.07421 7.79113 7.59821 7.86929C6.39538 8.06646 5.52271 9.09546 5.52271 10.3146C5.52504 11.5396 6.44088 12.5931 7.65304 12.7623C8.13254 12.8288 8.46504 13.271 8.39854 13.7505C8.33671 14.188 7.96221 14.5041 7.53288 14.5041C7.49321 14.5041 7.45238 14.5018 7.41154 14.496C5.34071 14.2055 3.77737 12.4088 3.77271 10.317C3.77271 8.23446 5.26254 6.47979 7.31354 6.14263C7.80471 6.06563 8.23988 6.38879 8.31921 6.86363Z" fill="#666666"/>
</svg>
