<svg width="94" height="24" viewBox="0 0 94 24" fill="none" xmlns="http://www.w3.org/2000/svg">
<path d="M2.66667 2.6665C1.19583 2.6665 0 3.86234 0 5.33317V18.6665C0 20.1373 1.19583 21.3332 2.66667 21.3332H21.3333C22.8042 21.3332 24 20.1373 24 18.6665V5.33317C24 3.86234 22.8042 2.6665 21.3333 2.6665H2.66667ZM6 13.3332H8.66667C10.5083 13.3332 12 14.8248 12 16.6665C12 17.0332 11.7 17.3332 11.3333 17.3332H3.33333C2.96667 17.3332 2.66667 17.0332 2.66667 16.6665C2.66667 14.8248 4.15833 13.3332 6 13.3332ZM10 9.33317C10 10.804 8.80417 11.9998 7.33333 11.9998C5.8625 11.9998 4.66667 10.804 4.66667 9.33317C4.66667 7.86234 5.8625 6.6665 7.33333 6.6665C8.80417 6.6665 10 7.86234 10 9.33317ZM15.3333 7.99984H20.6667C21.0333 7.99984 21.3333 8.29984 21.3333 8.6665C21.3333 9.03317 21.0333 9.33317 20.6667 9.33317H15.3333C14.9667 9.33317 14.6667 9.03317 14.6667 8.6665C14.6667 8.29984 14.9667 7.99984 15.3333 7.99984ZM15.3333 10.6665H20.6667C21.0333 10.6665 21.3333 10.9665 21.3333 11.3332C21.3333 11.6998 21.0333 11.9998 20.6667 11.9998H15.3333C14.9667 11.9998 14.6667 11.6998 14.6667 11.3332C14.6667 10.9665 14.9667 10.6665 15.3333 10.6665ZM15.3333 13.3332H20.6667C21.0333 13.3332 21.3333 13.6332 21.3333 13.9998C21.3333 14.3665 21.0333 14.6665 20.6667 14.6665H15.3333C14.9667 14.6665 14.6667 14.3665 14.6667 13.9998C14.6667 13.6332 14.9667 13.3332 15.3333 13.3332Z" fill="#666666"/>
<path d="M36.688 6.848V18H35.232V6.848H36.688ZM42.6415 6.848C43.8575 6.848 44.9082 7.07733 45.7935 7.536C46.6895 7.984 47.3722 8.62933 47.8415 9.472C48.3215 10.3147 48.5615 11.3067 48.5615 12.448C48.5615 13.5893 48.3215 14.5813 47.8415 15.424C47.3722 16.256 46.6895 16.896 45.7935 17.344C44.9082 17.7813 43.8575 18 42.6415 18H39.1695V6.848H42.6415ZM42.6415 16.8C44.0815 16.8 45.1802 16.4213 45.9375 15.664C46.6948 14.896 47.0735 13.824 47.0735 12.448C47.0735 11.0613 46.6895 9.97867 45.9215 9.2C45.1642 8.42133 44.0708 8.032 42.6415 8.032H40.6255V16.8H42.6415ZM54.2036 12.416C54.2036 11.328 54.449 10.352 54.9396 9.488C55.4303 8.61333 56.097 7.93067 56.9396 7.44C57.793 6.94933 58.737 6.704 59.7716 6.704C60.9876 6.704 62.049 6.99733 62.9556 7.584C63.8623 8.17067 64.5236 9.00267 64.9396 10.08H63.1956C62.8863 9.408 62.4383 8.89067 61.8516 8.528C61.2756 8.16533 60.5823 7.984 59.7716 7.984C58.993 7.984 58.2943 8.16533 57.6756 8.528C57.057 8.89067 56.5716 9.408 56.2196 10.08C55.8676 10.7413 55.6916 11.52 55.6916 12.416C55.6916 13.3013 55.8676 14.08 56.2196 14.752C56.5716 15.4133 57.057 15.9253 57.6756 16.288C58.2943 16.6507 58.993 16.832 59.7716 16.832C60.5823 16.832 61.2756 16.656 61.8516 16.304C62.4383 15.9413 62.8863 15.424 63.1956 14.752H64.9396C64.5236 15.8187 63.8623 16.6453 62.9556 17.232C62.049 17.808 60.9876 18.096 59.7716 18.096C58.737 18.096 57.793 17.856 56.9396 17.376C56.097 16.8853 55.4303 16.208 54.9396 15.344C54.449 14.48 54.2036 13.504 54.2036 12.416ZM66.563 13.584C66.563 12.688 66.7443 11.904 67.107 11.232C67.4697 10.5493 67.9657 10.0213 68.595 9.648C69.235 9.27467 69.9443 9.088 70.723 9.088C71.491 9.088 72.1577 9.25333 72.723 9.584C73.2883 9.91467 73.7097 10.3307 73.987 10.832V9.232H75.459V18H73.987V16.368C73.699 16.88 73.267 17.3067 72.691 17.648C72.1257 17.9787 71.4643 18.144 70.707 18.144C69.9283 18.144 69.2243 17.952 68.595 17.568C67.9657 17.184 67.4697 16.6453 67.107 15.952C66.7443 15.2587 66.563 14.4693 66.563 13.584ZM73.987 13.6C73.987 12.9387 73.8537 12.3627 73.587 11.872C73.3203 11.3813 72.9577 11.008 72.499 10.752C72.051 10.4853 71.555 10.352 71.011 10.352C70.467 10.352 69.971 10.48 69.523 10.736C69.075 10.992 68.7177 11.3653 68.451 11.856C68.1843 12.3467 68.051 12.9227 68.051 13.584C68.051 14.256 68.1843 14.8427 68.451 15.344C68.7177 15.8347 69.075 16.2133 69.523 16.48C69.971 16.736 70.467 16.864 71.011 16.864C71.555 16.864 72.051 16.736 72.499 16.48C72.9577 16.2133 73.3203 15.8347 73.587 15.344C73.8537 14.8427 73.987 14.2613 73.987 13.6ZM79.3755 10.656C79.6315 10.1547 79.9942 9.76533 80.4635 9.488C80.9435 9.21067 81.5248 9.072 82.2075 9.072V10.576H81.8235C80.1915 10.576 79.3755 11.4613 79.3755 13.232V18H77.9195V9.232H79.3755V10.656ZM83.3443 13.584C83.3443 12.688 83.5256 11.904 83.8883 11.232C84.2509 10.5493 84.7469 10.0213 85.3763 9.648C86.0163 9.27467 86.7309 9.088 87.5203 9.088C88.2029 9.088 88.8376 9.248 89.4243 9.568C90.0109 9.87733 90.4589 10.288 90.7683 10.8V6.16H92.2403V18H90.7683V16.352C90.4803 16.8747 90.0536 17.3067 89.4883 17.648C88.9229 17.9787 88.2616 18.144 87.5043 18.144C86.7256 18.144 86.0163 17.952 85.3763 17.568C84.7469 17.184 84.2509 16.6453 83.8883 15.952C83.5256 15.2587 83.3443 14.4693 83.3443 13.584ZM90.7683 13.6C90.7683 12.9387 90.6349 12.3627 90.3683 11.872C90.1016 11.3813 89.7389 11.008 89.2803 10.752C88.8323 10.4853 88.3363 10.352 87.7923 10.352C87.2483 10.352 86.7523 10.48 86.3043 10.736C85.8563 10.992 85.4989 11.3653 85.2323 11.856C84.9656 12.3467 84.8323 12.9227 84.8323 13.584C84.8323 14.256 84.9656 14.8427 85.2323 15.344C85.4989 15.8347 85.8563 16.2133 86.3043 16.48C86.7523 16.736 87.2483 16.864 87.7923 16.864C88.3363 16.864 88.8323 16.736 89.2803 16.48C89.7389 16.2133 90.1016 15.8347 90.3683 15.344C90.6349 14.8427 90.7683 14.2613 90.7683 13.6Z" fill="#989898"/>
</svg>
