<svg width="21" height="21" viewBox="0 0 21 21" fill="none" xmlns="http://www.w3.org/2000/svg">
<path d="M14.9041 0.5C18.4274 0.5 20.7754 2.92887 20.7754 6.41408V14.5849C20.7754 18.0703 18.4272 20.5 14.9041 20.5H5.93123C2.40975 20.5 0.0703125 18.0722 0.0703125 14.5849V6.41408C0.0703125 2.93059 2.41658 0.5 5.93123 0.5H14.9041ZM14.9041 2.00383H5.93123C3.30099 2.00383 1.62631 3.7387 1.62631 6.41408V14.5849C1.62631 17.2647 3.29482 18.9962 5.93123 18.9962H14.9041C17.5433 18.9962 19.2194 17.2618 19.2194 14.5849V6.41408C19.2194 3.73744 17.5435 2.00383 14.9041 2.00383ZM15.6415 10.6835L15.7764 10.8086L17.9299 12.9561C18.2289 13.2543 18.2212 13.7303 17.9127 14.0193C17.6322 14.2821 17.1996 14.2998 16.8986 14.0768L16.8126 14.0027L14.6592 11.8553C14.284 11.4814 13.6741 11.4779 13.2934 11.8269L13.2098 11.9137L10.898 14.6312C10.0802 15.5939 8.60888 15.6971 7.65693 14.8903L7.53044 14.7747L6.60781 13.8648C6.36546 13.6217 5.97897 13.5987 5.70983 13.7949L5.62482 13.8684L4.03874 15.4855C3.74314 15.7869 3.25072 15.7996 2.93888 15.5139C2.65539 15.2542 2.61874 14.8372 2.8365 14.5372L2.90947 14.4509L4.49522 12.8341C5.33003 11.9819 6.70478 11.9365 7.59406 12.6967L7.72368 12.8167L8.64165 13.722C8.91 13.9865 9.34008 13.9933 9.61739 13.7553L9.69568 13.6766L12.0077 10.9589C12.9263 9.87823 14.5804 9.76886 15.6415 10.6835ZM6.87469 5.14124C8.3085 5.14124 9.47216 6.26589 9.47216 7.65164C9.47216 9.03738 8.3085 10.162 6.87469 10.162C5.44093 10.162 4.27825 9.03744 4.27825 7.65164C4.27825 6.26583 5.44093 5.14124 6.87469 5.14124ZM6.87469 6.64507C6.30056 6.64507 5.83424 7.09611 5.83424 7.65164C5.83424 8.20716 6.30056 8.6582 6.87469 8.6582C7.44915 8.6582 7.91617 8.20684 7.91617 7.65164C7.91617 7.09643 7.44915 6.64507 6.87469 6.64507Z" fill="white"/>
</svg>
