<svg width="38" height="12" viewBox="0 0 38 12" fill="none" xmlns="http://www.w3.org/2000/svg">
<path d="M1.516 0.136V8.5H0.424V0.136H1.516ZM11.2851 1.804C11.7971 1.804 12.2531 1.912 12.6531 2.128C13.0531 2.336 13.3691 2.652 13.6011 3.076C13.8331 3.5 13.9491 4.016 13.9491 4.624V8.5H12.8691V4.78C12.8691 4.124 12.7051 3.624 12.3771 3.28C12.0571 2.928 11.6211 2.752 11.0691 2.752C10.5011 2.752 10.0491 2.936 9.71313 3.304C9.37713 3.664 9.20913 4.188 9.20913 4.876V8.5H8.12913V4.78C8.12913 4.124 7.96513 3.624 7.63713 3.28C7.31713 2.928 6.88113 2.752 6.32913 2.752C5.76113 2.752 5.30913 2.936 4.97313 3.304C4.63713 3.664 4.46913 4.188 4.46913 4.876V8.5H3.37713V1.924H4.46913V2.872C4.68513 2.528 4.97313 2.264 5.33313 2.08C5.70113 1.896 6.10513 1.804 6.54513 1.804C7.09713 1.804 7.58513 1.928 8.00913 2.176C8.43313 2.424 8.74913 2.788 8.95713 3.268C9.14113 2.804 9.44513 2.444 9.86913 2.188C10.2931 1.932 10.7651 1.804 11.2851 1.804ZM15.3324 5.188C15.3324 4.516 15.4684 3.928 15.7404 3.424C16.0124 2.912 16.3844 2.516 16.8564 2.236C17.3364 1.956 17.8684 1.816 18.4524 1.816C19.0284 1.816 19.5284 1.94 19.9524 2.188C20.3764 2.436 20.6924 2.748 20.9004 3.124V1.924H22.0044V8.5H20.9004V7.276C20.6844 7.66 20.3604 7.98 19.9284 8.236C19.5044 8.484 19.0084 8.608 18.4404 8.608C17.8564 8.608 17.3284 8.464 16.8564 8.176C16.3844 7.888 16.0124 7.484 15.7404 6.964C15.4684 6.444 15.3324 5.852 15.3324 5.188ZM20.9004 5.2C20.9004 4.704 20.8004 4.272 20.6004 3.904C20.4004 3.536 20.1284 3.256 19.7844 3.064C19.4484 2.864 19.0764 2.764 18.6684 2.764C18.2604 2.764 17.8884 2.86 17.5524 3.052C17.2164 3.244 16.9484 3.524 16.7484 3.892C16.5484 4.26 16.4484 4.692 16.4484 5.188C16.4484 5.692 16.5484 6.132 16.7484 6.508C16.9484 6.876 17.2164 7.16 17.5524 7.36C17.8884 7.552 18.2604 7.648 18.6684 7.648C19.0764 7.648 19.4484 7.552 19.7844 7.36C20.1284 7.16 20.4004 6.876 20.6004 6.508C20.8004 6.132 20.9004 5.696 20.9004 5.2ZM26.5618 1.816C27.1298 1.816 27.6258 1.94 28.0498 2.188C28.4818 2.436 28.8018 2.748 29.0098 3.124V1.924H30.1138V8.644C30.1138 9.244 29.9858 9.776 29.7298 10.24C29.4738 10.712 29.1058 11.08 28.6258 11.344C28.1538 11.608 27.6018 11.74 26.9698 11.74C26.1058 11.74 25.3858 11.536 24.8098 11.128C24.2338 10.72 23.8938 10.164 23.7898 9.46H24.8698C24.9898 9.86 25.2378 10.18 25.6138 10.42C25.9898 10.668 26.4418 10.792 26.9698 10.792C27.5698 10.792 28.0578 10.604 28.4338 10.228C28.8178 9.852 29.0098 9.324 29.0098 8.644V7.264C28.7938 7.648 28.4738 7.968 28.0498 8.224C27.6258 8.48 27.1298 8.608 26.5618 8.608C25.9778 8.608 25.4458 8.464 24.9658 8.176C24.4938 7.888 24.1218 7.484 23.8498 6.964C23.5778 6.444 23.4418 5.852 23.4418 5.188C23.4418 4.516 23.5778 3.928 23.8498 3.424C24.1218 2.912 24.4938 2.516 24.9658 2.236C25.4458 1.956 25.9778 1.816 26.5618 1.816ZM29.0098 5.2C29.0098 4.704 28.9098 4.272 28.7098 3.904C28.5098 3.536 28.2378 3.256 27.8938 3.064C27.5578 2.864 27.1858 2.764 26.7778 2.764C26.3698 2.764 25.9978 2.86 25.6618 3.052C25.3258 3.244 25.0578 3.524 24.8578 3.892C24.6578 4.26 24.5578 4.692 24.5578 5.188C24.5578 5.692 24.6578 6.132 24.8578 6.508C25.0578 6.876 25.3258 7.16 25.6618 7.36C25.9978 7.552 26.3698 7.648 26.7778 7.648C27.1858 7.648 27.5578 7.552 27.8938 7.36C28.2378 7.16 28.5098 6.876 28.7098 6.508C28.9098 6.132 29.0098 5.696 29.0098 5.2ZM37.9592 4.96C37.9592 5.168 37.9472 5.388 37.9232 5.62H32.6672C32.7072 6.268 32.9272 6.776 33.3272 7.144C33.7352 7.504 34.2272 7.684 34.8032 7.684C35.2752 7.684 35.6672 7.576 35.9792 7.36C36.2992 7.136 36.5232 6.84 36.6512 6.472H37.8272C37.6512 7.104 37.2992 7.62 36.7712 8.02C36.2432 8.412 35.5872 8.608 34.8032 8.608C34.1792 8.608 33.6192 8.468 33.1232 8.188C32.6352 7.908 32.2512 7.512 31.9712 7C31.6912 6.48 31.5512 5.88 31.5512 5.2C31.5512 4.52 31.6872 3.924 31.9592 3.412C32.2312 2.9 32.6112 2.508 33.0992 2.236C33.5952 1.956 34.1632 1.816 34.8032 1.816C35.4272 1.816 35.9792 1.952 36.4592 2.224C36.9392 2.496 37.3072 2.872 37.5632 3.352C37.8272 3.824 37.9592 4.36 37.9592 4.96ZM36.8312 4.732C36.8312 4.316 36.7392 3.96 36.5552 3.664C36.3712 3.36 36.1192 3.132 35.7992 2.98C35.4872 2.82 35.1392 2.74 34.7552 2.74C34.2032 2.74 33.7312 2.916 33.3392 3.268C32.9552 3.62 32.7352 4.108 32.6792 4.732H36.8312Z" fill="#6374A0"/>
</svg>
