<svg width="20" height="18" viewBox="0 0 24 21" fill="none" xmlns="http://www.w3.org/2000/svg">
<path d="M23.5605 11.5595C24.1465 10.9735 24.1465 10.0219 23.5605 9.43591L17.5602 3.43562C16.9743 2.84965 16.0227 2.84965 15.4367 3.43562C14.8507 4.02158 14.8507 4.97319 15.4367 5.55916L18.8775 8.99995H9.00044C8.17071 8.99995 7.50037 9.6703 7.50037 10.5C7.50037 11.3298 8.17071 12.0001 9.00044 12.0001H18.8775L15.4367 15.4409C14.8507 16.0269 14.8507 16.9785 15.4367 17.5644C16.0227 18.1504 16.9743 18.1504 17.5602 17.5644L23.5605 11.5641V11.5595ZM7.50037 2.99966C8.33009 2.99966 9.00044 2.32931 9.00044 1.49959C9.00044 0.669857 8.33009 -0.000488281 7.50037 -0.000488281H4.50022C2.01572 -0.000488281 0 2.01524 0 4.49973V16.5003C0 18.9848 2.01572 21.0005 4.50022 21.0005H7.50037C8.33009 21.0005 9.00044 20.3302 9.00044 19.5005C9.00044 18.6707 8.33009 18.0004 7.50037 18.0004H4.50022C3.67049 18.0004 3.00015 17.33 3.00015 16.5003V4.49973C3.00015 3.67 3.67049 2.99966 4.50022 2.99966H7.50037Z" fill="#6374A0"/>
</svg>
