<svg width="24" height="24" viewBox="0 0 24 24" fill="none" xmlns="http://www.w3.org/2000/svg">
<path d="M14.3543 2.8502C15.4207 3.06348 16.1139 4.10118 15.9006 5.16758L15.8062 5.63516C15.5889 6.73028 15.1869 7.77207 14.625 8.71954H20.5312C21.6182 8.71954 22.5 9.60137 22.5 10.6883C22.5 11.726 21.7002 12.575 20.683 12.6529C20.9988 13.0016 21.1875 13.465 21.1875 13.9695C21.1875 14.9293 20.4984 15.7291 19.592 15.9014C19.7725 16.1967 19.875 16.5494 19.875 16.9227C19.875 17.7963 19.3049 18.5387 18.5174 18.793C18.5461 18.9283 18.5625 19.0719 18.5625 19.2195C18.5625 20.3064 17.6807 21.1883 16.5938 21.1883H13.5791C12.7998 21.1883 12.041 20.9586 11.393 20.5279L9.81387 19.4738C8.71875 18.7438 8.0625 17.5133 8.0625 16.1967V14.6258V12.657V11.6357C8.0625 10.4381 8.60801 9.31016 9.53906 8.55958L9.84258 8.31758C10.9295 7.44805 11.6719 6.22579 11.9426 4.86407L12.0369 4.39649C12.2502 3.33008 13.2879 2.63692 14.3543 2.8502ZM2.8125 9.37579H5.4375C6.16348 9.37579 6.75 9.96231 6.75 10.6883V19.8758C6.75 20.6018 6.16348 21.1883 5.4375 21.1883H2.8125C2.08652 21.1883 1.5 20.6018 1.5 19.8758V10.6883C1.5 9.96231 2.08652 9.37579 2.8125 9.37579Z" fill="#7C167D"/>
</svg>
