<svg width="106" height="25" viewBox="0 0 106 25" fill="none" xmlns="http://www.w3.org/2000/svg">
<path d="M49.0238 24.9967C48.7458 24.9866 48.4691 24.9521 48.1971 24.8941C47.5498 24.7548 46.9431 24.4708 46.4232 24.0638C45.9033 23.6569 45.4839 23.138 45.197 22.5461C44.981 22.0993 44.8459 21.6186 44.7977 21.1255C44.7769 20.966 44.7696 18.361 44.7696 12.9167V4.94189H34.7787V0.570568H44.9249C51.7985 0.570568 55.1329 0.579964 55.2732 0.59609C56.0966 0.700179 56.874 1.03125 57.5165 1.55235C58.1591 2.07345 58.641 2.76349 58.9071 3.54306C59.0431 3.96137 59.1206 4.39574 59.1376 4.83491V4.94623H49.1467V25L49.0238 24.9967ZM42.0235 24.8985C40.2373 24.6803 38.5267 24.0535 37.0267 23.0674C36.2659 22.567 35.569 21.9775 34.9514 21.3107C34.7893 21.14 33.7136 19.8608 32.5554 18.4745C31.3972 17.0883 30.4386 15.9549 30.4268 15.9549C30.4151 15.9549 29.4447 17.376 28.268 19.1115C27.0913 20.8469 26.0548 22.3632 25.9684 22.4739C25.6859 22.8044 25.3756 23.1103 25.0408 23.3889C24.3137 23.9465 23.4738 24.3421 22.5785 24.5487C21.8595 24.7039 22.6677 24.6924 12.794 24.7041C6.45609 24.7096 3.7521 24.704 3.51934 24.6823C3.02377 24.6559 2.53947 24.5261 2.09811 24.3011C1.57281 24.0414 1.11558 23.6637 0.762536 23.1988C0.409493 22.7339 0.17026 22.1942 0.0637678 21.6219C0.0121672 21.36 0.00767523 21.3156 0.00262734 17.4678C-0.00410319 14.8777 0.00264103 13.4581 0.0166629 13.2278C0.0445596 12.7139 0.184032 12.2118 0.425544 11.7563C0.687876 11.2515 1.0622 10.8123 1.52032 10.4715C1.97844 10.1306 2.50849 9.89699 3.07068 9.78835L3.31298 9.73296L11.9769 9.72536L20.6429 9.7183L20.6216 9.98764C20.5744 10.8592 20.2768 11.6989 19.764 12.4084C19.4594 12.7949 19.1092 13.1439 18.7208 13.4478C18.1162 13.8724 17.4221 14.1552 16.691 14.2742C16.484 14.3109 15.9344 14.3153 10.541 14.3231L4.61418 14.3318V20.4316L12.3408 20.4245C19.5716 20.4145 20.0742 20.4129 20.2694 20.3756C20.718 20.2841 21.1452 20.1095 21.5285 19.8608C21.9632 19.5773 21.9846 19.5532 24.9538 15.7893C26.7442 13.5195 27.7279 12.2525 27.7189 12.2347C27.6673 12.1551 22.1208 5.29773 22.0221 5.19819C21.7671 4.94652 21.4532 4.76154 21.1084 4.65952C20.9699 4.61726 20.4578 4.61515 10.5774 4.60847L0.189404 4.60413V4.49281C0.201239 4.22297 0.235805 3.95437 0.292651 3.69022C0.501081 2.71927 1.0164 1.83945 1.76372 1.17875C2.51104 0.518054 3.45139 0.111221 4.44815 0.016686C4.56033 0.00556496 8.50779 -0.00182882 13.2203 0.000395399C21.2543 0.00595593 21.8017 0.00817146 22.03 0.0470952C23.2353 0.231333 24.3356 0.833058 25.1356 1.74567C25.3397 1.98032 43.4684 24.972 43.4566 24.9837C43.4372 24.9872 43.4174 24.9882 43.3977 24.987C43.1627 24.9914 42.327 24.9374 42.0235 24.8985ZM91.6611 24.9718V13.5167L91.3274 13.0899C90.9842 12.6579 81.6983 0.585446 81.6607 0.529841C81.6467 0.507043 82.2009 0.499975 84.4001 0.499975H87.1579L90.4985 4.84143L93.8391 9.18614L94.0315 8.93201C94.1397 8.79077 95.6428 6.83706 97.372 4.58838L100.517 0.499975H103.266C104.177 0.463563 105.09 0.475177 106 0.534185C105.988 0.568104 96.9137 12.3537 96.3355 13.0899L96.0394 13.4635L96.0343 17.3526L96.0276 21.2369L95.9715 21.5002C95.8584 22.0598 95.6344 22.5914 95.3127 23.0647C94.9909 23.538 94.5778 23.9437 94.097 24.2577C93.4137 24.6989 92.6215 24.9462 91.8064 24.9723L91.6611 24.9718ZM66.4335 24.6807C64.6666 24.4005 63.0522 23.522 61.865 22.1948C60.6778 20.8675 59.991 19.1736 59.9217 17.401L59.9054 17.023H64.2584L64.2747 17.2451C64.3208 17.8608 64.5291 18.4535 64.8787 18.9643C65.1299 19.2926 65.4266 19.5844 65.7599 19.8304C66.1562 20.0921 66.6035 20.2681 67.0729 20.3474C67.2939 20.3852 67.7167 20.3899 71.5341 20.3832L75.7508 20.3762L76.0042 20.3088C76.6301 20.1508 77.1984 19.8211 77.6437 19.3575C78.0918 18.8901 78.3972 18.3069 78.5248 17.6746C78.587 17.261 78.587 16.8404 78.5248 16.4268C78.4007 15.7898 78.0913 15.2027 77.6348 14.738C77.1607 14.2371 76.542 13.8934 75.8635 13.7546L75.6285 13.6992L70.6928 13.6851C66.1844 13.6689 65.7357 13.6647 65.5198 13.6297C64.0921 13.4176 62.7767 12.7393 61.7821 11.702C61.4987 11.4161 61.2459 11.1016 61.0278 10.7642C60.5771 10.0895 60.2524 9.34039 60.0692 8.55189C59.9478 8.055 59.8987 7.5432 59.9234 7.03252C59.9011 6.54647 59.9422 6.05989 60.0456 5.58428C60.3359 4.16584 61.092 2.88247 62.1957 1.93518C63.2995 0.987893 64.6888 0.43007 66.1463 0.348472C66.226 0.344023 68.6764 0.341904 71.5919 0.344128C77.2158 0.348576 77.0116 0.344015 77.6196 0.464678C78.767 0.694172 79.8327 1.22109 80.708 1.99165C81.5832 2.76222 82.2369 3.74873 82.6024 4.8512C82.8033 5.43195 82.9119 6.04022 82.9244 6.65403L82.9384 7.10365H78.5877L78.5737 6.84735C78.5635 6.56758 78.4963 6.29268 78.3762 6.03933C78.2351 5.73526 78.0277 5.46641 77.7689 5.25141C77.5101 5.03641 77.2065 4.88096 76.8798 4.79636L76.6734 4.74043H66.1704L65.9634 4.79636C65.8172 4.83632 65.6749 4.88945 65.5383 4.95492C65.1285 5.15246 64.7882 5.4675 64.5619 5.85959C64.3356 6.25169 64.2337 6.70272 64.2696 7.15307C64.2867 7.59001 64.432 8.01209 64.6878 8.36835C64.9435 8.72461 65.2986 8.99928 65.7094 9.15845C66.111 9.30914 65.7234 9.29762 71.1174 9.31375C76.5321 9.32988 76.0861 9.31381 76.8422 9.4734C78.0075 9.72795 79.0976 10.246 80.0275 10.9873C80.8688 11.6703 81.5623 12.5147 82.0663 13.47C82.6502 14.5723 82.9472 15.802 82.9305 17.0469C82.9435 17.9048 82.8061 18.758 82.5244 19.5692C82.0883 20.8408 81.3234 21.9768 80.3061 22.8638C79.2887 23.7507 78.0546 24.358 76.7267 24.6242C75.9701 24.771 76.1911 24.7641 71.7254 24.7746C70.828 24.7746 70.1044 24.7779 69.5121 24.7779C68.4859 24.8259 67.4574 24.7935 66.4363 24.6807H66.4335Z" fill="url(#paint0_linear_387_11838)"/>
<defs>
<linearGradient id="paint0_linear_387_11838" x1="7.102" y1="2.55" x2="17.9673" y2="43.9018" gradientUnits="userSpaceOnUse">
<stop stop-color="#8E4192"/>
<stop offset="1" stop-color="#5E7AA1"/>
</linearGradient>
</defs>
</svg>
