<svg width="29" height="29" viewBox="0 0 29 29" fill="none" xmlns="http://www.w3.org/2000/svg">
<path fill-rule="evenodd" clip-rule="evenodd" d="M14.201 17.3163L14.3328 17.3163L14.6275 17.3173C16.8798 17.3322 22.027 17.5597 22.027 21.0485C22.027 24.5143 17.0592 24.7404 14.6626 24.7551L13.7746 24.7551C11.5221 24.7403 6.37387 24.513 6.37387 21.0286C6.37387 17.5584 11.5221 17.3321 13.7746 17.3173L14.0693 17.3163C14.115 17.3163 14.159 17.3163 14.201 17.3163ZM14.201 19.0663C11.429 19.0663 8.12387 19.407 8.12387 21.0286C8.12387 22.6136 11.2318 22.9842 13.9477 23.0052L14.201 23.0061C16.973 23.0061 20.277 22.6666 20.277 21.0485C20.277 19.4105 16.973 19.0663 14.201 19.0663ZM23.4802 16.8429C26.3071 17.2664 26.9009 18.594 26.9009 19.6335C26.9009 20.2682 26.6512 21.4267 24.9829 22.0625C24.8802 22.101 24.7752 22.1197 24.6714 22.1197C24.3191 22.1197 23.9866 21.905 23.8536 21.5562C23.6809 21.1047 23.9084 20.5984 24.3599 20.4269C25.1509 20.1259 25.1509 19.7934 25.1509 19.6335C25.1509 19.1225 24.5011 18.7655 23.2201 18.5742C22.7429 18.5019 22.4127 18.0574 22.4839 17.5779C22.5551 17.0995 22.9984 16.781 23.4802 16.8429ZM5.917 17.5779C5.98817 18.0574 5.658 18.5019 5.18083 18.5742C3.89983 18.7655 3.25 19.1225 3.25 19.6335C3.25 19.7934 3.25 20.1247 4.04217 20.4269C4.49367 20.5984 4.72117 21.1047 4.5485 21.5562C4.4155 21.905 4.083 22.1197 3.73067 22.1197C3.62683 22.1197 3.52183 22.101 3.41917 22.0625C1.74967 21.4255 1.5 20.267 1.5 19.6335C1.5 18.5952 2.09383 17.2664 4.92183 16.8429C5.40367 16.7822 5.84467 17.0995 5.917 17.5779ZM14.201 5.16663C17.141 5.16663 19.5315 7.55829 19.5315 10.4971C19.5315 13.436 17.141 15.8276 14.201 15.8276H14.1695C12.7462 15.823 11.4127 15.2653 10.414 14.2573C9.41303 13.2505 8.86587 11.9135 8.87165 10.4936C8.87165 7.55829 11.2622 5.16663 14.201 5.16663ZM14.201 6.91663C12.227 6.91663 10.6217 8.52313 10.6217 10.4971C10.6182 11.4538 10.9845 12.3486 11.6554 13.0241C12.3262 13.6996 13.2199 14.0741 14.1719 14.0776L14.201 14.9526V14.0776C16.175 14.0776 17.7815 12.4723 17.7815 10.4971C17.7815 8.52313 16.175 6.91663 14.201 6.91663ZM21.4215 6.30938C23.4725 6.64654 24.9624 8.40121 24.9624 10.4814C24.9577 12.5755 23.3932 14.3722 21.3224 14.6627C21.2815 14.6685 21.2407 14.6709 21.201 14.6709C20.7717 14.6709 20.3972 14.3547 20.3354 13.9172C20.2689 13.4377 20.6014 12.9955 21.0809 12.929C22.2942 12.7587 23.21 11.7064 23.2124 10.479C23.2124 9.26221 22.3397 8.23321 21.1369 8.03604C20.6609 7.95788 20.3377 7.50754 20.4159 7.03038C20.4952 6.55321 20.942 6.23354 21.4215 6.30938ZM7.9862 7.03038C8.06437 7.50754 7.7412 7.95788 7.2652 8.03604C6.06237 8.23321 5.1897 9.26221 5.1897 10.4814C5.19203 11.7064 6.10787 12.7599 7.32003 12.929C7.79953 12.9955 8.13203 13.4377 8.06553 13.9172C8.0037 14.3547 7.6292 14.6709 7.19987 14.6709C7.1602 14.6709 7.11937 14.6685 7.07853 14.6627C5.0077 14.3722 3.44437 12.5755 3.4397 10.4837C3.4397 8.40121 4.92953 6.64654 6.98053 6.30938C7.4717 6.23238 7.90687 6.55554 7.9862 7.03038Z" fill="#CABBCB"/>
</svg>
