<svg width="72" height="15" viewBox="0 0 72 15" fill="none" xmlns="http://www.w3.org/2000/svg">
<path d="M0.823242 0.125H2.28418L6.01074 9.39844L9.72949 0.125H11.1982L6.57324 11.5H5.43262L0.823242 0.125ZM0.34668 0.125H1.63574L1.84668 7.0625V11.5H0.34668V0.125ZM10.3779 0.125H11.667V11.5H10.167V7.0625L10.3779 0.125ZM17.6045 11.6562C17.016 11.6562 16.4821 11.5573 16.0029 11.3594C15.529 11.1562 15.1201 10.8724 14.7764 10.5078C14.4378 10.1432 14.1774 9.71094 13.9951 9.21094C13.8128 8.71094 13.7217 8.16406 13.7217 7.57031V7.24219C13.7217 6.55469 13.8232 5.94271 14.0264 5.40625C14.2295 4.86458 14.5055 4.40625 14.8545 4.03125C15.2035 3.65625 15.5993 3.3724 16.042 3.17969C16.4847 2.98698 16.943 2.89062 17.417 2.89062C18.0212 2.89062 18.542 2.99479 18.9795 3.20312C19.4222 3.41146 19.7842 3.70312 20.0654 4.07812C20.3467 4.44792 20.555 4.88542 20.6904 5.39062C20.8258 5.89062 20.8936 6.4375 20.8936 7.03125V7.67969H14.5811V6.5H19.4482V6.39062C19.4274 6.01562 19.3493 5.65104 19.2139 5.29688C19.0837 4.94271 18.8753 4.65104 18.5889 4.42188C18.3024 4.19271 17.9118 4.07812 17.417 4.07812C17.0889 4.07812 16.7868 4.14844 16.5107 4.28906C16.2347 4.42448 15.9977 4.6276 15.7998 4.89844C15.6019 5.16927 15.4482 5.5 15.3389 5.89062C15.2295 6.28125 15.1748 6.73177 15.1748 7.24219V7.57031C15.1748 7.97135 15.2295 8.34896 15.3389 8.70312C15.4535 9.05208 15.6175 9.35938 15.8311 9.625C16.0498 9.89062 16.3128 10.099 16.6201 10.25C16.9326 10.401 17.2868 10.4766 17.6826 10.4766C18.193 10.4766 18.6253 10.3724 18.9795 10.1641C19.3337 9.95573 19.6436 9.67708 19.9092 9.32812L20.7842 10.0234C20.6019 10.2995 20.3701 10.5625 20.0889 10.8125C19.8076 11.0625 19.4613 11.2656 19.0498 11.4219C18.6436 11.5781 18.1618 11.6562 17.6045 11.6562ZM27.5029 9.25781C27.5029 9.04948 27.4561 8.85677 27.3623 8.67969C27.2738 8.4974 27.0889 8.33333 26.8076 8.1875C26.5316 8.03646 26.1149 7.90625 25.5576 7.79688C25.0889 7.69792 24.6644 7.58073 24.2842 7.44531C23.9092 7.3099 23.5889 7.14583 23.3232 6.95312C23.0628 6.76042 22.8623 6.53385 22.7217 6.27344C22.5811 6.01302 22.5107 5.70833 22.5107 5.35938C22.5107 5.02604 22.5837 4.71094 22.7295 4.41406C22.8805 4.11719 23.0915 3.85417 23.3623 3.625C23.6383 3.39583 23.9691 3.21615 24.3545 3.08594C24.7399 2.95573 25.1696 2.89062 25.6436 2.89062C26.3206 2.89062 26.8988 3.01042 27.3779 3.25C27.8571 3.48958 28.2243 3.8099 28.4795 4.21094C28.7347 4.60677 28.8623 5.04688 28.8623 5.53125H27.417C27.417 5.29688 27.3467 5.07031 27.2061 4.85156C27.0706 4.6276 26.8701 4.44271 26.6045 4.29688C26.3441 4.15104 26.0238 4.07812 25.6436 4.07812C25.2425 4.07812 24.917 4.14062 24.667 4.26562C24.4222 4.38542 24.2425 4.53906 24.1279 4.72656C24.0186 4.91406 23.9639 5.11198 23.9639 5.32031C23.9639 5.47656 23.9899 5.61719 24.042 5.74219C24.0993 5.86198 24.1982 5.97396 24.3389 6.07812C24.4795 6.17708 24.6774 6.27083 24.9326 6.35938C25.1878 6.44792 25.5133 6.53646 25.9092 6.625C26.6019 6.78125 27.1722 6.96875 27.6201 7.1875C28.068 7.40625 28.4014 7.67448 28.6201 7.99219C28.8389 8.3099 28.9482 8.69531 28.9482 9.14844C28.9482 9.51823 28.8701 9.85677 28.7139 10.1641C28.5628 10.4714 28.3415 10.737 28.0498 10.9609C27.7633 11.1797 27.4196 11.3516 27.0186 11.4766C26.6227 11.5964 26.1774 11.6562 25.6826 11.6562C24.9378 11.6562 24.3076 11.5234 23.792 11.2578C23.2764 10.9922 22.8857 10.6484 22.6201 10.2266C22.3545 9.80469 22.2217 9.35938 22.2217 8.89062H23.6748C23.6956 9.28646 23.8102 9.60156 24.0186 9.83594C24.2269 10.0651 24.4821 10.2292 24.7842 10.3281C25.0863 10.4219 25.3857 10.4688 25.6826 10.4688C26.0785 10.4688 26.4092 10.4167 26.6748 10.3125C26.9456 10.2083 27.1514 10.0651 27.292 9.88281C27.4326 9.70052 27.5029 9.49219 27.5029 9.25781ZM35.7686 9.25781C35.7686 9.04948 35.7217 8.85677 35.6279 8.67969C35.5394 8.4974 35.3545 8.33333 35.0732 8.1875C34.7972 8.03646 34.3805 7.90625 33.8232 7.79688C33.3545 7.69792 32.93 7.58073 32.5498 7.44531C32.1748 7.3099 31.8545 7.14583 31.5889 6.95312C31.3285 6.76042 31.1279 6.53385 30.9873 6.27344C30.8467 6.01302 30.7764 5.70833 30.7764 5.35938C30.7764 5.02604 30.8493 4.71094 30.9951 4.41406C31.1462 4.11719 31.3571 3.85417 31.6279 3.625C31.904 3.39583 32.2347 3.21615 32.6201 3.08594C33.0055 2.95573 33.4352 2.89062 33.9092 2.89062C34.5863 2.89062 35.1644 3.01042 35.6436 3.25C36.1227 3.48958 36.4899 3.8099 36.7451 4.21094C37.0003 4.60677 37.1279 5.04688 37.1279 5.53125H35.6826C35.6826 5.29688 35.6123 5.07031 35.4717 4.85156C35.3363 4.6276 35.1357 4.44271 34.8701 4.29688C34.6097 4.15104 34.2894 4.07812 33.9092 4.07812C33.5081 4.07812 33.1826 4.14062 32.9326 4.26562C32.6878 4.38542 32.5081 4.53906 32.3936 4.72656C32.2842 4.91406 32.2295 5.11198 32.2295 5.32031C32.2295 5.47656 32.2555 5.61719 32.3076 5.74219C32.3649 5.86198 32.4639 5.97396 32.6045 6.07812C32.7451 6.17708 32.943 6.27083 33.1982 6.35938C33.4535 6.44792 33.779 6.53646 34.1748 6.625C34.8675 6.78125 35.4378 6.96875 35.8857 7.1875C36.3337 7.40625 36.667 7.67448 36.8857 7.99219C37.1045 8.3099 37.2139 8.69531 37.2139 9.14844C37.2139 9.51823 37.1357 9.85677 36.9795 10.1641C36.8285 10.4714 36.6071 10.737 36.3154 10.9609C36.029 11.1797 35.6852 11.3516 35.2842 11.4766C34.8883 11.5964 34.443 11.6562 33.9482 11.6562C33.2035 11.6562 32.5732 11.5234 32.0576 11.2578C31.542 10.9922 31.1514 10.6484 30.8857 10.2266C30.6201 9.80469 30.4873 9.35938 30.4873 8.89062H31.9404C31.9613 9.28646 32.0758 9.60156 32.2842 9.83594C32.4925 10.0651 32.7477 10.2292 33.0498 10.3281C33.3519 10.4219 33.6514 10.4688 33.9482 10.4688C34.3441 10.4688 34.6748 10.4167 34.9404 10.3125C35.2113 10.2083 35.417 10.0651 35.5576 9.88281C35.6982 9.70052 35.7686 9.49219 35.7686 9.25781ZM44.0967 10.0547V5.70312C44.0967 5.36979 44.029 5.08073 43.8936 4.83594C43.7633 4.58594 43.5654 4.39323 43.2998 4.25781C43.0342 4.1224 42.7061 4.05469 42.3154 4.05469C41.9508 4.05469 41.6305 4.11719 41.3545 4.24219C41.0837 4.36719 40.8701 4.53125 40.7139 4.73438C40.5628 4.9375 40.4873 5.15625 40.4873 5.39062H39.042C39.042 5.08854 39.1201 4.78906 39.2764 4.49219C39.4326 4.19531 39.6566 3.92708 39.9482 3.6875C40.2451 3.44271 40.5993 3.25 41.0107 3.10938C41.4274 2.96354 41.891 2.89062 42.4014 2.89062C43.016 2.89062 43.5576 2.99479 44.0264 3.20312C44.5003 3.41146 44.8701 3.72656 45.1357 4.14844C45.4066 4.5651 45.542 5.08854 45.542 5.71875V9.65625C45.542 9.9375 45.5654 10.237 45.6123 10.5547C45.6644 10.8724 45.7399 11.1458 45.8389 11.375V11.5H44.3311C44.2581 11.3333 44.2008 11.112 44.1592 10.8359C44.1175 10.5547 44.0967 10.2943 44.0967 10.0547ZM44.3467 6.375L44.3623 7.39062H42.9014C42.4899 7.39062 42.1227 7.42448 41.7998 7.49219C41.4769 7.55469 41.2061 7.65104 40.9873 7.78125C40.7686 7.91146 40.6019 8.07552 40.4873 8.27344C40.3727 8.46615 40.3154 8.69271 40.3154 8.95312C40.3154 9.21875 40.3753 9.46094 40.4951 9.67969C40.6149 9.89844 40.7946 10.0729 41.0342 10.2031C41.279 10.3281 41.5785 10.3906 41.9326 10.3906C42.3753 10.3906 42.766 10.2969 43.1045 10.1094C43.443 9.92188 43.7113 9.69271 43.9092 9.42188C44.1123 9.15104 44.2217 8.88802 44.2373 8.63281L44.8545 9.32812C44.818 9.54688 44.7191 9.78906 44.5576 10.0547C44.3962 10.3203 44.18 10.5755 43.9092 10.8203C43.6436 11.0599 43.3258 11.2604 42.9561 11.4219C42.5915 11.5781 42.18 11.6562 41.7217 11.6562C41.1488 11.6562 40.6462 11.5443 40.2139 11.3203C39.7868 11.0964 39.4535 10.7969 39.2139 10.4219C38.9795 10.0417 38.8623 9.61719 38.8623 9.14844C38.8623 8.69531 38.9508 8.29688 39.1279 7.95312C39.305 7.60417 39.5602 7.3151 39.8936 7.08594C40.2269 6.85156 40.6279 6.67448 41.0967 6.55469C41.5654 6.4349 42.0889 6.375 42.667 6.375H44.3467ZM53.292 3.04688H54.6045V11.3203C54.6045 12.0651 54.4535 12.7005 54.1514 13.2266C53.8493 13.7526 53.4274 14.151 52.8857 14.4219C52.3493 14.6979 51.7295 14.8359 51.0264 14.8359C50.7347 14.8359 50.391 14.7891 49.9951 14.6953C49.6045 14.6068 49.2191 14.4531 48.8389 14.2344C48.4639 14.0208 48.1488 13.7318 47.8936 13.3672L48.6514 12.5078C49.0055 12.9349 49.3753 13.2318 49.7607 13.3984C50.1514 13.5651 50.5368 13.6484 50.917 13.6484C51.3753 13.6484 51.7712 13.5625 52.1045 13.3906C52.4378 13.2188 52.6956 12.9635 52.8779 12.625C53.0654 12.2917 53.1592 11.8802 53.1592 11.3906V4.90625L53.292 3.04688ZM47.4717 7.36719V7.20312C47.4717 6.55729 47.5472 5.97135 47.6982 5.44531C47.8545 4.91406 48.0758 4.45833 48.3623 4.07812C48.654 3.69792 49.0055 3.40625 49.417 3.20312C49.8285 2.99479 50.292 2.89062 50.8076 2.89062C51.3389 2.89062 51.8024 2.98438 52.1982 3.17188C52.5993 3.35417 52.9378 3.6224 53.2139 3.97656C53.4951 4.32552 53.7165 4.7474 53.8779 5.24219C54.0394 5.73698 54.1514 6.29688 54.2139 6.92188V7.64062C54.1566 8.26042 54.0446 8.81771 53.8779 9.3125C53.7165 9.80729 53.4951 10.2292 53.2139 10.5781C52.9378 10.9271 52.5993 11.1953 52.1982 11.3828C51.7972 11.5651 51.3285 11.6562 50.792 11.6562C50.2868 11.6562 49.8285 11.5495 49.417 11.3359C49.0107 11.1224 48.6618 10.8229 48.3701 10.4375C48.0785 10.0521 47.8545 9.59896 47.6982 9.07812C47.5472 8.55208 47.4717 7.98177 47.4717 7.36719ZM48.917 7.20312V7.36719C48.917 7.78906 48.9587 8.1849 49.042 8.55469C49.1305 8.92448 49.2633 9.25 49.4404 9.53125C49.6227 9.8125 49.8545 10.0339 50.1357 10.1953C50.417 10.3516 50.7529 10.4297 51.1436 10.4297C51.6227 10.4297 52.0186 10.3281 52.3311 10.125C52.6436 9.92188 52.891 9.65365 53.0732 9.32031C53.2607 8.98698 53.4066 8.625 53.5107 8.23438V6.35156C53.4535 6.0651 53.3649 5.78906 53.2451 5.52344C53.1305 5.2526 52.9795 5.01302 52.792 4.80469C52.6097 4.59115 52.3831 4.42188 52.1123 4.29688C51.8415 4.17188 51.5238 4.10938 51.1592 4.10938C50.7633 4.10938 50.4222 4.19271 50.1357 4.35938C49.8545 4.52083 49.6227 4.74479 49.4404 5.03125C49.2633 5.3125 49.1305 5.64062 49.042 6.01562C48.9587 6.38542 48.917 6.78125 48.917 7.20312ZM60.3076 11.6562C59.7191 11.6562 59.1852 11.5573 58.7061 11.3594C58.2321 11.1562 57.8232 10.8724 57.4795 10.5078C57.141 10.1432 56.8805 9.71094 56.6982 9.21094C56.516 8.71094 56.4248 8.16406 56.4248 7.57031V7.24219C56.4248 6.55469 56.5264 5.94271 56.7295 5.40625C56.9326 4.86458 57.2087 4.40625 57.5576 4.03125C57.9066 3.65625 58.3024 3.3724 58.7451 3.17969C59.1878 2.98698 59.6462 2.89062 60.1201 2.89062C60.7243 2.89062 61.2451 2.99479 61.6826 3.20312C62.1253 3.41146 62.4873 3.70312 62.7686 4.07812C63.0498 4.44792 63.2581 4.88542 63.3936 5.39062C63.529 5.89062 63.5967 6.4375 63.5967 7.03125V7.67969H57.2842V6.5H62.1514V6.39062C62.1305 6.01562 62.0524 5.65104 61.917 5.29688C61.7868 4.94271 61.5785 4.65104 61.292 4.42188C61.0055 4.19271 60.6149 4.07812 60.1201 4.07812C59.792 4.07812 59.4899 4.14844 59.2139 4.28906C58.9378 4.42448 58.7008 4.6276 58.5029 4.89844C58.305 5.16927 58.1514 5.5 58.042 5.89062C57.9326 6.28125 57.8779 6.73177 57.8779 7.24219V7.57031C57.8779 7.97135 57.9326 8.34896 58.042 8.70312C58.1566 9.05208 58.3206 9.35938 58.5342 9.625C58.7529 9.89062 59.016 10.099 59.3232 10.25C59.6357 10.401 59.9899 10.4766 60.3857 10.4766C60.8962 10.4766 61.3285 10.3724 61.6826 10.1641C62.0368 9.95573 62.3467 9.67708 62.6123 9.32812L63.4873 10.0234C63.305 10.2995 63.0732 10.5625 62.792 10.8125C62.5107 11.0625 62.1644 11.2656 61.7529 11.4219C61.3467 11.5781 60.8649 11.6562 60.3076 11.6562ZM70.2061 9.25781C70.2061 9.04948 70.1592 8.85677 70.0654 8.67969C69.9769 8.4974 69.792 8.33333 69.5107 8.1875C69.2347 8.03646 68.818 7.90625 68.2607 7.79688C67.792 7.69792 67.3675 7.58073 66.9873 7.44531C66.6123 7.3099 66.292 7.14583 66.0264 6.95312C65.766 6.76042 65.5654 6.53385 65.4248 6.27344C65.2842 6.01302 65.2139 5.70833 65.2139 5.35938C65.2139 5.02604 65.2868 4.71094 65.4326 4.41406C65.5837 4.11719 65.7946 3.85417 66.0654 3.625C66.3415 3.39583 66.6722 3.21615 67.0576 3.08594C67.443 2.95573 67.8727 2.89062 68.3467 2.89062C69.0238 2.89062 69.6019 3.01042 70.0811 3.25C70.5602 3.48958 70.9274 3.8099 71.1826 4.21094C71.4378 4.60677 71.5654 5.04688 71.5654 5.53125H70.1201C70.1201 5.29688 70.0498 5.07031 69.9092 4.85156C69.7738 4.6276 69.5732 4.44271 69.3076 4.29688C69.0472 4.15104 68.7269 4.07812 68.3467 4.07812C67.9456 4.07812 67.6201 4.14062 67.3701 4.26562C67.1253 4.38542 66.9456 4.53906 66.8311 4.72656C66.7217 4.91406 66.667 5.11198 66.667 5.32031C66.667 5.47656 66.693 5.61719 66.7451 5.74219C66.8024 5.86198 66.9014 5.97396 67.042 6.07812C67.1826 6.17708 67.3805 6.27083 67.6357 6.35938C67.891 6.44792 68.2165 6.53646 68.6123 6.625C69.305 6.78125 69.8753 6.96875 70.3232 7.1875C70.7712 7.40625 71.1045 7.67448 71.3232 7.99219C71.542 8.3099 71.6514 8.69531 71.6514 9.14844C71.6514 9.51823 71.5732 9.85677 71.417 10.1641C71.266 10.4714 71.0446 10.737 70.7529 10.9609C70.4665 11.1797 70.1227 11.3516 69.7217 11.4766C69.3258 11.5964 68.8805 11.6562 68.3857 11.6562C67.641 11.6562 67.0107 11.5234 66.4951 11.2578C65.9795 10.9922 65.5889 10.6484 65.3232 10.2266C65.0576 9.80469 64.9248 9.35938 64.9248 8.89062H66.3779C66.3988 9.28646 66.5133 9.60156 66.7217 9.83594C66.93 10.0651 67.1852 10.2292 67.4873 10.3281C67.7894 10.4219 68.0889 10.4688 68.3857 10.4688C68.7816 10.4688 69.1123 10.4167 69.3779 10.3125C69.6488 10.2083 69.8545 10.0651 69.9951 9.88281C70.1357 9.70052 70.2061 9.49219 70.2061 9.25781Z" fill="#666666"/>
</svg>
