<svg width="26" height="28" viewBox="0 0 26 28" fill="none" xmlns="http://www.w3.org/2000/svg">
<path d="M12.5389 0.669069C12.9276 0.443644 13.406 0.443644 13.7947 0.669069L24.3402 6.78619C24.7291 7.01177 24.9698 7.42952 24.9698 7.88288V20.1171C24.9698 20.5705 24.7291 20.9882 24.3402 21.2138L13.7947 27.3309C13.406 27.5564 12.9276 27.5564 12.5389 27.3309L1.99339 21.2138C1.6045 20.9882 1.36377 20.5705 1.36377 20.1171V7.88288C1.36377 7.42952 1.6045 7.01178 1.99339 6.78619L12.5389 0.669069Z" stroke="#666666"/>
<path d="M5.58201 18C5.34816 18 5.16999 17.929 5.0475 17.787C4.92501 17.645 4.86377 17.4352 4.86377 17.1577V11.8811C4.86377 11.597 4.92501 11.3808 5.0475 11.2324C5.16999 11.0775 5.33146 11 5.5319 11C5.71006 11 5.84926 11.0387 5.94948 11.1162C6.0497 11.1936 6.16105 11.3227 6.28354 11.5035L8.931 15.3375H8.69715V11.8326C8.69715 11.5615 8.75561 11.355 8.87254 11.213C8.99503 11.071 9.17319 11 9.40704 11C9.64088 11 9.81627 11.071 9.93319 11.213C10.0557 11.355 10.1169 11.5615 10.1169 11.8326V17.1964C10.1169 17.4417 10.0612 17.6385 9.94989 17.787C9.83854 17.929 9.68821 18 9.49891 18C9.3096 18 9.15927 17.9613 9.04792 17.8838C8.94213 17.7999 8.82799 17.6708 8.7055 17.4965L6.05805 13.6528H6.29189V17.1577C6.29189 17.4352 6.23065 17.645 6.10816 17.787C5.99124 17.929 5.81585 18 5.58201 18Z" fill="#666666"/>
<path d="M12.387 18C12.142 18 11.9499 17.9225 11.8107 17.7676C11.6771 17.6063 11.6103 17.3771 11.6103 17.0802V12.0069C11.6103 11.71 11.6771 11.4841 11.8107 11.3292C11.9499 11.1678 12.1504 11.0871 12.412 11.0871H15.1931C15.3936 11.0871 15.5439 11.1452 15.6441 11.2614C15.7443 11.3776 15.7944 11.5454 15.7944 11.7649C15.7944 11.9908 15.7443 12.1651 15.6441 12.2877C15.5439 12.4039 15.3936 12.462 15.1931 12.462H13.147V13.8368H15.0094C15.2043 13.8368 15.3518 13.8949 15.452 14.0111C15.5578 14.1272 15.6107 14.2951 15.6107 14.5145C15.6107 14.7404 15.5578 14.9115 15.452 15.0277C15.3518 15.1438 15.2043 15.2019 15.0094 15.2019H13.147V17.0802C13.147 17.6934 12.8937 18 12.387 18Z" fill="#666666"/>
<path d="M19.1495 18C18.9045 18 18.7152 17.9225 18.5816 17.7676C18.448 17.6063 18.3812 17.3836 18.3812 17.0996V12.5394H17.07C16.8639 12.5394 16.7053 12.4781 16.5939 12.3555C16.4881 12.2264 16.4352 12.0456 16.4352 11.8133C16.4352 11.5745 16.4881 11.3937 16.5939 11.2711C16.7053 11.1485 16.8639 11.0871 17.07 11.0871H21.229C21.4351 11.0871 21.591 11.1485 21.6967 11.2711C21.8081 11.3937 21.8638 11.5745 21.8638 11.8133C21.8638 12.0456 21.8081 12.2264 21.6967 12.3555C21.591 12.4781 21.4351 12.5394 21.229 12.5394H19.9178V17.0996C19.9178 17.3836 19.8538 17.6063 19.7258 17.7676C19.5977 17.9225 19.4056 18 19.1495 18Z" fill="#666666"/>
</svg>
