<svg width="24" height="25" viewBox="0 0 24 25" fill="none" xmlns="http://www.w3.org/2000/svg">
<rect x="1.5" y="2" width="21" height="21" rx="10.5" fill="#5B8FF4"/>
<g filter="url(#filter0_d_169_2060)">
<path d="M12.6172 18.7079C13.9531 17.0736 17 13.1125 17 10.8876C17 8.18926 14.7604 6 12 6C9.23958 6 7 8.18926 7 10.8876C7 13.1125 10.0469 17.0736 11.3828 18.7079C11.7031 19.0974 12.2969 19.0974 12.6172 18.7079ZM12 12.5169C11.0807 12.5169 10.3333 11.7863 10.3333 10.8876C10.3333 9.98903 11.0807 9.25843 12 9.25843C12.9193 9.25843 13.6667 9.98903 13.6667 10.8876C13.6667 11.7863 12.9193 12.5169 12 12.5169Z" fill="white"/>
</g>
<defs>
<filter id="filter0_d_169_2060" x="6" y="6" width="12" height="15" filterUnits="userSpaceOnUse" color-interpolation-filters="sRGB">
<feFlood flood-opacity="0" result="BackgroundImageFix"/>
<feColorMatrix in="SourceAlpha" type="matrix" values="0 0 0 0 0 0 0 0 0 0 0 0 0 0 0 0 0 0 127 0" result="hardAlpha"/>
<feOffset dy="1"/>
<feGaussianBlur stdDeviation="0.5"/>
<feComposite in2="hardAlpha" operator="out"/>
<feColorMatrix type="matrix" values="0 0 0 0 0 0 0 0 0 0 0 0 0 0 0 0 0 0 0.05 0"/>
<feBlend mode="normal" in2="BackgroundImageFix" result="effect1_dropShadow_169_2060"/>
<feBlend mode="normal" in="SourceGraphic" in2="effect1_dropShadow_169_2060" result="shape"/>
</filter>
</defs>
</svg>
