<svg width="23" height="22" viewBox="0 0 23 22" fill="none" xmlns="http://www.w3.org/2000/svg">
<rect x="0.5" width="22" height="22" rx="11" fill="#5B8FF4"/>
<g filter="url(#filter0_d_169_2071)">
<path d="M5.5 6.31399V10.415C5.5 10.8814 5.68379 11.3285 6.01297 11.6577L10.841 16.4857C11.5267 17.1715 12.6377 17.1715 13.3235 16.4857L16.9857 12.8235C17.6714 12.1377 17.6714 11.0268 16.9857 10.341L12.1577 5.51298C11.8285 5.1838 11.3814 5.00001 10.915 5.00001H6.81672C6.08978 4.99727 5.5 5.58705 5.5 6.31399ZM8.57235 8.94743C8.08681 8.94743 7.69454 8.55516 7.69454 8.06962C7.69454 7.58408 8.08681 7.1918 8.57235 7.1918C9.05789 7.1918 9.45017 7.58408 9.45017 8.06962C9.45017 8.55516 9.05789 8.94743 8.57235 8.94743Z" fill="white"/>
</g>
<defs>
<filter id="filter0_d_169_2071" x="4.5" y="5" width="14" height="14" filterUnits="userSpaceOnUse" color-interpolation-filters="sRGB">
<feFlood flood-opacity="0" result="BackgroundImageFix"/>
<feColorMatrix in="SourceAlpha" type="matrix" values="0 0 0 0 0 0 0 0 0 0 0 0 0 0 0 0 0 0 127 0" result="hardAlpha"/>
<feOffset dy="1"/>
<feGaussianBlur stdDeviation="0.5"/>
<feComposite in2="hardAlpha" operator="out"/>
<feColorMatrix type="matrix" values="0 0 0 0 0 0 0 0 0 0 0 0 0 0 0 0 0 0 0.05 0"/>
<feBlend mode="normal" in2="BackgroundImageFix" result="effect1_dropShadow_169_2071"/>
<feBlend mode="normal" in="SourceGraphic" in2="effect1_dropShadow_169_2071" result="shape"/>
</filter>
</defs>
</svg>
