<svg width="23" height="22" viewBox="0 0 23 22" fill="none" xmlns="http://www.w3.org/2000/svg">
<rect x="0.75" y="0.25" width="21.5" height="21.5" rx="10.75" fill="#5B8FF4"/>
<g filter="url(#filter0_d_166_2934)">
<path d="M7.375 6.18902V15.8126C7.375 16.1928 7.06777 16.5 6.6875 16.5C6.30723 16.5 6 16.1928 6 15.8126V6.18902C6 5.8088 6.30723 5.50162 6.6875 5.50162C7.06777 5.50162 7.375 5.8088 7.375 6.18902ZM8.25156 12.6935C8.18711 12.7129 8.12266 12.73 8.0625 12.7494V5.79161C8.61035 5.6391 9.28711 5.50162 9.95312 5.50162C10.7373 5.50162 11.4205 5.6971 12.007 5.86465L12.035 5.87324C12.6473 6.04724 13.1607 6.18902 13.7344 6.18902C14.3102 6.18902 14.8709 6.04294 15.3027 5.88613C15.5154 5.8088 15.6873 5.73147 15.8055 5.67562C15.8635 5.64769 15.9086 5.62406 15.9387 5.60902C15.9537 5.60043 15.9623 5.59614 15.9688 5.59184L15.973 5.58969C16.1857 5.4694 16.4479 5.4694 16.6584 5.59399C16.8689 5.71858 17 5.94413 17 6.18902V11.6882C17 11.9481 16.8539 12.1866 16.6197 12.3026L16.3125 11.6882C16.6197 12.3026 16.6197 12.3026 16.6197 12.3026H16.6176L16.6133 12.3047L16.5982 12.3133C16.5854 12.3198 16.566 12.3283 16.5445 12.3391C16.4973 12.3606 16.4328 12.3906 16.3512 12.425C16.1857 12.4959 15.9537 12.5883 15.6744 12.6806C15.1201 12.8675 14.3531 13.063 13.5625 13.063C12.7676 13.063 12.1617 12.8611 11.6504 12.6914L11.6289 12.6849C11.1133 12.5131 10.69 12.3756 10.125 12.3756C9.53418 12.3756 8.83379 12.526 8.25156 12.6935Z" fill="white"/>
</g>
<rect x="0.75" y="0.25" width="21.5" height="21.5" rx="10.75" stroke="white" stroke-width="0.5"/>
<defs>
<filter id="filter0_d_166_2934" x="5" y="5.5" width="13" height="13" filterUnits="userSpaceOnUse" color-interpolation-filters="sRGB">
<feFlood flood-opacity="0" result="BackgroundImageFix"/>
<feColorMatrix in="SourceAlpha" type="matrix" values="0 0 0 0 0 0 0 0 0 0 0 0 0 0 0 0 0 0 127 0" result="hardAlpha"/>
<feOffset dy="1"/>
<feGaussianBlur stdDeviation="0.5"/>
<feComposite in2="hardAlpha" operator="out"/>
<feColorMatrix type="matrix" values="0 0 0 0 0 0 0 0 0 0 0 0 0 0 0 0 0 0 0.05 0"/>
<feBlend mode="normal" in2="BackgroundImageFix" result="effect1_dropShadow_166_2934"/>
<feBlend mode="normal" in="SourceGraphic" in2="effect1_dropShadow_166_2934" result="shape"/>
</filter>
</defs>
</svg>
