<svg width="21" height="22" viewBox="0 0 21 22" fill="none" xmlns="http://www.w3.org/2000/svg">
<rect x="0.75" y="0.892822" width="19.5" height="20.2143" rx="9.75" fill="#5B8FF4"/>
<g filter="url(#filter0_d_166_2938)">
<path d="M4.5 8.42854C4.5 7.71938 5.09792 7.14282 5.83333 7.14282H11.1667C11.9021 7.14282 12.5 7.71938 12.5 8.42854V13.5714C12.5 14.2805 11.9021 14.8571 11.1667 14.8571H5.83333C5.09792 14.8571 4.5 14.2805 4.5 13.5714V8.42854ZM16.1479 7.86202C16.3646 7.97452 16.5 8.19148 16.5 8.42854V13.5714C16.5 13.8084 16.3646 14.0254 16.1479 14.1379C15.9312 14.2504 15.6688 14.2384 15.4625 14.1058L13.4625 12.8201L13.1667 12.6292V12.2857V9.71425V9.37072L13.4625 9.17988L15.4625 7.89416C15.6667 7.76358 15.9292 7.74952 16.1479 7.86202Z" fill="white"/>
</g>
<rect x="0.75" y="0.892822" width="19.5" height="20.2143" rx="9.75" stroke="white" stroke-width="0.5"/>
<defs>
<filter id="filter0_d_166_2938" x="3.5" y="7.14282" width="14" height="9.71423" filterUnits="userSpaceOnUse" color-interpolation-filters="sRGB">
<feFlood flood-opacity="0" result="BackgroundImageFix"/>
<feColorMatrix in="SourceAlpha" type="matrix" values="0 0 0 0 0 0 0 0 0 0 0 0 0 0 0 0 0 0 127 0" result="hardAlpha"/>
<feOffset dy="1"/>
<feGaussianBlur stdDeviation="0.5"/>
<feComposite in2="hardAlpha" operator="out"/>
<feColorMatrix type="matrix" values="0 0 0 0 0 0 0 0 0 0 0 0 0 0 0 0 0 0 0.25 0"/>
<feBlend mode="normal" in2="BackgroundImageFix" result="effect1_dropShadow_166_2938"/>
<feBlend mode="normal" in="SourceGraphic" in2="effect1_dropShadow_166_2938" result="shape"/>
</filter>
</defs>
</svg>
