<svg width="29" height="29" viewBox="0 0 29 29" fill="none" xmlns="http://www.w3.org/2000/svg">
<path fill-rule="evenodd" clip-rule="evenodd" d="M12.7119 23.957C13.3163 24.6301 14.0921 25 14.8971 25H14.8983C15.7068 25 16.4861 24.6301 17.0916 23.9558C17.4159 23.5976 17.9689 23.5685 18.3271 23.8916C18.6864 24.2148 18.7156 24.769 18.3924 25.1271C17.4498 26.1736 16.2096 26.75 14.8983 26.75H14.8959C13.5881 26.7488 12.3503 26.1725 11.4111 25.126C11.0879 24.7678 11.1171 24.2136 11.4764 23.8916C11.8358 23.5673 12.3888 23.5965 12.7119 23.957ZM14.9552 1.66663C20.141 1.66663 23.6247 5.70563 23.6247 9.47746C23.6247 11.4176 24.1182 12.2401 24.642 13.1128C25.16 13.9738 25.7469 14.9515 25.7469 16.7995C25.3397 21.521 20.4105 21.906 14.9552 21.906C9.49986 21.906 4.56952 21.521 4.16701 16.8741C4.16352 14.9515 4.75036 13.9738 5.26836 13.1128L5.45122 12.805C5.90148 12.0311 6.28569 11.1894 6.28569 9.47746C6.28569 5.70563 9.76936 1.66663 14.9552 1.66663ZM14.9552 3.41663C10.8777 3.41663 8.03569 6.61096 8.03569 9.47746C8.03569 11.903 7.36252 13.0241 6.76752 14.0135C6.29036 14.808 5.91352 15.4356 5.91352 16.7995C6.10836 18.9998 7.56086 20.156 14.9552 20.156C22.3087 20.156 23.8067 18.9485 24.0004 16.7236C23.9969 15.4356 23.62 14.808 23.1429 14.0135C22.5479 13.0241 21.8747 11.903 21.8747 9.47746C21.8747 6.61096 19.0327 3.41663 14.9552 3.41663Z" fill="#CABBCB"/>
</svg>
