<svg width="24" height="24" viewBox="0 0 24 24" fill="none" xmlns="http://www.w3.org/2000/svg">
<path d="M19.6865 3H15.5623C15.2144 3.00045 14.8808 3.13888 14.6347 3.38494C14.3886 3.631 14.2502 3.9646 14.2498 4.31257V8.43757C14.2502 8.78555 14.3886 9.11914 14.6347 9.3652C14.8808 9.61126 15.2144 9.74969 15.5623 9.75014H19.6873C20.0353 9.74969 20.3689 9.61126 20.615 9.3652C20.861 9.11914 20.9994 8.78555 20.9999 8.43757V4.31257C20.9994 3.96445 20.8609 3.63072 20.6147 3.38464C20.3684 3.13856 20.0346 3.00022 19.6865 3V3Z" fill="#6374A0"/>
<path d="M15.5623 20.9989H19.6873C20.0353 20.9985 20.3689 20.86 20.615 20.614C20.861 20.3679 20.9994 20.0343 20.9999 19.6864V15.5622C20.9994 15.2141 20.8609 14.8804 20.6147 14.6343C20.3684 14.3882 20.0346 14.2499 19.6865 14.2496H15.5623C15.2144 14.2501 14.8808 14.3885 14.6347 14.6346C14.3886 14.8806 14.2502 15.2142 14.2498 15.5622V19.6872C14.2504 20.035 14.389 20.3684 14.635 20.6143C14.881 20.8602 15.2145 20.9985 15.5623 20.9989Z" fill="#6374A0"/>
<path d="M17.6248 3H15.5064C15.1682 3.01484 14.8488 3.1596 14.6147 3.40412C14.3806 3.64864 14.2499 3.97406 14.2498 4.31257V8.43757C14.2502 8.78555 14.3886 9.11914 14.6347 9.3652C14.8808 9.61126 15.2144 9.74969 15.5623 9.75014H17.6248V3Z" fill="#808EB1"/>
<path d="M17.6248 14.2496H15.5623C15.2144 14.2501 14.8808 14.3885 14.6347 14.6346C14.3886 14.8806 14.2502 15.2142 14.2498 15.5622V19.6872C14.2502 20.0352 14.3886 20.3688 14.6347 20.6148C14.8808 20.8609 15.2144 20.9993 15.5623 20.9998H17.6248V14.2496Z" fill="#808EB1"/>
<path d="M8.4377 3H4.31355C3.96557 3.00045 3.63197 3.13888 3.38592 3.38494C3.13986 3.631 3.00142 3.9646 3.00098 4.31257V8.43757C3.00165 8.7854 3.14018 9.11878 3.38621 9.36465C3.63225 9.61053 3.96572 9.74885 4.31355 9.74929H8.4377C8.78553 9.74885 9.119 9.61053 9.36503 9.36465C9.61107 9.11878 9.7496 8.7854 9.75027 8.43757V4.31257C9.74982 3.9646 9.61139 3.631 9.36533 3.38494C9.11927 3.13888 8.78568 3.00045 8.4377 3V3Z" fill="#6374A0"/>
<path d="M4.31355 20.9989H8.4377C8.78568 20.9985 9.11927 20.86 9.36533 20.614C9.61139 20.3679 9.74982 20.0343 9.75027 19.6864V15.5622C9.74982 15.2142 9.61139 14.8806 9.36533 14.6346C9.11927 14.3885 8.78568 14.2501 8.4377 14.2496H4.31355C3.96557 14.2501 3.63197 14.3885 3.38592 14.6346C3.13986 14.8806 3.00142 15.2142 3.00098 15.5622V19.6872C3.00165 20.035 3.14018 20.3684 3.38621 20.6143C3.63225 20.8602 3.96572 20.9985 4.31355 20.9989Z" fill="#6374A0"/>
<path d="M6.37605 3H4.25762C3.91943 3.01484 3.60001 3.1596 3.36591 3.40412C3.13181 3.64864 3.00109 3.97406 3.00098 4.31257V8.43757C3.00165 8.7854 3.14018 9.11878 3.38621 9.36465C3.63225 9.61053 3.96572 9.74885 4.31355 9.74929H6.37605V3Z" fill="#808EB1"/>
<path d="M6.37605 14.2496H4.31355C3.96557 14.2501 3.63197 14.3885 3.38592 14.6346C3.13986 14.8806 3.00142 15.2142 3.00098 15.5622V19.6872C3.00142 20.0352 3.13986 20.3688 3.38592 20.6148C3.63197 20.8609 3.96557 20.9993 4.31355 20.9998H6.37605V14.2496Z" fill="#808EB1"/>
<path d="M14.2507 5.81238H6.37613C6.2269 5.81238 6.08379 5.87166 5.97827 5.97718C5.87276 6.08269 5.81348 6.22581 5.81348 6.37503C5.81348 6.52426 5.87276 6.66737 5.97827 6.77289C6.08379 6.8784 6.2269 6.93768 6.37613 6.93768H14.2507V5.81238Z" fill="white"/>
<path d="M17.6248 17.0613H9.75024V18.1866H17.6248C17.7741 18.1866 17.9172 18.1273 18.0227 18.0218C18.1282 17.9163 18.1875 17.7732 18.1875 17.6239C18.1875 17.4747 18.1282 17.3316 18.0227 17.2261C17.9172 17.1206 17.7741 17.0613 17.6248 17.0613Z" fill="white"/>
<path d="M12.001 5.81238H6.37613C6.2269 5.81238 6.08379 5.87166 5.97827 5.97718C5.87276 6.08269 5.81348 6.22581 5.81348 6.37503C5.81348 6.52426 5.87276 6.66737 5.97827 6.77289C6.08379 6.8784 6.2269 6.93768 6.37613 6.93768H12.0018L12.001 5.81238Z" fill="white"/>
<path d="M12.0009 17.0613H9.75024V18.1866H12.0009V17.0613Z" fill="white"/>
<path d="M5.81348 9.74927V17.6239C5.81348 17.7731 5.87276 17.9162 5.97827 18.0217C6.08379 18.1272 6.2269 18.1865 6.37613 18.1865C6.52535 18.1865 6.66847 18.1272 6.77399 18.0217C6.8795 17.9162 6.93878 17.7731 6.93878 17.6239V9.74927H5.81348Z" fill="white"/>
<path d="M18.1876 14.2496V6.37503C18.1876 6.30114 18.173 6.22798 18.1447 6.15971C18.1165 6.09145 18.075 6.02942 18.0228 5.97718C17.9705 5.92493 17.9085 5.88348 17.8402 5.85521C17.772 5.82693 17.6988 5.81238 17.6249 5.81238C17.551 5.81238 17.4779 5.82693 17.4096 5.85521C17.3413 5.88348 17.2793 5.92493 17.2271 5.97718C17.1748 6.02942 17.1334 6.09145 17.1051 6.15971C17.0768 6.22798 17.0623 6.30114 17.0623 6.37503V14.2496H18.1876Z" fill="white"/>
<path d="M6.93878 11.999H5.81348V17.6239C5.81348 17.7731 5.87276 17.9162 5.97827 18.0217C6.08379 18.1272 6.2269 18.1865 6.37613 18.1865C6.52535 18.1865 6.66847 18.1272 6.77399 18.0217C6.8795 17.9162 6.93878 17.7731 6.93878 17.6239V11.999Z" fill="white"/>
<path d="M18.1876 11.999H17.0623V14.2488H18.1876V11.999Z" fill="white"/>
</svg>
