<svg width="25" height="24" viewBox="0 0 25 24" fill="none" xmlns="http://www.w3.org/2000/svg">
<path d="M21.0407 1.99976H16.4582C16.0716 2.00025 15.7009 2.15407 15.4275 2.42747C15.1541 2.70088 15.0003 3.07155 14.9998 3.4582V8.04162C15.0003 8.42827 15.1541 8.79894 15.4275 9.07234C15.7009 9.34575 16.0716 9.49956 16.4582 9.50006H21.0416C21.4283 9.49956 21.7989 9.34575 22.0723 9.07234C22.3457 8.79894 22.4996 8.42827 22.5001 8.04162V3.4582C22.4996 3.07139 22.3456 2.70057 22.072 2.42714C21.7984 2.15371 21.4275 2 21.0407 1.99976V1.99976Z" fill="#666666"/>
<path d="M16.4582 21.9991H21.0416C21.4283 21.9986 21.7989 21.8448 22.0723 21.5714C22.3457 21.298 22.4996 20.9273 22.5001 20.5407V15.9582C22.4996 15.5714 22.3456 15.2006 22.072 14.9271C21.7984 14.6537 21.4275 14.5 21.0407 14.4998H16.4582C16.0716 14.5003 15.7009 14.6541 15.4275 14.9275C15.1541 15.2009 15.0003 15.5716 14.9998 15.9582V20.5416C15.0005 20.9281 15.1544 21.2985 15.4278 21.5717C15.7012 21.8449 16.0717 21.9986 16.4582 21.9991Z" fill="#666666"/>
<path d="M18.7499 1.99976H16.3961C16.0203 2.01625 15.6654 2.1771 15.4052 2.44879C15.1451 2.72048 14.9999 3.08207 14.9998 3.4582V8.04162C15.0003 8.42827 15.1541 8.79894 15.4275 9.07234C15.7009 9.34575 16.0716 9.49956 16.4582 9.50006H18.7499V1.99976Z" fill="#666666"/>
<path d="M18.7499 14.4998H16.4582C16.0716 14.5003 15.7009 14.6541 15.4275 14.9275C15.1541 15.2009 15.0003 15.5716 14.9998 15.9582V20.5416C15.0003 20.9283 15.1541 21.2989 15.4275 21.5723C15.7009 21.8457 16.0716 21.9996 16.4582 22.0001H18.7499V14.4998Z" fill="#666666"/>
<path d="M8.54165 1.99976H3.95918C3.57253 2.00025 3.20185 2.15407 2.92845 2.42747C2.65505 2.70088 2.50123 3.07155 2.50073 3.4582V8.04162C2.50148 8.4281 2.65541 8.79853 2.92878 9.07173C3.20216 9.34493 3.57269 9.49862 3.95918 9.49912H8.54165C8.92814 9.49862 9.29867 9.34493 9.57205 9.07173C9.84542 8.79853 9.99935 8.4281 10.0001 8.04162V3.4582C9.9996 3.07155 9.84578 2.70088 9.57238 2.42747C9.29897 2.15407 8.9283 2.00025 8.54165 1.99976V1.99976Z" fill="#666666"/>
<path d="M3.95893 21.9991H8.54141C8.92806 21.9986 9.29873 21.8448 9.57213 21.5714C9.84554 21.298 9.99935 20.9273 9.99985 20.5407V15.9582C9.99935 15.5716 9.84554 15.2009 9.57213 14.9275C9.29873 14.6541 8.92806 14.5003 8.54141 14.4998H3.95893C3.57228 14.5003 3.20161 14.6541 2.92821 14.9275C2.6548 15.2009 2.50099 15.5716 2.50049 15.9582V20.5416C2.50124 20.9281 2.65516 21.2985 2.92854 21.5717C3.20192 21.8449 3.57245 21.9986 3.95893 21.9991Z" fill="#666666"/>
<path d="M6.25089 1.99976H3.89704C3.52126 2.01625 3.16634 2.1771 2.90622 2.44879C2.64611 2.72048 2.50086 3.08207 2.50073 3.4582V8.04162C2.50148 8.4281 2.65541 8.79853 2.92878 9.07173C3.20216 9.34493 3.57269 9.49862 3.95918 9.49912H6.25089V1.99976Z" fill="#666666"/>
<path d="M6.25064 14.4998H3.95893C3.57228 14.5003 3.20161 14.6541 2.92821 14.9275C2.6548 15.2009 2.50099 15.5716 2.50049 15.9582V20.5416C2.50099 20.9283 2.6548 21.2989 2.92821 21.5723C3.20161 21.8457 3.57228 21.9996 3.95893 22.0001H6.25064V14.4998Z" fill="#666666"/>
<path d="M15.0006 5.12488H6.25091C6.08511 5.12488 5.92609 5.19075 5.80884 5.30799C5.6916 5.42523 5.62573 5.58425 5.62573 5.75006C5.62573 5.91587 5.6916 6.07489 5.80884 6.19213C5.92609 6.30938 6.08511 6.37524 6.25091 6.37524H15.0006V5.12488Z" fill="white"/>
<path d="M18.7495 17.6238H9.99976V18.8741H18.7495C18.9153 18.8741 19.0743 18.8083 19.1916 18.691C19.3088 18.5738 19.3747 18.4148 19.3747 18.249C19.3747 18.0832 19.3088 17.9241 19.1916 17.8069C19.0743 17.6896 18.9153 17.6238 18.7495 17.6238Z" fill="white"/>
<path d="M12.1525 5.33325H5.90253C5.73672 5.33325 5.5777 5.39912 5.46046 5.51636C5.34321 5.63361 5.27734 5.79263 5.27734 5.95843C5.27734 6.12424 5.34321 6.28326 5.46046 6.4005C5.5777 6.51775 5.73672 6.58362 5.90253 6.58362H12.1534L12.1525 5.33325Z" fill="white"/>
<path d="M12.5005 17.6238H9.99976V18.8741H12.5005V17.6238Z" fill="white"/>
<path d="M5.62573 9.49915V18.2489C5.62573 18.4147 5.6916 18.5737 5.80884 18.6909C5.92609 18.8082 6.08511 18.8741 6.25091 18.8741C6.41672 18.8741 6.57574 18.8082 6.69299 18.6909C6.81023 18.5737 6.8761 18.4147 6.8761 18.2489V9.49915H5.62573Z" fill="white"/>
<path d="M19.3058 14.7082V5.95843C19.3058 5.87633 19.2896 5.79504 19.2582 5.71919C19.2268 5.64334 19.1807 5.57442 19.1227 5.51636C19.0646 5.45831 18.9957 5.41226 18.9198 5.38084C18.844 5.34942 18.7627 5.33325 18.6806 5.33325C18.5985 5.33325 18.5172 5.34942 18.4414 5.38084C18.3655 5.41226 18.2966 5.45831 18.2385 5.51636C18.1805 5.57442 18.1344 5.64334 18.103 5.71919C18.0716 5.79504 18.0554 5.87633 18.0554 5.95843V14.7082H19.3058Z" fill="white"/>
<path d="M6.8761 11.9989H5.62573V18.2488C5.62573 18.4147 5.6916 18.5737 5.80884 18.6909C5.92609 18.8082 6.08511 18.874 6.25091 18.874C6.41672 18.874 6.57574 18.8082 6.69299 18.6909C6.81023 18.5737 6.8761 18.4147 6.8761 18.2488V11.9989Z" fill="white"/>
<path d="M19.3751 11.9988H18.1248V14.4986H19.3751V11.9988Z" fill="white"/>
</svg>
