<svg width="100" height="24" viewBox="0 0 100 24" fill="none" xmlns="http://www.w3.org/2000/svg">
<path d="M0 3C0 1.34531 1.28125 0 2.85714 0H17.1429C18.7188 0 20 1.34531 20 3V21C20 22.6547 18.7188 24 17.1429 24H2.85714C1.28125 24 0 22.6547 0 21V3ZM8.16964 13.0687C6.92411 12.45 6.00893 11.2219 5.77232 9.75H7.51786C7.58929 11.175 7.86161 12.2719 8.16964 13.0687ZM10.0134 13.5H10H9.98661C9.87946 13.3359 9.73214 13.0828 9.58036 12.7266C9.3125 12.0891 9.02679 11.1188 8.94643 9.75H11.0491C10.9688 11.1188 10.6875 12.0891 10.4152 12.7266C10.2634 13.0828 10.1161 13.3359 10.0089 13.5H10.0134ZM11.8304 13.0687C12.1339 12.2672 12.4063 11.175 12.4821 9.75H14.2277C13.9911 11.2219 13.0759 12.45 11.8304 13.0687V13.0687ZM12.4821 8.25C12.4107 6.825 12.1384 5.72812 11.8304 4.93125C13.0759 5.55 13.9911 6.77813 14.2277 8.25H12.4821ZM9.98661 4.5H10H10.0134C10.1205 4.66406 10.2679 4.91719 10.4196 5.27344C10.6875 5.91094 10.9732 6.88125 11.0536 8.25H8.95089C9.03125 6.88125 9.3125 5.91094 9.58482 5.27344C9.73661 4.91719 9.88393 4.66406 9.99107 4.5H9.98661ZM8.16964 4.93125C7.86607 5.73281 7.59375 6.825 7.51786 8.25H5.77232C6.00893 6.77813 6.92411 5.55 8.16964 4.93125ZM15.7143 9C15.7143 5.68594 13.1563 3 10 3C6.84375 3 4.28571 5.68594 4.28571 9C4.28571 12.3141 6.84375 15 10 15C13.1563 15 15.7143 12.3141 15.7143 9ZM5 18C4.60714 18 4.28571 18.3375 4.28571 18.75C4.28571 19.1625 4.60714 19.5 5 19.5H15C15.3929 19.5 15.7143 19.1625 15.7143 18.75C15.7143 18.3375 15.3929 18 15 18H5Z" fill="#666666"/>
<path d="M38.688 10.112C38.688 11.04 38.368 11.8133 37.728 12.432C37.0987 13.04 36.1333 13.344 34.832 13.344H32.688V18H31.232V6.848H34.832C36.0907 6.848 37.0453 7.152 37.696 7.76C38.3573 8.368 38.688 9.152 38.688 10.112ZM34.832 12.144C35.6427 12.144 36.24 11.968 36.624 11.616C37.008 11.264 37.2 10.7627 37.2 10.112C37.2 8.736 36.4107 8.048 34.832 8.048H32.688V12.144H34.832ZM39.9536 13.584C39.9536 12.688 40.135 11.904 40.4976 11.232C40.8603 10.5493 41.3563 10.0213 41.9856 9.648C42.6256 9.27467 43.335 9.088 44.1136 9.088C44.8816 9.088 45.5483 9.25333 46.1136 9.584C46.679 9.91467 47.1003 10.3307 47.3776 10.832V9.232H48.8496V18H47.3776V16.368C47.0896 16.88 46.6576 17.3067 46.0816 17.648C45.5163 17.9787 44.855 18.144 44.0976 18.144C43.319 18.144 42.615 17.952 41.9856 17.568C41.3563 17.184 40.8603 16.6453 40.4976 15.952C40.135 15.2587 39.9536 14.4693 39.9536 13.584ZM47.3776 13.6C47.3776 12.9387 47.2443 12.3627 46.9776 11.872C46.711 11.3813 46.3483 11.008 45.8896 10.752C45.4416 10.4853 44.9456 10.352 44.4016 10.352C43.8576 10.352 43.3616 10.48 42.9136 10.736C42.4656 10.992 42.1083 11.3653 41.8416 11.856C41.575 12.3467 41.4416 12.9227 41.4416 13.584C41.4416 14.256 41.575 14.8427 41.8416 15.344C42.1083 15.8347 42.4656 16.2133 42.9136 16.48C43.3616 16.736 43.8576 16.864 44.4016 16.864C44.9456 16.864 45.4416 16.736 45.8896 16.48C46.3483 16.2133 46.711 15.8347 46.9776 15.344C47.2443 14.8427 47.3776 14.2613 47.3776 13.6ZM54.4141 18.144C53.7421 18.144 53.1395 18.032 52.6061 17.808C52.0728 17.5733 51.6515 17.2533 51.3421 16.848C51.0328 16.432 50.8621 15.9573 50.8301 15.424H52.3341C52.3768 15.8613 52.5795 16.2187 52.9421 16.496C53.3155 16.7733 53.8008 16.912 54.3981 16.912C54.9528 16.912 55.3901 16.7893 55.7101 16.544C56.0301 16.2987 56.1901 15.9893 56.1901 15.616C56.1901 15.232 56.0195 14.9493 55.6781 14.768C55.3368 14.576 54.8088 14.3893 54.0941 14.208C53.4435 14.0373 52.9101 13.8667 52.4941 13.696C52.0888 13.5147 51.7368 13.2533 51.4381 12.912C51.1501 12.56 51.0061 12.1013 51.0061 11.536C51.0061 11.088 51.1395 10.6773 51.4061 10.304C51.6728 9.93067 52.0515 9.63733 52.5421 9.424C53.0328 9.2 53.5928 9.088 54.2221 9.088C55.1928 9.088 55.9768 9.33333 56.5741 9.824C57.1715 10.3147 57.4915 10.9867 57.5341 11.84H56.0781C56.0461 11.3813 55.8595 11.0133 55.5181 10.736C55.1875 10.4587 54.7395 10.32 54.1741 10.32C53.6515 10.32 53.2355 10.432 52.9261 10.656C52.6168 10.88 52.4621 11.1733 52.4621 11.536C52.4621 11.824 52.5528 12.064 52.7341 12.256C52.9261 12.4373 53.1608 12.5867 53.4381 12.704C53.7261 12.8107 54.1208 12.9333 54.6221 13.072C55.2515 13.2427 55.7635 13.4133 56.1581 13.584C56.5528 13.744 56.8888 13.9893 57.1661 14.32C57.4541 14.6507 57.6035 15.0827 57.6141 15.616C57.6141 16.096 57.4808 16.528 57.2141 16.912C56.9475 17.296 56.5688 17.6 56.0781 17.824C55.5981 18.0373 55.0435 18.144 54.4141 18.144ZM62.7735 18.144C62.1015 18.144 61.4988 18.032 60.9655 17.808C60.4322 17.5733 60.0108 17.2533 59.7015 16.848C59.3922 16.432 59.2215 15.9573 59.1895 15.424H60.6935C60.7362 15.8613 60.9388 16.2187 61.3015 16.496C61.6748 16.7733 62.1602 16.912 62.7575 16.912C63.3122 16.912 63.7495 16.7893 64.0695 16.544C64.3895 16.2987 64.5495 15.9893 64.5495 15.616C64.5495 15.232 64.3788 14.9493 64.0375 14.768C63.6962 14.576 63.1682 14.3893 62.4535 14.208C61.8028 14.0373 61.2695 13.8667 60.8535 13.696C60.4482 13.5147 60.0962 13.2533 59.7975 12.912C59.5095 12.56 59.3655 12.1013 59.3655 11.536C59.3655 11.088 59.4988 10.6773 59.7655 10.304C60.0322 9.93067 60.4108 9.63733 60.9015 9.424C61.3922 9.2 61.9522 9.088 62.5815 9.088C63.5522 9.088 64.3362 9.33333 64.9335 9.824C65.5308 10.3147 65.8508 10.9867 65.8935 11.84H64.4375C64.4055 11.3813 64.2188 11.0133 63.8775 10.736C63.5468 10.4587 63.0988 10.32 62.5335 10.32C62.0108 10.32 61.5948 10.432 61.2855 10.656C60.9762 10.88 60.8215 11.1733 60.8215 11.536C60.8215 11.824 60.9122 12.064 61.0935 12.256C61.2855 12.4373 61.5202 12.5867 61.7975 12.704C62.0855 12.8107 62.4802 12.9333 62.9815 13.072C63.6108 13.2427 64.1228 13.4133 64.5175 13.584C64.9122 13.744 65.2482 13.9893 65.5255 14.32C65.8135 14.6507 65.9628 15.0827 65.9735 15.616C65.9735 16.096 65.8402 16.528 65.5735 16.912C65.3068 17.296 64.9282 17.6 64.4375 17.824C63.9575 18.0373 63.4028 18.144 62.7735 18.144ZM69.4849 10.848C69.7729 10.3467 70.1995 9.93067 70.7649 9.6C71.3409 9.25867 72.0075 9.088 72.7649 9.088C73.5435 9.088 74.2475 9.27467 74.8769 9.648C75.5169 10.0213 76.0182 10.5493 76.3809 11.232C76.7435 11.904 76.9249 12.688 76.9249 13.584C76.9249 14.4693 76.7435 15.2587 76.3809 15.952C76.0182 16.6453 75.5169 17.184 74.8769 17.568C74.2475 17.952 73.5435 18.144 72.7649 18.144C72.0182 18.144 71.3569 17.9787 70.7809 17.648C70.2155 17.3067 69.7835 16.8853 69.4849 16.384V22.16H68.0289V9.232H69.4849V10.848ZM75.4369 13.584C75.4369 12.9227 75.3035 12.3467 75.0369 11.856C74.7702 11.3653 74.4075 10.992 73.9489 10.736C73.5009 10.48 73.0049 10.352 72.4609 10.352C71.9275 10.352 71.4315 10.4853 70.9729 10.752C70.5249 11.008 70.1622 11.3867 69.8849 11.888C69.6182 12.3787 69.4849 12.9493 69.4849 13.6C69.4849 14.2613 69.6182 14.8427 69.8849 15.344C70.1622 15.8347 70.5249 16.2133 70.9729 16.48C71.4315 16.736 71.9275 16.864 72.4609 16.864C73.0049 16.864 73.5009 16.736 73.9489 16.48C74.4075 16.2133 74.7702 15.8347 75.0369 15.344C75.3035 14.8427 75.4369 14.256 75.4369 13.584ZM82.6654 18.144C81.844 18.144 81.0974 17.9573 80.4254 17.584C79.764 17.2107 79.2414 16.6827 78.8574 16C78.484 15.3067 78.2974 14.5067 78.2974 13.6C78.2974 12.704 78.4894 11.9147 78.8734 11.232C79.268 10.5387 79.8014 10.0107 80.4734 9.648C81.1454 9.27467 81.8974 9.088 82.7294 9.088C83.5614 9.088 84.3134 9.27467 84.9854 9.648C85.6574 10.0107 86.1854 10.5333 86.5694 11.216C86.964 11.8987 87.1614 12.6933 87.1614 13.6C87.1614 14.5067 86.9587 15.3067 86.5534 16C86.1587 16.6827 85.62 17.2107 84.9374 17.584C84.2547 17.9573 83.4974 18.144 82.6654 18.144ZM82.6654 16.864C83.188 16.864 83.6787 16.7413 84.1374 16.496C84.596 16.2507 84.964 15.8827 85.2414 15.392C85.5294 14.9013 85.6734 14.304 85.6734 13.6C85.6734 12.896 85.5347 12.2987 85.2574 11.808C84.98 11.3173 84.6174 10.9547 84.1694 10.72C83.7214 10.4747 83.236 10.352 82.7134 10.352C82.18 10.352 81.6894 10.4747 81.2414 10.72C80.804 10.9547 80.452 11.3173 80.1854 11.808C79.9187 12.2987 79.7854 12.896 79.7854 13.6C79.7854 14.3147 79.9134 14.9173 80.1694 15.408C80.436 15.8987 80.788 16.2667 81.2254 16.512C81.6627 16.7467 82.1427 16.864 82.6654 16.864ZM90.5318 10.656C90.7878 10.1547 91.1504 9.76533 91.6198 9.488C92.0998 9.21067 92.6811 9.072 93.3638 9.072V10.576H92.9798C91.3478 10.576 90.5318 11.4613 90.5318 13.232V18H89.0758V9.232H90.5318V10.656ZM96.8205 10.432V15.6C96.8205 16.0267 96.9112 16.3307 97.0925 16.512C97.2738 16.6827 97.5885 16.768 98.0365 16.768H99.1085V18H97.7965C96.9858 18 96.3778 17.8133 95.9725 17.44C95.5672 17.0667 95.3645 16.4533 95.3645 15.6V10.432H94.2285V9.232H95.3645V7.024H96.8205V9.232H99.1085V10.432H96.8205Z" fill="#989898"/>
</svg>
