<svg width="20" height="24" viewBox="0 0 20 24" fill="none" xmlns="http://www.w3.org/2000/svg">
<path d="M0 3C0 1.34531 1.28125 0 2.85714 0H17.1429C18.7188 0 20 1.34531 20 3V21C20 22.6547 18.7188 24 17.1429 24H2.85714C1.28125 24 0 22.6547 0 21V3ZM8.16964 13.0687C6.92411 12.45 6.00893 11.2219 5.77232 9.75H7.51786C7.58929 11.175 7.86161 12.2719 8.16964 13.0687ZM10.0134 13.5H10H9.98661C9.87946 13.3359 9.73214 13.0828 9.58036 12.7266C9.3125 12.0891 9.02679 11.1187 8.94643 9.75H11.0491C10.9688 11.1187 10.6875 12.0891 10.4152 12.7266C10.2634 13.0828 10.1161 13.3359 10.0089 13.5H10.0134ZM11.8304 13.0687C12.1339 12.2672 12.4063 11.175 12.4821 9.75H14.2277C13.9911 11.2219 13.0759 12.45 11.8304 13.0687ZM12.4821 8.25C12.4107 6.825 12.1384 5.72812 11.8304 4.93125C13.0759 5.55 13.9911 6.77812 14.2277 8.25H12.4821ZM9.98661 4.5H10H10.0134C10.1205 4.66406 10.2679 4.91719 10.4196 5.27344C10.6875 5.91094 10.9732 6.88125 11.0536 8.25H8.95089C9.03125 6.88125 9.3125 5.91094 9.58482 5.27344C9.73661 4.91719 9.88393 4.66406 9.99107 4.5H9.98661ZM8.16964 4.93125C7.86607 5.73281 7.59375 6.825 7.51786 8.25H5.77232C6.00893 6.77812 6.92411 5.55 8.16964 4.93125ZM15.7143 9C15.7143 5.68594 13.1562 3 10 3C6.84375 3 4.28571 5.68594 4.28571 9C4.28571 12.3141 6.84375 15 10 15C13.1562 15 15.7143 12.3141 15.7143 9ZM5 18C4.60714 18 4.28571 18.3375 4.28571 18.75C4.28571 19.1625 4.60714 19.5 5 19.5H15C15.3929 19.5 15.7143 19.1625 15.7143 18.75C15.7143 18.3375 15.3929 18 15 18H5Z" fill="#666666"/>
</svg>
