<svg width="276" height="275" viewBox="0 0 276 275" fill="none" xmlns="http://www.w3.org/2000/svg">
<path d="M131.58 0.118347C99.7655 1.64635 69.4556 14.1136 45.779 35.4105C43.636 37.336 38.535 42.3998 36.655 44.4512C16.3536 66.6162 3.84447 94.7992 1.02792 124.719C0.602361 128.906 0.426084 133.115 0.500038 137.323C0.428712 141.57 0.604977 145.817 1.02792 150.043C3.53738 177.351 14.138 203.29 31.4744 224.544C50.3257 247.521 76.0852 263.811 104.931 270.997C121.988 275.2 139.691 276.106 157.089 273.667C184.27 269.869 209.697 258.043 230.11 239.704C232.472 237.595 238.03 232.039 240.14 229.678C250.815 217.789 259.366 204.154 265.417 189.367C270.509 176.836 273.73 163.625 274.978 150.157C275.4 145.951 275.576 141.722 275.506 137.495C275.576 133.268 275.4 129.041 274.978 124.835C274.178 116.145 272.551 107.55 270.118 99.1686C269.212 96.0063 268.96 95.4325 268.306 95.0548C268.033 94.8771 267.725 94.7586 267.403 94.7072C267.081 94.6559 266.752 94.6726 266.437 94.7565C264.129 95.974 262.126 97.6977 260.579 99.7983C259.417 101.518 258.638 103.466 258.294 105.512C257.95 107.558 258.049 109.654 258.584 111.659C260.162 120.223 260.827 128.93 260.568 137.634C260.395 142.241 260.212 144.601 259.73 148.558C257.479 167.164 250.95 184.997 240.653 200.659C225.83 223.222 203.79 240.091 178.134 248.51C168.463 251.665 158.427 253.564 148.272 254.16C145.637 254.331 137.9 254.331 135.148 254.16C129.583 253.832 124.048 253.115 118.583 252.016C94.0646 247.09 71.8239 234.3 55.2382 215.589C39.3368 197.673 29.5665 175.155 27.3477 151.307C27.0247 147.956 26.8794 144.591 26.9124 141.224C26.8618 135.034 27.3682 128.852 28.4257 122.752C31.8051 102.519 40.8146 83.6449 54.4232 68.2903C56.5217 65.9075 61.4967 60.9457 63.9027 58.8369C80.6434 44.0747 101.588 34.9226 123.797 32.665C130.658 31.9874 137.567 31.9682 144.431 32.6076C155.166 33.6349 165.677 36.3206 175.589 40.5689C178.32 41.8708 181.274 42.6408 184.294 42.8384C189.786 43.1986 195.225 41.5852 199.632 38.2894C202.827 35.8076 205.599 32.8245 207.839 29.4562C209.615 26.7975 209.96 25.8351 209.856 23.83C209.858 22.5705 209.461 21.3428 208.721 20.3233C207.795 18.9365 206.967 18.3756 201.775 15.6355C185.15 6.94614 166.926 1.74105 148.219 0.338929C142.68 -0.0158366 137.127 -0.0896321 131.58 0.118347Z" fill="#F8EEF8"/>
</svg>
