<svg width="22" height="21" viewBox="0 0 22 21" fill="none" xmlns="http://www.w3.org/2000/svg">
<path d="M15.5467 0.5C19.07 0.5 21.418 2.92887 21.418 6.41408V14.5849C21.418 18.0703 19.0698 20.5 15.5467 20.5H6.57381C3.05233 20.5 0.712891 18.0722 0.712891 14.5849V6.41408C0.712891 2.93059 3.05916 0.5 6.57381 0.5H15.5467ZM15.5467 2.00383H6.57381C3.94357 2.00383 2.26889 3.7387 2.26889 6.41408V14.5849C2.26889 17.2647 3.9374 18.9962 6.57381 18.9962H15.5467C18.1858 18.9962 19.862 17.2618 19.862 14.5849V6.41408C19.862 3.73744 18.1861 2.00383 15.5467 2.00383ZM16.284 10.6835L16.419 10.8086L18.5725 12.9561C18.8715 13.2543 18.8638 13.7303 18.5553 14.0193C18.2748 14.2821 17.8422 14.2998 17.5412 14.0768L17.4551 14.0027L15.3017 11.8553C14.9266 11.4814 14.3167 11.4779 13.936 11.8269L13.8524 11.9137L11.5405 14.6312C10.7228 15.5939 9.25146 15.6971 8.2995 14.8903L8.17302 14.7747L7.25039 13.8648C7.00804 13.6217 6.62155 13.5987 6.35241 13.7949L6.2674 13.8684L4.68132 15.4855C4.38572 15.7869 3.89329 15.7996 3.58146 15.5139C3.29797 15.2542 3.26131 14.8372 3.47908 14.5372L3.55205 14.4509L5.1378 12.8341C5.97261 11.9819 7.34735 11.9365 8.23664 12.6967L8.36626 12.8167L9.28423 13.722C9.55257 13.9865 9.98266 13.9933 10.26 13.7553L10.3383 13.6766L12.6503 10.9589C13.5689 9.87823 15.223 9.76886 16.284 10.6835ZM7.51726 5.14124C8.95108 5.14124 10.1147 6.26589 10.1147 7.65164C10.1147 9.03738 8.95108 10.162 7.51726 10.162C6.08351 10.162 4.92082 9.03744 4.92082 7.65164C4.92082 6.26583 6.08351 5.14124 7.51726 5.14124ZM7.51726 6.64507C6.94314 6.64507 6.47682 7.09611 6.47682 7.65164C6.47682 8.20716 6.94314 8.6582 7.51726 8.6582C8.09172 8.6582 8.55874 8.20684 8.55874 7.65164C8.55874 7.09643 8.09172 6.64507 7.51726 6.64507Z" fill="white"/>
</svg>
