<svg width="26" height="24" viewBox="0 0 26 24" fill="none" xmlns="http://www.w3.org/2000/svg">
<path d="M12.8296 2C18.7343 2 23.5211 6.47716 23.5211 12C23.5211 17.5228 18.7343 22 12.8296 22C6.92491 22 2.13818 17.5228 2.13818 12C2.13818 6.47716 6.92491 2 12.8296 2ZM12.8296 3.39535C7.74882 3.39535 3.63001 7.24779 3.63001 12C3.63001 16.7522 7.74882 20.6047 12.8296 20.6047C17.9104 20.6047 22.0292 16.7522 22.0292 12C22.0292 7.24779 17.9104 3.39535 12.8296 3.39535ZM11.5118 8.04465L11.6231 8.05454C11.8241 8.08299 12.096 8.16839 12.337 8.2575C13.4331 8.65585 15.5789 10.0036 16.399 10.8211L16.638 11.0598L16.7232 11.152C16.8976 11.3587 16.9889 11.612 16.9889 11.8715C16.9889 12.1158 16.9071 12.357 16.75 12.5567C16.7079 12.6104 16.6583 12.6617 16.5479 12.772L16.2595 13.0528C15.391 13.8463 13.5114 15.0232 12.4441 15.4432C12.1477 15.5596 11.7216 15.6921 11.5187 15.6963C11.043 15.7104 10.5954 15.4649 10.3754 15.0673C10.3178 14.9626 10.2458 14.7142 10.1916 14.4811L10.1372 14.2189C10.0379 13.6482 9.98423 12.7822 9.98524 11.8723L9.98676 11.5838C9.99658 10.7263 10.0545 9.94479 10.1542 9.43665C10.1938 9.22989 10.2821 8.87387 10.3331 8.75855C10.4441 8.50941 10.6443 8.30819 10.8922 8.18402C11.0838 8.08735 11.3012 8.03789 11.5118 8.04465ZM11.66 9.51163L11.632 9.63757L11.5957 9.83642C11.5201 10.319 11.4762 11.0688 11.4771 11.8723L11.4786 12.151C11.4875 12.8877 11.5348 13.5646 11.6092 13.9922L11.661 14.227L11.8662 14.1568C12.8106 13.7852 14.6849 12.5965 15.3197 11.9564L15.4055 11.8698L15.1789 11.6515C14.4178 10.9698 12.6336 9.86225 11.7928 9.55667L11.66 9.51163Z" fill="#6374A0"/>
</svg>
