<svg width="25" height="25" viewBox="0 0 25 25" fill="none" xmlns="http://www.w3.org/2000/svg">
<path d="M20.8999 15.75H12.8999C10.9699 15.75 9.39987 17.32 9.39987 19.25C9.39987 21.18 10.9699 22.75 12.8999 22.75H20.8999C22.8299 22.75 24.3999 21.18 24.3999 19.25C24.3999 17.32 22.8299 15.75 20.8999 15.75ZM11.3999 19.25C11.3999 18.423 12.0729 17.75 12.8999 17.75H14.3999V20.75H12.8999C12.0729 20.75 11.3999 20.077 11.3999 19.25ZM20.8999 20.75H16.3999V17.75H20.8999C21.7269 17.75 22.3999 18.423 22.3999 19.25C22.3999 20.077 21.7269 20.75 20.8999 20.75ZM12.8999 9.75H20.8999C22.8299 9.75 24.3999 8.18 24.3999 6.25C24.3999 4.32 22.8299 2.75 20.8999 2.75H12.8999C10.9699 2.75 9.39987 4.32 9.39987 6.25C9.39987 8.18 10.9699 9.75 12.8999 9.75ZM22.3999 6.25C22.3999 7.077 21.7269 7.75 20.8999 7.75H19.3999V4.75H20.8999C21.7269 4.75 22.3999 5.423 22.3999 6.25ZM12.8999 4.75H17.3999V7.75H12.8999C12.0729 7.75 11.3999 7.077 11.3999 6.25C11.3999 5.423 12.0729 4.75 12.8999 4.75ZM4.39987 6.75C6.05387 6.75 7.39987 5.404 7.39987 3.75C7.39987 2.096 6.05387 0.75 4.39987 0.75C2.74587 0.75 1.39987 2.096 1.39987 3.75C1.39987 5.404 2.74587 6.75 4.39987 6.75ZM8.33686 10.399C8.53086 10.916 8.26887 11.492 7.75187 11.686C7.63587 11.729 7.51787 11.749 7.40087 11.749C6.99586 11.749 6.61487 11.502 6.46387 11.1C6.16087 10.292 5.33187 9.749 4.40087 9.749C3.46987 9.749 2.63987 10.292 2.33787 11.1C2.14487 11.619 1.56687 11.879 1.04987 11.686C0.532865 11.492 0.270865 10.915 0.464865 10.399C1.05887 8.814 2.64086 7.75 4.40187 7.75C6.16287 7.75 7.74487 8.814 8.33887 10.399H8.33686ZM7.39987 16.75C7.39987 15.096 6.05387 13.75 4.39987 13.75C2.74587 13.75 1.39987 15.096 1.39987 16.75C1.39987 18.404 2.74587 19.75 4.39987 19.75C6.05387 19.75 7.39987 18.404 7.39987 16.75ZM8.33686 23.399C8.53086 23.916 8.26887 24.492 7.75187 24.686C7.63587 24.729 7.51787 24.749 7.40087 24.749C6.99586 24.749 6.61487 24.502 6.46387 24.1C6.16087 23.292 5.33187 22.749 4.40087 22.749C3.46987 22.749 2.63987 23.292 2.33787 24.1C2.14487 24.619 1.56687 24.879 1.04987 24.686C0.532865 24.492 0.270865 23.915 0.464865 23.399C1.05887 21.814 2.64086 20.75 4.40187 20.75C6.16287 20.75 7.74487 21.814 8.33887 23.399H8.33686Z" fill="white"/>
</svg>
