<svg width="20" height="20" viewBox="0 0 20 20" fill="none" xmlns="http://www.w3.org/2000/svg">
<path d="M19.7048 2.59142L19.6682 2.73239L15.0231 18.3719C14.562 19.9229 12.5398 20.2328 11.6265 18.9533L11.539 18.82L7.64322 12.366L1.16768 8.38011C-0.208786 7.53273 0.0166965 5.48599 1.48628 4.93292L1.63738 4.88269L17.2939 0.326955C18.7092 -0.0826419 20.0164 1.18576 19.7048 2.59142ZM17.7849 1.75311L17.712 1.76752L2.05598 6.3231C1.73008 6.41769 1.65003 6.8364 1.88786 7.05306L1.95398 7.10271L8.07822 10.872L13.3235 5.5925C13.5889 5.32535 14.0055 5.29976 14.2998 5.51664L14.3842 5.58897C14.6513 5.85435 14.6769 6.27093 14.4601 6.56527L14.3877 6.64963L9.13522 11.936L12.8232 18.045C12.9988 18.3359 13.4096 18.3068 13.5547 18.0213L13.5852 17.9446L18.2305 2.30461C18.3204 2.003 18.0737 1.7221 17.7849 1.75311Z" fill="#AC9FAD"/>
</svg>
