<svg width="26" height="28" viewBox="0 0 26 28" fill="none" xmlns="http://www.w3.org/2000/svg">
<path d="M12.0275 23.8909C17.8404 23.8909 22.5515 20.0636 22.5515 15.3402C22.5515 10.6167 17.8404 6.78949 12.0275 6.78949C6.2147 6.78949 1.5036 10.6167 1.5036 15.3402C1.5036 17.1942 2.23123 18.9085 3.46451 20.3103C3.3864 21.3174 2.99586 22.2136 2.58477 22.896C2.35867 23.2742 2.12846 23.5784 1.95991 23.784C1.87358 23.8868 1.80781 23.9649 1.75848 24.0183C1.73381 24.043 1.71737 24.0635 1.70504 24.0759L1.6927 24.0882C1.5036 24.2773 1.45016 24.5568 1.55293 24.8035C1.6557 25.0501 1.89414 25.2105 2.16135 25.2105C3.34118 25.2105 4.52923 24.8446 5.51585 24.4171C6.45725 24.006 7.25888 23.5168 7.74807 23.1591C9.05534 23.6319 10.5024 23.895 12.0275 23.895V23.8909ZM6.76557 16.6557C6.03794 16.6557 5.45008 16.0678 5.45008 15.3402C5.45008 14.6126 6.03794 14.0247 6.76557 14.0247C7.4932 14.0247 8.08106 14.6126 8.08106 15.3402C8.08106 16.0678 7.4932 16.6557 6.76557 16.6557ZM12.0275 16.6557C11.2999 16.6557 10.712 16.0678 10.712 15.3402C10.712 14.6126 11.2999 14.0247 12.0275 14.0247C12.7552 14.0247 13.343 14.6126 13.343 15.3402C13.343 16.0678 12.7552 16.6557 12.0275 16.6557ZM18.605 15.3402C18.605 16.0678 18.0171 16.6557 17.2895 16.6557C16.5619 16.6557 15.974 16.0678 15.974 15.3402C15.974 14.6126 16.5619 14.0247 17.2895 14.0247C18.0171 14.0247 18.605 14.6126 18.605 15.3402Z" fill="#CABBCB"/>
<rect x="13.5264" y="0.5" width="11.421" height="11.421" rx="5.71051" fill="#FF0000" stroke="white"/>
<path d="M19.5888 5.122C19.5008 4.678 19.2268 4.456 18.7668 4.456C18.4108 4.456 18.1448 4.594 17.9688 4.87C17.7928 5.142 17.7068 5.592 17.7108 6.22C17.8028 6.012 17.9548 5.85 18.1668 5.734C18.3828 5.614 18.6228 5.554 18.8868 5.554C19.2988 5.554 19.6268 5.682 19.8708 5.938C20.1188 6.194 20.2428 6.548 20.2428 7C20.2428 7.272 20.1888 7.516 20.0808 7.732C19.9768 7.948 19.8168 8.12 19.6008 8.248C19.3888 8.376 19.1308 8.44 18.8268 8.44C18.4148 8.44 18.0928 8.348 17.8608 8.164C17.6288 7.98 17.4668 7.726 17.3748 7.402C17.2828 7.078 17.2368 6.678 17.2368 6.202C17.2368 4.734 17.7488 4 18.7728 4C19.1648 4 19.4728 4.106 19.6968 4.318C19.9208 4.53 20.0528 4.798 20.0928 5.122H19.5888ZM18.7728 6.016C18.6008 6.016 18.4388 6.052 18.2868 6.124C18.1348 6.192 18.0108 6.298 17.9148 6.442C17.8228 6.582 17.7768 6.754 17.7768 6.958C17.7768 7.262 17.8648 7.51 18.0408 7.702C18.2168 7.89 18.4688 7.984 18.7968 7.984C19.0768 7.984 19.2988 7.898 19.4628 7.726C19.6308 7.55 19.7148 7.314 19.7148 7.018C19.7148 6.706 19.6348 6.462 19.4748 6.286C19.3148 6.106 19.0808 6.016 18.7728 6.016Z" fill="white"/>
</svg>
