<svg width="28" height="29" viewBox="0 0 28 29" fill="none" xmlns="http://www.w3.org/2000/svg">
<path fill-rule="evenodd" clip-rule="evenodd" d="M23.147 21.7253C23.147 25.5706 17.8737 26.0151 13.9082 26.0151L13.6244 26.0149C11.0979 26.0088 4.66699 25.8492 4.66699 21.702C4.66699 17.9351 9.7284 17.4317 13.6637 17.4127L14.1919 17.4124C16.7182 17.4185 23.147 17.578 23.147 21.7253ZM13.9082 19.1621C8.93699 19.1621 6.41699 20.0161 6.41699 21.702C6.41699 23.403 8.93699 24.2651 13.9082 24.2651C18.8782 24.2651 21.397 23.4111 21.397 21.7253C21.397 20.0243 18.8782 19.1621 13.9082 19.1621ZM13.9082 2.83301C17.3242 2.83301 20.102 5.61201 20.102 9.02801C20.102 12.444 17.3242 15.2218 13.9082 15.2218H13.8708C10.4618 15.2113 7.70033 12.4312 7.71196 9.02451C7.71196 5.61201 10.491 2.83301 13.9082 2.83301ZM13.9082 4.49901C11.4103 4.49901 9.37797 6.53017 9.37797 9.02801C9.36983 11.5177 11.387 13.5477 13.8743 13.557L13.9082 14.39V13.557C16.4048 13.557 18.436 11.5247 18.436 9.02801C18.436 6.53017 16.4048 4.49901 13.9082 4.49901Z" fill="#CABBCB"/>
</svg>
