<svg width="300" height="443" viewBox="0 0 300 443" fill="none" xmlns="http://www.w3.org/2000/svg">
<path d="M34.8494 442.934C35.1264 442.195 34.5723 441.086 35.9576 440.994C37.8971 441.825 39.9289 441.364 41.8683 441.364C114.552 441.364 187.235 441.364 259.918 441.364C261.857 441.364 263.889 440.994 265.829 441.733C265.829 442.102 265.921 442.472 265.921 442.841C188.897 442.934 111.873 442.934 34.8494 442.934Z" fill="#303030"/>
<path d="M300 149.615C296.583 156.726 293.35 164.022 287.532 169.748C283.099 174.089 278.296 177.968 272.016 180.461C272.201 178.152 273.586 178.06 274.51 177.506C285.87 171.041 293.627 161.621 297.783 149.245C298.153 148.045 297.968 146.382 300 146.659C300 147.675 300 148.691 300 149.615Z" fill="#282828"/>
<path d="M117.876 235.874C118.338 232.919 118.8 229.963 119.262 227.008C121.386 225.9 123.048 227.562 124.803 228.024C127.574 228.763 130.252 229.132 133.115 227.932C134.962 227.193 136.624 226.362 136.624 224.237C136.717 222.113 135.054 221.005 133.392 220.174C131.452 219.158 129.236 218.973 127.204 218.419C124.433 217.865 122.032 216.387 119.354 215.741C116.676 213.432 114.459 210.754 113.351 207.244C112.797 200.872 114.367 195.33 120.093 191.729C122.494 190.251 120.832 188.496 120.832 186.834C119.631 182.77 122.771 182.955 125.172 182.308C128.128 181.385 130.437 181.57 131.083 185.356C131.637 188.588 134.408 188.496 136.901 188.958C138.748 189.327 141.427 189.512 141.519 192.006C141.611 194.592 141.242 197.362 139.949 199.671C139.303 200.964 137.917 200.318 136.717 200.04C134.131 199.486 131.545 198.84 128.866 199.486C127.204 199.948 125.542 200.779 125.357 202.626C125.08 204.566 126.835 205.582 128.312 206.228C130.344 207.059 132.468 207.337 134.592 207.891C139.487 209.184 144.013 211.215 146.783 215.833C147.245 217.126 147.707 218.511 148.169 219.804C149.739 226.454 147.43 231.718 142.258 235.597C140.226 237.167 139.949 238.552 140.503 240.584C141.427 243.817 139.764 245.387 136.901 245.756C134.315 246.126 130.991 247.696 130.529 242.985C130.252 239.938 128.497 239.476 125.819 239.199C122.863 239.107 119.539 239.107 117.876 235.874Z" fill="#7C167D"/>
<path d="M265.829 441.825C224.546 441.825 183.263 441.918 141.889 441.918C108.271 441.918 74.5619 441.918 40.9447 441.918C39.2824 441.918 37.2506 442.841 35.8652 441.087C95.9882 441.087 156.111 440.994 216.326 440.994C231.288 440.994 246.342 440.994 261.303 441.087C262.781 440.994 264.628 439.978 265.829 441.825Z" fill="#303030"/>
<path d="M263.335 308.096C263.335 278.45 263.335 248.896 263.335 219.25C263.612 219.25 263.889 219.25 264.259 219.25C264.259 248.896 264.259 278.45 264.259 308.096C263.889 308.003 263.612 308.096 263.335 308.096Z" fill="#181818"/>
<path d="M141.15 71.2978C136.44 54.4892 125.911 43.8684 108.456 41.0978C91.2782 38.4195 75.1161 47.3779 67.6353 63.2629C66.9889 64.6482 66.3424 65.9412 65.6959 67.3265C64.7724 67.5112 64.2182 67.3265 64.7724 66.2183C69.8519 49.3173 86.5681 38.1424 105.408 38.9736C122.586 39.7124 138.379 52.7345 141.889 69.1736C142.35 70.0972 142.904 71.1131 141.15 71.2978Z" fill="#1E1E1E"/>
<path d="M295.29 142.596C295.475 148.506 293.073 153.678 290.026 158.573C282.545 170.487 271.739 177.691 257.794 179.722C254.839 180.184 253.915 181.292 253.269 183.878C251.237 191.821 249.113 199.671 246.988 207.521C246.711 208.445 246.711 209.461 245.234 210.015C244.957 206.136 246.619 202.903 247.45 199.486C248.466 195.146 249.482 190.713 250.96 186.464C252.345 182.493 252.899 179.445 246.619 179.445C271.924 178.706 288.179 166.885 295.29 142.596Z" fill="#1D1D1D"/>
<path d="M224.823 175.474C225.747 172.611 223.715 171.41 221.868 169.84C201.827 152.939 199.333 123.663 216.234 104.084C217.435 102.698 218.451 101.221 219.744 99.5583C221.314 102.329 219.651 102.975 218.913 103.807C200.903 123.571 203.028 152.662 223.992 169.286C227.132 171.78 227.317 173.812 225.747 176.767C224.823 176.859 224.361 176.582 224.823 175.474Z" fill="#212121"/>
<path d="M146.783 215.925C142.073 211.123 136.163 208.814 129.698 207.614C127.112 207.152 123.972 206.044 124.434 202.626C124.895 199.117 128.035 198.655 130.991 198.563C132.653 198.563 134.5 198.378 135.886 199.025C139.303 200.595 139.395 198.84 140.226 196.162C141.796 191.359 139.857 189.604 135.516 189.512C132.284 189.42 130.252 188.496 130.067 184.802C129.882 181.015 126.835 183.324 125.08 182.862C124.064 183.14 122.956 183.694 122.864 181.847C124.341 181.57 125.819 181.292 127.204 180.923C130.067 180.092 131.822 180.831 131.73 184.063C131.637 186.926 133.023 187.573 135.608 187.85C138.102 188.127 142.073 188.219 142.443 190.62C142.997 194.037 141.612 197.824 140.688 201.333C140.226 202.903 138.656 201.703 137.733 201.333C135.147 200.502 132.653 199.579 129.975 200.133C128.405 200.502 126.373 200.502 126.096 202.534C125.819 204.751 127.851 205.12 129.421 205.582C132.284 206.505 135.331 206.875 138.01 207.983C141.796 209.645 145.86 211.031 146.783 215.925Z" fill="#1D140E"/>
<path d="M294.182 124.494C286.609 99.189 269.061 88.5682 242.74 90.1382C243.756 88.2911 244.864 88.3835 245.88 88.4759C249.205 89.03 252.53 89.03 255.854 88.4759C275.157 90.6924 291.226 104.546 295.013 122.185C295.382 123.201 296.029 124.402 294.182 124.494Z" fill="#282828"/>
<path d="M221.129 303.755C220.206 307.449 219.559 311.236 218.358 314.837C215.773 322.595 208.292 326.474 200.534 324.535C192.869 322.595 188.251 315.576 189.636 307.449C190.19 304.309 191.206 301.354 191.945 298.306C192.961 298.214 193.423 298.583 192.961 299.599C192.407 302 191.853 304.494 191.298 306.895C189.728 314.099 193.792 320.933 200.626 322.872C207.461 324.812 214.572 320.84 216.788 313.822C217.989 310.035 218.913 306.156 220.021 302.277C221.221 302.277 221.406 302.831 221.129 303.755Z" fill="#1F1F1F"/>
<path d="M46.0243 256.746C47.3173 263.119 48.6103 269.491 49.8109 275.771C51.4733 284.73 58.2152 289.44 67.1736 287.87C70.9601 287.223 74.7467 286.577 78.4409 285.746C79.6415 285.469 80.6574 285.376 81.6733 286.854C76.0397 287.87 70.4984 289.163 64.8647 289.902C57.661 290.918 50.2727 285.653 48.5179 278.173C46.9479 271.523 46.0243 264.781 44.8237 258.039C45.2855 257.67 45.3779 256.931 46.0243 256.746Z" fill="#242424"/>
<path d="M64.7724 66.2185C65.0494 66.5879 65.4189 66.9573 65.6959 67.3268C61.9094 78.8711 65.2341 90.1384 67.2659 101.406C68.5589 108.609 69.7595 115.813 70.9601 123.109C70.9601 124.125 71.976 125.418 69.9442 125.603C67.543 112.858 65.1418 100.113 62.8329 87.3678C61.6323 80.0717 61.817 73.0528 64.7724 66.2185Z" fill="#232323"/>
<path d="M29.8622 272.354C31.3398 272.262 32.8175 271.985 34.2952 271.985C36.1423 271.985 37.3429 273.001 38.0817 274.756C38.9129 276.695 38.4512 278.357 37.0658 279.743C36.5117 280.297 35.8652 280.943 35.1264 281.22C29.2157 283.991 27.5533 288.516 29.2157 294.704C29.9545 297.29 29.4928 299.876 26.7221 301.077C23.6744 302.37 21.8273 300.43 20.0726 298.121C17.7637 295.166 16.5631 290.548 11.2989 291.379C10.0982 291.656 8.80528 292.211 7.69702 290.918C11.1141 288.147 15.5472 288.332 18.5949 291.195C20.719 293.134 21.8273 297.937 24.7827 296.828C28.6616 295.443 25.2444 291.287 25.5215 288.332C25.9833 283.991 28.9386 282.052 31.894 279.927C33.9258 278.45 36.6041 276.787 32.4481 274.571C31.3398 274.109 29.8622 274.109 29.8622 272.354Z" fill="#3B3642"/>
<path d="M78.9027 160.79C96.2654 157.557 113.628 154.51 130.898 151.093C132.93 150.723 134.223 152.201 135.978 151.647C126.004 154.417 115.66 155.618 105.501 157.65C97.3737 159.22 89.2464 160.42 81.1192 161.806C80.011 162.175 78.9027 162.729 78.9027 160.79Z" fill="#222222"/>
<path d="M117.876 235.874C119.908 237.075 122.032 237.998 124.341 238.275C128.035 238.552 131.268 238.645 131.637 244.001C131.914 247.511 135.147 244.648 136.994 244.925C138.749 245.202 140.596 244.186 139.765 241.97C138.194 237.814 140.411 235.782 143.366 233.473C147.799 230.056 147.707 224.792 148.169 219.804C150.57 224.607 149.277 230.702 144.475 234.766C141.981 236.89 140.319 238.645 141.704 242.154C142.628 244.556 141.981 246.218 138.841 246.218C137.179 246.218 135.516 246.68 133.946 247.049C131.453 247.696 129.698 247.419 129.79 244.278C129.883 241.138 128.22 239.938 125.172 240.03C122.679 240.123 120.37 239.014 118.061 237.906C116.953 237.537 116.491 236.798 117.876 235.874Z" fill="#1F1611"/>
<path d="M169.133 69.2662C166.27 52.8271 158.42 39.0662 145.952 28.076C145.768 27.2448 145.952 26.783 146.968 27.1524C159.528 37.5885 167.471 50.7029 170.057 66.9573C170.242 67.9732 170.98 69.1739 169.133 69.2662Z" fill="#242424"/>
<path d="M81.7656 15.8852C67.5429 20.8723 56.1833 29.7384 46.8555 41.3751C54.8903 28.5378 65.8806 19.487 80.3803 14.8693C81.3962 14.4998 81.8579 14.8693 81.7656 15.8852Z" fill="#272727"/>
<path d="M71.5143 304.309C71.5143 316.685 71.5143 328.968 71.5143 341.436C69.5749 339.034 68.9284 310.312 71.5143 304.309Z" fill="#323232"/>
<path d="M195.916 115.444C191.575 110.549 186.127 111.749 180.77 112.765C178.553 113.135 178.923 114.52 179.2 116.09C179.754 119.507 180.308 122.924 180.77 126.341C179.939 126.157 179.2 125.972 179.015 124.956C177.907 118.214 176.799 111.472 175.69 104.823C175.506 103.899 174.767 102.606 176.614 102.514C176.706 102.791 176.799 103.16 176.891 103.437C178.276 110.918 178.276 110.918 185.942 110.272C190.282 109.902 194.161 110.641 196.932 114.428C197.394 115.536 196.84 115.721 195.916 115.444Z" fill="#1E1E1E"/>
<path d="M232.766 255.546C235.352 243.817 238.492 232.272 242.001 220.82C242.463 220.913 243.017 221.097 243.479 221.19C240.246 233.196 237.014 245.11 233.874 257.116C232.581 257.116 232.489 256.377 232.766 255.546Z" fill="#252525"/>
<path d="M176.706 102.514C176.429 103.253 176.06 104.084 175.783 104.823C173.012 93.0937 171.165 81.1799 169.133 69.2661C169.41 68.5273 169.78 67.6961 170.057 66.9573C172.827 78.6863 174.675 90.6001 176.706 102.514Z" fill="#292929"/>
<path d="M204.782 250.836C207.922 238.922 210.97 226.916 214.11 215.002C215.957 215.094 215.311 216.203 215.034 217.218C211.986 228.855 208.938 240.492 205.798 252.129C204.875 252.221 204.321 251.944 204.782 250.836Z" fill="#212121"/>
<path d="M29.8623 272.354C30.7859 273.37 32.0788 273.093 33.1871 273.37C29.6776 276.418 23.2128 276.325 19.888 273.185C19.0568 272.354 18.5027 271.338 17.6715 270.507C16.3785 269.122 15.6397 266.351 13.4232 267.09C11.2066 267.829 12.4996 270.6 12.1302 272.447C11.7608 273.924 12.2225 275.864 10.006 276.141C9.72897 273.832 9.35955 271.523 9.08249 269.214C8.71307 266.721 9.08248 264.412 11.5761 263.303C14.162 262.103 16.3785 263.026 17.9485 265.52C18.318 266.074 18.7797 266.536 19.0568 267.182C21.2733 271.708 24.7828 273.74 29.8623 272.354Z" fill="#403B47"/>
<path d="M127.204 217.773C129.421 218.327 131.73 218.696 133.854 219.435C136.07 220.174 137.548 221.836 137.455 224.238C137.363 226.731 135.701 228.024 133.577 228.855C128.497 230.795 123.972 228.578 119.262 227.008C118.43 224.053 120.278 225.438 121.293 225.808C124.341 227.101 127.389 228.301 130.806 227.747C132.93 227.378 135.424 227.008 135.701 224.422C136.07 221.652 133.577 221.005 131.545 220.266C129.698 219.62 127.758 219.25 125.819 218.789C125.819 217.773 126.188 217.311 127.204 217.773Z" fill="#1E140D"/>
<path d="M170.242 373.206C170.497 373.206 170.703 356.542 170.703 335.987C170.703 315.431 170.497 298.768 170.242 298.768C169.987 298.768 169.78 315.431 169.78 335.987C169.78 356.542 169.987 373.206 170.242 373.206Z" fill="black"/>
<path d="M9.91363 276.141C11.2066 274.94 10.5601 273.278 10.9295 271.893C14.8084 274.663 12.6843 277.711 11.1142 280.482C10.3754 281.775 8.99008 282.513 7.78947 283.437C2.98702 287.039 2.98702 287.223 7.88182 290.364C8.80537 291.472 10.0983 291.102 11.299 291.379C7.42006 292.118 2.70996 294.612 0.493442 289.348C-1.63072 284.453 3.63351 283.252 6.21944 280.851C7.69712 279.558 9.91363 278.819 9.91363 276.141Z" fill="#4B4651"/>
<path d="M232.766 255.546C233.135 256.1 233.412 256.562 233.782 257.116C231.103 267.182 228.425 277.157 225.747 287.223C223.9 287.131 224.454 286.115 224.823 285.099C227.132 275.125 229.718 265.243 232.766 255.546Z" fill="#272727"/>
<path d="M210.139 178.429C211.801 186.926 213.463 195.33 215.033 203.827C215.218 204.566 214.941 205.489 215.957 205.951C216.326 206.321 216.419 206.782 216.326 207.336C215.772 208.352 216.142 209.922 214.756 210.569C212.909 200.687 211.062 190.805 209.215 180.923C209.677 179.999 209.123 178.891 210.139 178.429Z" fill="#282828"/>
<path d="M146.876 27.1524C146.506 27.4295 146.229 27.7989 145.86 28.0759C138.287 22.2576 129.975 17.7322 120.832 14.9616C120.739 13.8533 121.201 13.4839 122.217 13.9457C131.637 16.1622 139.764 20.7799 146.876 27.1524Z" fill="#2D2D2D"/>
<path d="M187.974 140.841C198.502 138.624 199.887 136.223 198.779 122.924C198.594 121.908 197.856 120.708 199.795 120.615C200.534 125.141 201.365 129.666 202.104 134.284C202.289 135.3 203.027 136.5 201.18 136.593C200.719 135.207 200.349 135.207 199.518 136.408C197.301 139.548 194.531 141.857 190.375 141.764C189.267 141.949 188.066 142.688 187.974 140.841Z" fill="#202020"/>
<path d="M193.053 299.691C192.684 299.23 192.407 298.768 192.037 298.398C192.684 295.628 193.423 292.949 193.977 290.179C194.623 286.854 195.454 283.991 199.888 286.115C201.458 286.854 202.751 286.3 203.028 284.268C203.305 282.421 203.859 280.574 204.413 278.357C207.091 281.405 204.875 284.083 204.043 286.577C203.305 288.794 201.18 288.609 199.426 287.778C196.932 286.669 196.378 288.055 195.824 290.179C195.085 293.411 193.977 296.459 193.053 299.691Z" fill="#242424"/>
<path d="M38.9131 137.516C38.4514 138.163 38.359 138.994 37.4354 139.363C27.4611 142.965 26.1682 144.997 27.6458 154.694C27.1841 155.341 27.6458 156.449 26.7223 156.911C23.0281 145.182 27.4611 138.163 38.9131 137.516Z" fill="#2C2C2C"/>
<path d="M35.5882 322.78C35.5882 338.111 35.5882 353.442 35.5882 368.865C35.3111 368.865 35.1264 368.865 34.8494 368.865C34.8494 353.442 34.8494 338.111 34.8494 322.688C35.1264 322.688 35.3111 322.688 35.5882 322.78Z" fill="#010101"/>
<path d="M204.782 250.835C205.152 251.297 205.429 251.667 205.798 252.128C205.059 254.991 204.782 256.654 208.661 258.224C213.741 260.256 209.677 264.319 208.938 267.459C208.292 267.275 208.199 266.72 207.922 266.259C208.569 263.026 205.244 264.873 204.413 263.488C204.874 261.641 206.537 262.472 207.645 262.103C208.384 261.918 209.03 261.549 208.938 260.902C208.846 260.44 208.199 259.609 207.737 259.609C200.534 258.778 203.304 254.53 204.782 250.835Z" fill="#303030"/>
<path d="M224.823 175.474C225.193 175.936 225.47 176.305 225.839 176.767C223.53 185.171 221.314 193.668 219.005 202.072C218.081 201.611 218.636 200.595 218.174 199.856C220.39 191.729 222.607 183.601 224.823 175.474Z" fill="#232323"/>
<path d="M201.088 136.593C201.365 135.854 201.734 135.023 202.011 134.284C203.581 142.504 205.152 150.631 206.629 158.85C206.075 159.589 206.629 160.697 205.613 161.159C204.228 152.94 202.658 144.72 201.088 136.593Z" fill="#303030"/>
<path d="M176.522 268.014C184.926 265.982 193.423 264.504 202.012 263.303C202.104 263.858 202.196 264.412 202.289 264.966C194.531 266.351 186.681 267.737 178.923 269.122C178.184 268.475 177.076 268.937 176.522 268.014Z" fill="#2A2A2A"/>
<path d="M46.0243 256.746C45.6548 257.208 45.2854 257.67 44.916 258.132C43.5307 250.189 42.1454 242.247 40.6677 234.304C40.2983 233.288 39.7441 232.088 41.6836 232.088C43.1613 240.215 44.5466 248.527 46.0243 256.746Z" fill="#232323"/>
<path d="M81.7657 15.885C81.3039 15.5156 80.8421 15.2385 80.3804 14.8691C89.8006 10.8978 99.6825 10.2513 109.749 11.1749C108.364 13.9455 106.147 12.1908 104.208 12.0984C96.8195 13.299 89.0617 13.3914 81.7657 15.885Z" fill="#353535"/>
<path d="M26.6298 157.003C26.9068 156.264 27.2762 155.525 27.5533 154.787C28.3845 159.497 29.1233 164.207 33.7411 166.885C33.8334 167.716 33.7411 168.363 32.6328 167.809C31.6169 167.716 29.2157 164.946 30.2316 169.009C30.601 170.395 31.2475 171.872 29.3081 173.719C28.3845 167.809 27.5533 162.36 26.6298 157.003Z" fill="#191919"/>
<path d="M60.8012 153.678C57.384 155.341 53.6898 154.787 50.1804 154.233C46.0244 153.586 43.9926 147.121 45.8397 141.672C46.6709 149.43 49.6262 154.694 58.7694 153.217C59.1388 153.124 59.97 154.048 60.8012 153.678Z" fill="#252525"/>
<path d="M171.904 133.453C167.101 134.838 162.299 135.669 157.219 135.115C153.433 134.746 151.401 132.991 151.678 129.02C151.586 128.004 150.662 126.711 152.694 126.618C154.172 133.453 154.541 133.822 161.468 133.545C164.423 133.453 167.378 132.806 170.334 132.437C171.442 131.975 171.904 132.344 171.904 133.453Z" fill="#272727"/>
<path d="M208.015 266.166C208.384 266.536 208.661 266.998 209.031 267.367C208.476 268.66 207.553 269.029 206.26 268.937C204.505 268.845 202.566 266.628 201.273 269.676C199.98 272.724 200.072 275.309 201.919 277.711C199.056 278.172 197.117 277.895 198.225 274.294C198.502 273.462 198.779 272.724 198.872 271.892C199.61 267.921 200.442 264.135 205.983 266.905C206.629 267.367 207.553 267.09 208.015 266.166Z" fill="#272727"/>
<path d="M78.9027 160.79C79.6415 161.067 80.3803 161.436 81.1192 161.713C74.4696 163.006 67.9124 164.391 61.2629 165.684C60.4317 165.869 59.6929 165.592 59.2311 164.668C65.6959 162.729 72.2531 161.99 78.9027 160.79Z" fill="#2A2A2A"/>
<path d="M45.8397 141.21C43.9926 138.901 41.3143 138.347 38.7284 137.701C47.4097 135.854 40.2061 129.297 42.792 124.494C44.5467 130.497 45.4703 135.761 45.8397 141.21Z" fill="#343434"/>
<path d="M41.6837 231.995C41.3143 232.734 41.0372 233.473 40.6678 234.212C38.9131 227.47 37.7125 220.728 36.9736 213.801C37.4354 213.709 37.9895 213.617 38.4513 213.524C39.5596 219.804 40.5755 225.9 41.6837 231.995Z" fill="#2A2A2A"/>
<path d="M148.907 107.039C146.044 105.654 146.876 102.698 146.322 100.482C145.398 96.1413 144.752 91.7082 144.013 87.3676C144.567 86.7211 144.013 85.7052 144.936 85.2434C146.876 92.3547 148.169 99.6508 148.907 107.039Z" fill="#2A2A2A"/>
<path d="M152.787 126.618C151.863 127.173 151.955 128.188 151.771 129.02C151.216 126.711 150.385 124.494 150.293 122.185C150.201 118.584 148.353 118.676 145.86 119.322C145.121 118.768 144.013 119.322 143.551 118.306C145.121 116.644 149.462 118.953 149.092 114.428C149.646 113.873 149.185 112.858 150.016 112.396C151.494 117.013 152.048 121.816 152.787 126.618Z" fill="#343434"/>
<path d="M187.974 140.841C188.713 141.118 189.544 141.488 190.283 141.765C183.448 143.058 176.706 144.351 169.872 145.644C169.318 143.889 170.611 143.796 171.812 143.612C177.168 142.688 182.525 141.765 187.974 140.841Z" fill="#282828"/>
<path d="M121.663 186.834C122.587 189.604 122.31 191.636 119.447 193.391C114.367 196.439 114.275 202.072 113.351 207.244C111.042 201.518 113.259 197.085 117.045 192.929C118.246 191.636 120.462 191.359 120.647 189.143C120.555 188.219 119.816 186.926 121.663 186.834Z" fill="#201A16"/>
<path d="M135.793 151.739C136.255 149.892 137.733 149.799 139.21 149.615C143.643 148.968 148.076 148.229 152.417 147.49C153.433 147.306 154.634 146.567 154.726 148.414C148.538 149.522 142.166 150.631 135.793 151.739Z" fill="#242424"/>
<path d="M70.0365 125.51C70.4059 124.679 70.683 123.848 71.0524 123.017C72.0683 124.587 71.8836 126.434 72.253 128.188C72.5301 129.759 72.9919 131.051 74.9313 130.774C75.5778 131.329 76.7784 130.867 77.2402 131.79C73.0842 131.975 73.1766 134.653 73.8231 137.701C73.4536 138.07 73.4536 138.717 72.8071 138.902C71.1448 134.561 70.8677 129.943 70.0365 125.51Z" fill="#303030"/>
<path d="M224.823 285.099C225.1 285.838 225.377 286.484 225.747 287.223C224.361 292.765 223.345 298.398 221.129 303.755C220.76 303.293 220.482 302.831 220.113 302.369C221.683 296.551 223.253 290.825 224.823 285.099Z" fill="#323232"/>
<path d="M176.522 268.013C177.26 268.383 178.092 268.66 178.831 269.029C172.92 270.138 166.917 271.338 161.006 272.446C160.914 271.985 160.821 271.523 160.729 271.061C165.901 269.306 171.165 268.568 176.522 268.013Z" fill="#292929"/>
<path d="M35.9577 73.7914C35.773 79.8868 36.3271 85.8899 36.8812 91.9853C36.9736 92.9088 37.8971 94.2018 35.9577 94.3865C34.2953 87.0905 34.1106 79.7945 34.8494 72.3137C36.05 72.3137 36.3271 72.8678 35.9577 73.7914Z" fill="#151515"/>
<path d="M83.2433 284.822C88.8769 283.899 93.4023 283.067 97.9277 282.329C93.2176 285.376 87.3993 286.208 83.2433 284.822Z" fill="#222222"/>
<path d="M30.6011 174.92C32.0788 179.63 33.4641 184.34 33.0024 189.327C31.2476 184.617 30.3241 179.815 30.6011 174.92Z" fill="#151515"/>
<path d="M154.08 273.37C149.185 274.848 144.198 275.864 139.21 276.048C139.118 275.587 139.026 275.125 138.933 274.663C143.274 273.924 147.615 273.185 151.955 272.447C152.602 272.908 153.71 272.447 154.08 273.37Z" fill="#393939"/>
<path d="M39.0054 103.068C39.8366 107.593 40.7601 112.026 41.5913 116.552C41.0372 117.198 41.5913 118.214 40.6678 118.676C39.0054 114.335 38.8207 109.81 37.9895 105.377C38.5436 104.73 37.9895 103.53 39.0054 103.068Z" fill="#393939"/>
<path d="M154.818 148.507C154.079 148.229 153.248 147.86 152.509 147.583C157.589 146.198 162.576 144.812 167.933 145.551C163.869 147.768 159.251 147.583 154.818 148.507Z" fill="#2E2E2E"/>
<path d="M296.213 127.173C297.783 131.513 297.045 135.946 296.213 140.379C294.366 137.609 295.29 134.469 295.197 131.513C296.029 130.22 294.828 128.373 296.213 127.173Z" fill="#3C3C3C"/>
<path d="M105.501 281.036C110.211 280.02 114.829 278.265 119.816 280.02C115.844 280.666 111.873 281.405 107.902 282.052C107.163 281.497 105.963 282.052 105.501 281.036Z" fill="#252525"/>
<path d="M210.139 178.43C209.862 179.261 209.492 180 209.215 180.831C208.384 176.582 207.645 172.242 206.814 167.993C207.276 167.901 207.83 167.809 208.292 167.624C209.123 171.134 209.954 174.643 210.139 178.43Z" fill="#222222"/>
<path d="M72.9919 149.707C69.3901 151.831 65.973 154.787 61.3552 152.663C64.8647 151.37 68.4665 150.169 71.976 148.876C72.4378 148.968 72.7149 149.245 72.9919 149.707Z" fill="#292929"/>
<path d="M171.904 133.453C171.442 133.083 170.98 132.714 170.519 132.437C174.028 130.682 177.538 129.02 181.047 127.265C179.754 131.975 175.506 132.252 171.904 133.453Z" fill="#333333"/>
<path d="M32.6328 167.809C33.0022 167.531 33.3716 167.162 33.7411 166.885C36.5117 168.086 39.4671 167.716 42.4224 167.624C43.623 167.531 45.1931 166.331 45.7472 168.547C41.3142 169.379 36.8811 171.226 32.6328 167.809Z" fill="#3B3B3B"/>
<path d="M39.0054 103.068C38.636 103.807 38.3589 104.638 37.9895 105.377C37.343 101.683 36.6965 97.9884 36.05 94.3866C36.3271 93.5554 36.6965 92.8165 36.9736 91.9854C38.1742 95.5872 38.7283 99.2814 39.0054 103.068Z" fill="#1E1E1E"/>
<path d="M72.992 149.707C72.6225 149.43 72.2531 149.153 71.9761 148.876C76.132 145.828 71.7914 142.134 72.7149 138.809C73.0843 138.44 73.4537 137.978 73.7308 137.609C74.1926 140.195 74.8391 142.688 75.1161 145.274C75.2085 147.029 75.2085 149.061 72.992 149.707Z" fill="#070707"/>
<path d="M131.083 277.711C128.313 278.08 125.542 279.743 121.386 278.542C125.173 276.88 127.943 275.771 131.083 277.711Z" fill="#414141"/>
<path d="M122.309 13.9456C121.848 14.315 121.386 14.5921 120.924 14.9615C117.599 14.315 114.274 13.6686 110.95 12.9297C111.411 10.5285 112.982 11.8215 114.182 11.9138C117.045 11.9138 119.723 12.6527 122.309 13.9456Z" fill="#2E2E2E"/>
<path d="M45.7474 168.548C44.8238 167.439 43.5309 167.809 42.4226 167.624C46.1168 166.423 49.9033 165.5 53.7822 166.7C51.381 168.363 48.4257 167.809 45.7474 168.548Z" fill="#3D3D3D"/>
<path d="M214.664 210.384C214.941 209.184 214.664 207.798 215.773 206.875C216.511 206.967 216.973 207.337 217.158 207.983C217.066 211.215 216.142 214.171 214.941 217.126C214.664 216.387 214.387 215.648 214.018 214.91C214.295 213.432 214.48 211.954 214.664 210.384Z" fill="#262626"/>
<path d="M141.15 71.2978C141.427 70.559 141.704 69.8201 141.981 69.0813C143.274 72.0367 143.459 75.1767 143.92 78.3168C140.134 77.1162 142.35 73.5143 141.15 71.2978Z" fill="#252525"/>
<path d="M121.663 186.834C121.294 187.573 121.017 188.404 120.647 189.143C120.555 186.464 116.584 182.678 122.864 181.939C123.602 182.308 124.341 182.585 125.08 182.955C123.418 183.786 120.647 183.694 121.663 186.834Z" fill="#3E2A1D"/>
<path d="M199.703 120.615C199.333 121.354 199.056 122.185 198.687 122.924C197.579 120.523 197.579 117.752 195.916 115.536C196.286 115.167 196.563 114.889 196.932 114.52C198.779 116.09 199.61 118.214 199.703 120.615Z" fill="#393939"/>
<path d="M217.25 207.983C216.788 207.614 216.327 207.244 215.865 206.875C215.865 206.505 215.957 206.228 215.957 205.859C217.527 204.196 217.25 201.795 218.174 199.856C218.451 200.595 218.728 201.333 219.005 202.072C219.097 204.289 218.266 206.228 217.25 207.983Z" fill="#222222"/>
<path d="M205.706 161.067C206.075 160.328 206.352 159.497 206.722 158.758C206.814 161.251 208.661 163.56 207.091 166.608C205.521 164.761 205.983 162.821 205.706 161.067Z" fill="#222222"/>
<path d="M127.204 217.773C126.742 218.142 126.281 218.419 125.911 218.789C123.51 218.327 121.016 217.865 119.446 215.649C122.402 214.817 124.618 217.126 127.204 217.773Z" fill="#29180C"/>
<path d="M35.9577 73.7916C35.5883 73.3298 35.2188 72.7757 34.9418 72.3139C34.5724 69.9127 35.5883 67.6038 35.9577 65.2949C37.8971 65.3873 37.1583 66.5879 36.9736 67.6038C36.7889 69.728 36.9736 71.8521 35.9577 73.7916Z" fill="#222222"/>
<path d="M36.9737 67.6036C36.6042 66.8648 36.3272 66.0336 35.9578 65.2947C36.3272 63.0782 36.3272 60.7694 38.6361 58.7375C38.9131 62.247 37.8049 64.9253 36.9737 67.6036Z" fill="#323232"/>
<path d="M296.213 127.173C295.844 128.558 296.49 130.313 295.198 131.513C294.828 129.204 294.551 126.803 294.182 124.494C294.459 123.756 294.736 123.017 295.105 122.278C296.121 123.756 296.121 125.51 296.213 127.173Z" fill="#2F2F2F"/>
<path d="M145.029 85.1512C144.752 85.89 144.382 86.5365 144.105 87.2753C144.29 84.7818 141.704 82.3805 143.92 79.887C145.121 81.457 144.844 83.3964 145.029 85.1512Z" fill="#040404"/>
<path d="M105.501 281.036C106.24 281.405 107.071 281.682 107.81 282.052C105.501 282.236 103.284 283.714 100.421 282.698C101.991 280.851 103.839 281.22 105.501 281.036Z" fill="#202020"/>
<path d="M154.079 273.37C153.341 273.093 152.694 272.724 151.955 272.447C154.264 272.447 156.481 270.876 159.251 271.8C157.589 273.555 155.742 273.093 154.079 273.37Z" fill="#060606"/>
<path d="M40.6677 118.768C40.9448 118.029 41.3142 117.383 41.5913 116.644C41.5913 118.953 43.1613 121.169 42.2378 124.032C40.483 122.278 40.9448 120.431 40.6677 118.768Z" fill="#060606"/>
<path d="M114.09 11.9137C112.982 12.1907 111.689 11.729 110.857 12.9296C108.641 13.0219 106.424 13.0219 104.3 12.0984C106.147 11.729 108.179 12.6525 109.842 11.1748C111.319 10.9901 112.797 11.2672 114.09 11.9137Z" fill="#3F3F3F"/>
<path d="M241.539 91.0619C239.046 91.4313 237.199 92.9089 234.521 92.0778C236.737 90.0459 238.676 89.03 241.539 91.0619Z" fill="#3D3D3D"/>
<path d="M255.947 88.5683C252.622 89.8612 249.297 89.8612 245.972 88.5683C249.297 88.1065 252.622 88.1065 255.947 88.5683Z" fill="#222222"/>
<path d="M149.923 112.396C149.646 113.042 149.277 113.781 149 114.428C149 112.119 147.06 109.902 148.908 107.593C150.2 108.979 149.831 110.733 149.923 112.396Z" fill="#090909"/>
<path d="M246.157 16.0697C243.294 14.5921 241.816 12.8373 242.001 9.51254C242.186 6.18777 242.001 2.863 239.969 0C237.937 0 235.998 0 233.966 0C231.011 6.00306 229.625 13.8532 220.021 12.0061C216.973 11.452 214.849 12.8373 214.11 15.7927C213.371 18.8404 215.31 20.6875 217.804 21.4263C224.546 23.2734 227.04 27.7064 226.485 34.356C226.485 34.8178 226.578 35.3719 226.578 35.8337C226.855 38.1425 228.333 39.4355 230.364 39.8973C232.304 40.2667 233.966 39.3431 234.982 37.5884C235.998 35.8337 237.014 34.0789 237.568 32.2318C238.584 29.0918 240.616 28.1682 243.848 27.7064C247.358 27.1523 252.714 29.3688 253.73 23.5505C254.931 17.9168 249.389 17.7321 246.157 16.0697ZM250.498 25.3052C249.666 25.5823 248.835 25.8593 248.096 25.767C240.893 24.9358 236.367 27.9835 234.428 35.0025C233.966 36.8496 232.858 38.6043 230.549 38.0502C228.425 37.496 227.871 35.5566 228.148 33.6171C229.164 26.4135 225.839 22.2575 219.282 20.2257C217.527 19.6716 215.68 18.8404 215.957 16.4392C216.326 13.5762 218.728 13.8532 220.667 13.9456C227.409 14.315 231.75 11.6367 233.597 4.98716C234.059 3.14006 235.074 0.831193 237.66 1.57003C240.154 2.21651 240.154 4.52538 239.969 6.55719C239.415 13.2067 242.186 17.3627 248.558 19.2098C250.221 19.6716 252.16 20.4104 252.252 22.8116C252.252 23.9199 251.791 24.9358 250.498 25.3052Z" fill="#3D3743"/>
<path d="M123.879 123.386C117.137 124.494 110.488 126.618 103.561 126.711C102.638 126.988 101.899 126.988 101.899 125.695C108.364 124.771 114.736 122.739 121.293 122.462C122.217 122.37 123.602 121.262 123.879 123.386Z" fill="#373737"/>
<path d="M77.148 131.698C76.4091 131.328 75.5779 131.051 74.8391 130.682C80.1957 129.666 85.5523 128.742 90.9089 127.727C91.6477 128.281 92.8483 127.727 93.3101 128.742C88.0458 130.22 82.5969 131.144 77.148 131.698Z" fill="#2D2D2D"/>
<path d="M123.879 123.386C123.233 122.555 122.217 122.462 121.293 122.462C126.465 121.077 131.545 119.415 136.994 120.431C132.838 122.647 128.22 122.37 123.879 123.386Z" fill="#383838"/>
<path d="M93.3099 128.835C92.4787 128.465 91.7399 128.188 90.9087 127.819C94.6029 127.08 98.2047 126.434 101.899 125.695C102.453 126.064 103.007 126.341 103.561 126.711C100.237 128.004 96.8194 128.465 93.3099 128.835Z" fill="#252525"/>
<path d="M143.459 118.306C144.198 118.676 145.029 118.953 145.768 119.322C142.997 119.507 140.226 121.354 137.363 119.507C139.303 118.491 141.427 118.399 143.459 118.306Z" fill="#212121"/>
<path d="M258.071 97.4344C251.976 97.3421 246.896 102.145 246.804 108.332C246.619 114.797 251.606 119.784 257.979 119.784C264.167 119.784 268.969 114.889 269.061 108.702C269.061 102.514 264.167 97.5268 258.071 97.4344ZM257.794 118.122C252.714 118.122 248.374 113.597 248.466 108.425C248.559 103.253 252.437 99.3739 257.702 99.2815C263.058 99.1892 267.122 103.253 267.122 108.609C267.122 113.966 262.966 118.122 257.794 118.122Z" fill="#252525"/>
</svg>
