<svg width="24" height="20" viewBox="0 0 24 20" fill="none" xmlns="http://www.w3.org/2000/svg">
<path fill-rule="evenodd" clip-rule="evenodd" d="M10.9125 11.8178L15.0571 17.7508C15.2385 18.0108 15.5218 18.0078 15.6363 17.9938C15.7507 17.9798 16.0261 17.9178 16.1259 17.6228L21.3086 2.17777C21.3993 1.90477 21.2327 1.71877 21.1579 1.65277C21.0853 1.58677 20.8779 1.44577 20.5776 1.52077L3.0608 6.04677C2.72873 6.13277 2.6562 6.37877 2.64033 6.47977C2.62446 6.58277 2.61993 6.83777 2.91346 7.00077L9.7146 10.7538L15.7235 5.39577C16.0533 5.10177 16.5917 5.09877 16.926 5.38977C17.2603 5.68077 17.2626 6.15677 16.9328 6.45077L10.9125 11.8178ZM15.5479 19.4998C14.7591 19.4998 14.036 19.1458 13.6099 18.5378L9.21593 12.2468L2.01246 8.27177C1.23613 7.84277 0.830398 7.07877 0.956198 6.27577C1.08086 5.47277 1.70533 4.83477 2.58253 4.60777L20.0993 0.0817716C20.9051 -0.126228 21.7687 0.0707716 22.3626 0.592772C22.9565 1.11977 23.1775 1.88977 22.9372 2.60377L17.7545 18.0478C17.4949 18.8248 16.7696 19.3738 15.8618 19.4808C15.7553 19.4928 15.6521 19.4998 15.5479 19.4998Z" fill="white"/>
</svg>
