<svg width="24" height="24" viewBox="0 0 24 24" fill="none" xmlns="http://www.w3.org/2000/svg">
<path d="M12.2509 2C12.8993 1.99971 13.5202 2.28061 13.9721 2.77871C14.424 3.27681 14.6686 3.94968 14.6489 4.57766L14.6566 4.72535C14.6724 4.87079 14.7166 5.01116 14.7883 5.14054C14.9279 5.39567 15.1566 5.58081 15.4237 5.65514C15.6909 5.72947 15.9748 5.68688 16.2435 5.51839L16.3933 5.4355C17.5181 4.86897 18.8671 5.31918 19.491 6.47928L20.0517 7.52174C20.0665 7.54922 20.0795 7.57762 20.0908 7.60674L20.1428 7.71842C20.6443 8.86519 20.2875 10.2293 19.3347 10.9223L19.0994 11.0807C18.9764 11.1726 18.8739 11.2926 18.7968 11.4368C18.6575 11.6929 18.6193 11.998 18.6905 12.2844C18.7618 12.5708 18.9368 12.8149 19.2021 12.9793L19.3548 13.0841C19.816 13.4297 20.1491 13.9391 20.2944 14.523C20.4584 15.1817 20.3705 15.8833 20.0457 16.4804L19.4425 17.557L19.3516 17.7089C18.6428 18.8008 17.2668 19.1344 16.2166 18.485L16.0922 18.4163C15.9623 18.3541 15.8222 18.3199 15.6947 18.316C15.4173 18.3146 15.1508 18.432 14.9547 18.6422C14.7585 18.8524 14.6489 19.1379 14.6496 19.4698L14.6422 19.6414C14.5406 20.9703 13.5023 22 12.2512 22H11.1215C9.79655 22 8.72246 20.8493 8.7238 19.4753L8.71604 19.3277C8.70026 19.1822 8.65605 19.0418 8.58076 18.9057C8.44419 18.65 8.21791 18.4633 7.95222 18.3871C7.68653 18.3109 7.40345 18.3516 7.12944 18.5213L6.96664 18.6084C6.45177 18.8565 5.87102 18.9023 5.32683 18.7366C4.71287 18.5497 4.19375 18.1083 3.89081 17.5224L3.30799 16.4442L3.23042 16.2844C2.69966 15.0841 3.11569 13.6412 4.17158 12.9875L4.26787 12.9228C4.54995 12.7137 4.71909 12.3688 4.71909 12C4.71909 11.599 4.51939 11.2284 4.17005 11.0115L4.02831 10.9141C3.00915 10.1548 2.69776 8.68049 3.32911 7.50696L3.92287 6.46166C4.58321 5.23376 6.04662 4.81017 7.17215 5.50171L7.29399 5.5713C7.4182 5.63238 7.55312 5.6648 7.68303 5.66628C8.25586 5.66634 8.72255 5.17352 8.73123 4.54181L8.73901 4.3478C8.78591 3.74716 9.02919 3.1827 9.42688 2.75457C9.87557 2.27155 10.4854 2 11.1215 2H12.2509ZM12.2512 3.44774H11.1215C10.8449 3.44774 10.5798 3.56581 10.3847 3.77582C10.2118 3.96196 10.106 4.20741 10.0874 4.43661L10.0751 4.7415C9.98053 6.07087 8.9438 7.11416 7.67594 7.11398C7.34913 7.11034 7.02693 7.03293 6.69837 6.87026L6.52246 6.77085C6.02124 6.46315 5.38212 6.64815 5.08552 7.19925L4.49177 8.24455C4.2197 8.75044 4.35577 9.39466 4.77704 9.70925L5.01546 9.871C5.67206 10.3467 6.07038 11.1429 6.07038 12C6.07038 12.8446 5.68318 13.634 5.01385 14.1296L4.87137 14.2256C4.40238 14.5163 4.22139 15.144 4.43937 15.6383L4.49084 15.7449L5.06627 16.8084C5.2014 17.0696 5.42811 17.2624 5.69626 17.344C5.93391 17.4164 6.18757 17.3964 6.38546 17.3018L6.48488 17.2497C7.0337 16.9066 7.68772 16.8126 8.30154 16.9886C8.91537 17.1645 9.43815 17.5959 9.74824 18.1768C9.91505 18.478 10.0206 18.8132 10.0615 19.1985L10.0799 19.552C10.1368 20.1145 10.5814 20.5523 11.1215 20.5523H12.2512C12.7974 20.5523 13.2511 20.1023 13.2938 19.5511L13.2989 19.4421C13.2959 18.7585 13.548 18.1019 13.9992 17.6185C14.4503 17.1351 15.0632 16.865 15.716 16.8686C16.0364 16.8778 16.3517 16.9547 16.6739 17.11L16.9629 17.2682C17.4164 17.4814 17.9543 17.3258 18.227 16.9067L18.2933 16.7957L18.8825 15.7436C19.0218 15.4875 19.06 15.1824 18.9888 14.896C18.9256 14.6422 18.7807 14.4207 18.6051 14.2882L18.3561 14.1195C17.88 13.7748 17.5339 13.2563 17.3849 12.6574C17.2209 11.9987 17.3088 11.2971 17.6267 10.7126C17.8007 10.3872 18.0398 10.1073 18.3515 9.87532L18.4985 9.77613C18.9668 9.4827 19.1476 8.85504 18.9312 8.35884L18.8666 8.22529L18.855 8.19726L18.3202 7.20208C18.0673 6.73175 17.5409 6.52853 17.0943 6.6891L16.9928 6.73265L16.8985 6.78415C16.3514 7.12941 15.6987 7.22736 15.0841 7.05641C14.4696 6.88546 13.9438 6.45965 13.6244 5.87616C13.4576 5.57504 13.3521 5.23984 13.3112 4.85454L13.2992 4.60249C13.3073 4.29923 13.2005 4.00536 13.0032 3.78783C12.8058 3.57029 12.5346 3.44774 12.2512 3.44774ZM11.6905 8.73182C13.3752 8.73182 14.7409 10.195 14.7409 12C14.7409 13.805 13.3752 15.2682 11.6905 15.2682C10.0057 15.2682 8.64 13.805 8.64 12C8.64 10.195 10.0057 8.73182 11.6905 8.73182ZM11.6905 10.1796C10.752 10.1796 9.99129 10.9946 9.99129 12C9.99129 13.0054 10.752 13.8204 11.6905 13.8204C12.6289 13.8204 13.3896 13.0054 13.3896 12C13.3896 10.9946 12.6289 10.1796 11.6905 10.1796Z" fill="#6374A0"/>
</svg>
