<svg width="18" height="20" viewBox="0 0 18 20" fill="none" xmlns="http://www.w3.org/2000/svg">
<path d="M9.53704 2.17992e-07C10.1854 -0.000285658 10.8063 0.280614 11.2582 0.77871C11.7102 1.27681 11.9547 1.94968 11.935 2.57766L11.9428 2.72535C11.9586 2.87079 12.0028 3.01116 12.0744 3.14054C12.2141 3.39567 12.4427 3.58081 12.7099 3.65514C12.9771 3.72947 13.2609 3.68688 13.5297 3.51839L13.6795 3.4355C14.8043 2.86897 16.1533 3.31918 16.7772 4.47928L17.3379 5.52174C17.3527 5.54922 17.3657 5.57762 17.3769 5.60674L17.4289 5.71842C17.9305 6.86519 17.5736 8.22927 16.6208 8.92228L16.3856 9.08068C16.2626 9.17256 16.16 9.29258 16.0829 9.43678C15.9436 9.69291 15.9054 9.99795 15.9767 10.2844C16.048 10.5708 16.2229 10.8149 16.4882 10.9793L16.6409 11.0841C17.1021 11.4297 17.4352 11.9391 17.5806 12.523C17.7445 13.1817 17.6566 13.8833 17.3318 14.4804L16.7286 15.557L16.6377 15.7089C15.929 16.8008 14.5529 17.1344 13.5028 16.485L13.3783 16.4163C13.2485 16.3541 13.1084 16.3199 12.9808 16.316C12.7034 16.3146 12.437 16.432 12.2408 16.6422C12.0446 16.8524 11.935 17.1379 11.9357 17.4698L11.9283 17.6414C11.8268 18.9703 10.7884 20 9.53732 20H8.40763C7.08268 20 6.00859 18.8493 6.00993 17.4753L6.00217 17.3277C5.98639 17.1822 5.94219 17.0418 5.86689 16.9057C5.73032 16.65 5.50404 16.4633 5.23835 16.3871C4.97267 16.3109 4.68959 16.3516 4.41558 16.5213L4.25277 16.6084C3.73791 16.8565 3.15715 16.9023 2.61297 16.7366C1.999 16.5497 1.47988 16.1083 1.17694 15.5224L0.594119 14.4442L0.516549 14.2844C-0.0142052 13.0841 0.401826 11.6412 1.45771 10.9875L1.55401 10.9228C1.83609 10.7137 2.00522 10.3688 2.00522 10C2.00522 9.59896 1.80552 9.22838 1.45619 9.01151L1.31445 8.91408C0.295284 8.15476 -0.0161076 6.68049 0.615247 5.50696L1.209 4.46166C1.86935 3.23376 3.33275 2.81017 4.45828 3.50171L4.58012 3.5713C4.70433 3.63238 4.83925 3.6648 4.96916 3.66628C5.54199 3.66634 6.00868 3.17352 6.01736 2.54181L6.02514 2.3478C6.07205 1.74716 6.31532 1.1827 6.71302 0.754574C7.1617 0.27155 7.77156 2.17992e-07 8.40763 2.17992e-07H9.53704ZM9.53732 1.44774H8.40763C8.13106 1.44774 7.8659 1.56581 7.67081 1.77582C7.4979 1.96196 7.39212 2.20741 7.37356 2.43661L7.36128 2.7415C7.26667 4.07087 6.22993 5.11416 4.96208 5.11398C4.63526 5.11034 4.31307 5.03293 3.98451 4.87026L3.80859 4.77085C3.30737 4.46315 2.66825 4.64815 2.37166 5.19925L1.7779 6.24455C1.50583 6.75044 1.6419 7.39466 2.06317 7.70925L2.30159 7.871C2.95819 8.34666 3.35652 9.14295 3.35652 10C3.35652 10.8446 2.96931 11.634 2.29998 12.1296L2.1575 12.2256C1.68851 12.5163 1.50753 13.144 1.7255 13.6383L1.77698 13.7449L2.35241 14.8084C2.48753 15.0696 2.71425 15.2624 2.98239 15.344C3.22005 15.4164 3.4737 15.3964 3.67159 15.3018L3.77101 15.2497C4.31984 14.9066 4.97385 14.8126 5.58768 14.9886C6.20151 15.1645 6.72429 15.5959 7.03437 16.1768C7.20119 16.478 7.30674 16.8132 7.3476 17.1985L7.36603 17.552C7.42292 18.1145 7.86755 18.5523 8.40763 18.5523H9.53732C10.0835 18.5523 10.5373 18.1023 10.5799 17.5511L10.5851 17.4421C10.582 16.7585 10.8341 16.1019 11.2853 15.6185C11.7365 15.1351 12.3493 14.865 13.0022 14.8686C13.3225 14.8778 13.6378 14.9547 13.9601 15.11L14.249 15.2682C14.7025 15.4814 15.2405 15.3258 15.5131 14.9067L15.5794 14.7957L16.1687 13.7436C16.308 13.4875 16.3462 13.1824 16.2749 12.896C16.2117 12.6422 16.0668 12.4207 15.8912 12.2882L15.6422 12.1195C15.1661 11.7748 14.8201 11.2563 14.671 10.6574C14.507 9.99866 14.595 9.29707 14.9128 8.71262C15.0868 8.38716 15.3259 8.10733 15.6377 7.87532L15.7847 7.77613C16.2529 7.4827 16.4338 6.85504 16.2174 6.35884L16.1527 6.22529L16.1411 6.19726L15.6063 5.20208C15.3534 4.73175 14.827 4.52853 14.3804 4.6891L14.2789 4.73265L14.1846 4.78415C13.6376 5.12941 12.9848 5.22736 12.3703 5.05641C11.7557 4.88546 11.2299 4.45965 10.9106 3.87616C10.7438 3.57504 10.6382 3.23984 10.5973 2.85454L10.5853 2.60249C10.5935 2.29923 10.4867 2.00536 10.2893 1.78783C10.0919 1.57029 9.82077 1.44774 9.53732 1.44774ZM8.9766 6.73182C10.6613 6.73182 12.0271 8.19503 12.0271 10C12.0271 11.805 10.6613 13.2682 8.9766 13.2682C7.29187 13.2682 5.92613 11.805 5.92613 10C5.92613 8.19503 7.29187 6.73182 8.9766 6.73182ZM8.9766 8.17956C8.03817 8.17956 7.27743 8.9946 7.27743 10C7.27743 11.0054 8.03817 11.8204 8.9766 11.8204C9.91502 11.8204 10.6758 11.0054 10.6758 10C10.6758 8.9946 9.91502 8.17956 8.9766 8.17956Z" fill="#6374A0"/>
</svg>
