<svg width="21" height="19" viewBox="0 0 21 19" fill="none" xmlns="http://www.w3.org/2000/svg">
<path d="M12.5918 0.177804C12.1201 0.386983 11.8125 0.858663 11.8125 1.37546V4.00046H7.21875C3.23203 4.00046 0 7.23249 0 11.2192C0 15.8663 3.34277 17.9417 4.10977 18.36C4.2123 18.4175 4.32715 18.438 4.44199 18.438C4.88906 18.438 5.25 18.0729 5.25 17.63C5.25 17.3223 5.07363 17.0393 4.84805 16.8301C4.4625 16.4651 3.9375 15.7473 3.9375 14.5005C3.9375 12.3266 5.70117 10.563 7.875 10.563H11.8125V13.188C11.8125 13.7048 12.116 14.1764 12.5918 14.3856C13.0676 14.5948 13.6172 14.5087 14.0027 14.1641L20.5652 8.25788C20.84 8.00769 21 7.65495 21 7.28171C21 6.90847 20.8441 6.55573 20.5652 6.30554L14.0027 0.399288C13.6172 0.0506554 13.0635 -0.0354774 12.5918 0.177804Z" fill="#CABBCB"/>
</svg>
