<svg width="32" height="28" viewBox="0 0 32 28" fill="none" xmlns="http://www.w3.org/2000/svg">
<path d="M19.1875 0.176251C18.4688 0.494987 18 1.2137 18 2.00117V6.00099H11C4.925 6.00099 0 10.9258 0 17.0005C0 24.0814 5.09375 27.2438 6.2625 27.8813C6.41875 27.9688 6.59375 28 6.76875 28C7.45 28 8 27.4438 8 26.7688C8 26.3001 7.73125 25.8688 7.3875 25.5501C6.8 24.9939 6 23.9002 6 22.0003C6 18.6879 8.6875 16.0005 12 16.0005H18V20.0004C18 20.7878 18.4625 21.5065 19.1875 21.8253C19.9125 22.144 20.75 22.0128 21.3375 21.4878L31.3375 12.4882C31.7562 12.107 32 11.5695 32 11.0008C32 10.432 31.7625 9.89456 31.3375 9.51333L21.3375 0.513736C20.75 -0.01749 19.9062 -0.148734 19.1875 0.176251V0.176251Z" fill="white"/>
</svg>
