<svg width="25" height="10" viewBox="0 0 25 10" fill="none" xmlns="http://www.w3.org/2000/svg">
<path d="M6.572 0.636V1.524H4.292V9H3.2V1.524H0.908V0.636H6.572ZM13.9162 5.46C13.9162 5.668 13.9042 5.888 13.8802 6.12H8.62419C8.66419 6.768 8.88419 7.276 9.28419 7.644C9.69219 8.004 10.1842 8.184 10.7602 8.184C11.2322 8.184 11.6242 8.076 11.9362 7.86C12.2562 7.636 12.4802 7.34 12.6082 6.972H13.7842C13.6082 7.604 13.2562 8.12 12.7282 8.52C12.2002 8.912 11.5442 9.108 10.7602 9.108C10.1362 9.108 9.57619 8.968 9.08019 8.688C8.59219 8.408 8.20819 8.012 7.92819 7.5C7.64819 6.98 7.50819 6.38 7.50819 5.7C7.50819 5.02 7.64419 4.424 7.91619 3.912C8.18819 3.4 8.56819 3.008 9.05619 2.736C9.55219 2.456 10.1202 2.316 10.7602 2.316C11.3842 2.316 11.9362 2.452 12.4162 2.724C12.8962 2.996 13.2642 3.372 13.5202 3.852C13.7842 4.324 13.9162 4.86 13.9162 5.46ZM12.7882 5.232C12.7882 4.816 12.6962 4.46 12.5122 4.164C12.3282 3.86 12.0762 3.632 11.7562 3.48C11.4442 3.32 11.0962 3.24 10.7122 3.24C10.1602 3.24 9.68819 3.416 9.29619 3.768C8.91219 4.12 8.69219 4.608 8.63619 5.232H12.7882ZM18.7896 9L17.2296 6.552L15.7296 9H14.5896L16.7136 5.736L14.5896 2.424H15.8256L17.3856 4.86L18.8736 2.424H20.0136L17.9016 5.676L20.0256 9H18.7896ZM22.4318 3.324V7.2C22.4318 7.52 22.4998 7.748 22.6358 7.884C22.7718 8.012 23.0078 8.076 23.3438 8.076H24.1478V9H23.1638C22.5558 9 22.0998 8.86 21.7958 8.58C21.4918 8.3 21.3398 7.84 21.3398 7.2V3.324H20.4878V2.424H21.3398V0.767999H22.4318V2.424H24.1478V3.324H22.4318Z" fill="#6374A0"/>
</svg>
