<svg width="16" height="14" viewBox="0 0 16 14" fill="none" xmlns="http://www.w3.org/2000/svg">
<path d="M9.79375 0.0286425C10.6062 0.191142 11.1344 0.981767 10.9719 1.79427L10.9 2.15052C10.7344 2.98489 10.4281 3.77864 10 4.50052H14.5C15.3281 4.50052 16 5.17239 16 6.00052C16 6.79114 15.3906 7.43802 14.6156 7.49739C14.8563 7.76302 15 8.11614 15 8.50052C15 9.23177 14.475 9.84114 13.7844 9.97239C13.9219 10.1974 14 10.4661 14 10.7505C14 11.4161 13.5656 11.9818 12.9656 12.1755C12.9875 12.2786 13 12.388 13 12.5005C13 13.3286 12.3281 14.0005 11.5 14.0005H9.20312C8.60938 14.0005 8.03125 13.8255 7.5375 13.4974L6.33437 12.6943C5.5 12.138 5 11.2005 5 10.1974V9.00052V7.50052V6.72239C5 5.80989 5.41563 4.95052 6.125 4.37864L6.35625 4.19427C7.18437 3.53177 7.75 2.60052 7.95625 1.56302L8.02812 1.20677C8.19063 0.394267 8.98125 -0.133858 9.79375 0.0286425ZM1 5.00052H3C3.55312 5.00052 4 5.44739 4 6.00052V13.0005C4 13.5536 3.55312 14.0005 3 14.0005H1C0.446875 14.0005 0 13.5536 0 13.0005V6.00052C0 5.44739 0.446875 5.00052 1 5.00052Z" fill="#64748B"/>
</svg>
