<svg width="36" height="32" viewBox="0 0 36 32" fill="none" xmlns="http://www.w3.org/2000/svg">
<path d="M22.0359 0.0671366C23.8641 0.438532 25.0523 2.24551 24.6867 4.10249L24.525 4.9167C24.1523 6.82368 23.4633 8.6378 22.5 10.2877H32.625C34.4883 10.2877 36 11.8232 36 13.7159C36 15.5229 34.6289 17.0013 32.8852 17.137C33.4266 17.7441 33.75 18.5512 33.75 19.4297C33.75 21.101 32.5688 22.4937 31.0148 22.7937C31.3242 23.3079 31.5 23.9221 31.5 24.5721C31.5 26.0934 30.5227 27.3861 29.1727 27.8289C29.2219 28.0646 29.25 28.3146 29.25 28.5717C29.25 30.4644 27.7383 32 25.875 32H20.707C19.3711 32 18.0703 31.6 16.9594 30.8501L14.2523 29.0146C12.375 27.7432 11.25 25.6006 11.25 23.3079V20.5724V17.1442V15.3658C11.25 13.2802 12.1852 11.3161 13.7812 10.0091L14.3016 9.58771C16.1648 8.07356 17.4375 5.94518 17.9016 3.57397L18.0633 2.75975C18.4289 0.902776 20.2078 -0.304259 22.0359 0.0671366ZM2.25 11.4304H6.75C7.99453 11.4304 9 12.4517 9 13.7159V29.7145C9 30.9787 7.99453 32 6.75 32H2.25C1.00547 32 0 30.9787 0 29.7145V13.7159C0 12.4517 1.00547 11.4304 2.25 11.4304Z" fill="white"/>
</svg>
