<svg width="21" height="17" viewBox="0 0 21 17" fill="none" xmlns="http://www.w3.org/2000/svg">
<path d="M11.5 4.36957C11.5 6.65099 9.70938 8.50001 7.5 8.50001C5.29063 8.50001 3.5 6.65099 3.5 4.36957C3.5 2.08815 5.29063 0.239136 7.5 0.239136C9.70938 0.239136 11.5 2.08815 11.5 4.36957ZM0.5 15.8025C0.5 12.624 2.99375 10.0489 6.07188 10.0489H8.92813C12.0063 10.0489 14.5 12.624 14.5 15.8025C14.5 16.3317 14.0844 16.7609 13.5719 16.7609H1.42813C0.915625 16.7609 0.5 16.3317 0.5 15.8025ZM19.5406 16.7609H15.2312C15.4 16.4575 15.5 16.1058 15.5 15.7283V15.4701C15.5 13.5114 14.6531 11.7527 13.3188 10.5717C13.3938 10.5685 13.4656 10.5652 13.5406 10.5652H15.4594C18.2437 10.5652 20.5 12.895 20.5 15.7702C20.5 16.3188 20.0688 16.7609 19.5406 16.7609ZM14 8.50001C13.0312 8.50001 12.1562 8.09342 11.5219 7.43835C12.1375 6.58 12.5 5.51835 12.5 4.36957C12.5 3.50476 12.2938 2.68835 11.9281 1.97198C12.5094 1.53312 13.225 1.27174 14 1.27174C15.9344 1.27174 17.5 2.88842 17.5 4.88588C17.5 6.88333 15.9344 8.50001 14 8.50001Z" fill="#6374A0"/>
</svg>
