<svg width="20" height="18" viewBox="0 0 20 18" fill="none" xmlns="http://www.w3.org/2000/svg">
<path d="M11 4.86957C11 7.15099 9.20938 9.00001 7 9.00001C4.79063 9.00001 3 7.15099 3 4.86957C3 2.58815 4.79063 0.739136 7 0.739136C9.20938 0.739136 11 2.58815 11 4.86957ZM0 16.3025C0 13.124 2.49375 10.5489 5.57188 10.5489H8.42813C11.5063 10.5489 14 13.124 14 16.3025C14 16.8317 13.5844 17.2609 13.0719 17.2609H0.928125C0.415625 17.2609 0 16.8317 0 16.3025ZM19.0406 17.2609H14.7312C14.9 16.9575 15 16.6058 15 16.2283V15.9701C15 14.0114 14.1531 12.2527 12.8188 11.0717C12.8938 11.0685 12.9656 11.0652 13.0406 11.0652H14.9594C17.7437 11.0652 20 13.395 20 16.2702C20 16.8188 19.5688 17.2609 19.0406 17.2609ZM13.5 9.00001C12.5312 9.00001 11.6562 8.59342 11.0219 7.93835C11.6375 7.08 12 6.01835 12 4.86957C12 4.00476 11.7938 3.18835 11.4281 2.47198C12.0094 2.03312 12.725 1.77174 13.5 1.77174C15.4344 1.77174 17 3.38842 17 5.38588C17 7.38333 15.4344 9.00001 13.5 9.00001Z" fill="#6374A0"/>
</svg>
