<svg width="20" height="18" viewBox="0 0 20 18" fill="none" xmlns="http://www.w3.org/2000/svg">
<path d="M7 8.99884C9.20937 8.99884 11 7.19875 11 4.97769C11 2.75664 9.20937 0.956543 7 0.956543C4.79062 0.956543 3 2.75664 3 4.97769C3 7.19875 4.79062 8.99884 7 8.99884ZM5.57187 10.5068C2.49375 10.5068 0 13.0137 0 16.1081C0 16.6233 0.415625 17.0411 0.928125 17.0411H13.0719C13.1281 17.0411 13.1812 17.0349 13.2375 17.0254C10.8531 15.2945 10.1187 12.5959 10.0156 10.7361C9.5125 10.5853 8.98125 10.5068 8.43125 10.5068H5.57187ZM15.2219 8.04696L11.4719 9.55489C11.1875 9.67113 11 9.94758 11 10.2555C11 12.244 11.8094 15.5583 15.2125 16.9846C15.3969 17.0631 15.6062 17.0631 15.7906 16.9846C19.1906 15.5583 20 12.244 20 10.2555C20 9.94758 19.8125 9.67113 19.5281 9.55489L15.7781 8.04696C15.6 7.97471 15.4 7.97471 15.2219 8.04696ZM18.4812 10.7581C18.3594 12.3508 17.6312 14.4243 15.5 15.461V9.55803L18.4812 10.7581Z" fill="#6374A0"/>
</svg>
