<svg width="21" height="21" viewBox="0 0 21 21" fill="none" xmlns="http://www.w3.org/2000/svg">
<path d="M14.8515 0.517296C18.237 0.517296 20.483 2.92977 20.483 6.40027V14.5997C20.483 18.0702 18.237 20.4827 14.8515 20.4827H6.14902C2.7636 20.4827 0.517578 18.0702 0.517578 14.5997V6.40027C0.517578 2.93301 2.76954 0.517296 6.14902 0.517296H14.8515ZM14.8515 1.91023H6.14902C3.56153 1.91023 1.91051 3.68131 1.91051 6.40027V14.5997C1.91051 17.3223 3.55603 19.0898 6.14902 19.0898H14.8515C17.4445 19.0898 19.09 17.3223 19.09 14.5997V6.40027C19.09 3.67769 17.4445 1.91023 14.8515 1.91023ZM10.5003 6.39298C10.8529 6.39298 11.1443 6.655 11.1904 6.99494L11.1967 7.08945L11.1961 9.79422L13.9052 9.79469C14.2899 9.79469 14.6017 10.1065 14.6017 10.4912C14.6017 10.8438 14.3397 11.1352 13.9997 11.1813L13.9052 11.1876L11.1961 11.1868L11.1967 13.8929C11.1967 14.2775 10.8849 14.5893 10.5003 14.5893C10.1477 14.5893 9.85629 14.3273 9.81017 13.9874L9.80381 13.8929L9.80349 11.1868L7.09533 11.1876C6.71068 11.1876 6.39886 10.8758 6.39886 10.4912C6.39886 10.1386 6.66087 9.84717 7.00082 9.80105L7.09533 9.79469L9.80349 9.79422L9.80381 7.08945C9.80381 6.7048 10.1156 6.39298 10.5003 6.39298Z" fill="#6374A0"/>
</svg>
