<svg width="32" height="32" viewBox="0 0 32 32" fill="none" xmlns="http://www.w3.org/2000/svg">
<path d="M0.922878 12.3524L0.922871 12.3524C0.0722313 15.8934 0.513689 19.6205 2.16831 22.8669C2.4215 23.357 2.51519 23.9137 2.43624 24.4595L2.43444 24.472L2.43202 24.4843L1.48853 29.2892C1.48841 29.2899 1.48829 29.2905 1.48817 29.2912C1.43826 29.5593 1.44791 29.8351 1.51644 30.0991C1.58515 30.3639 1.71138 30.6104 1.88632 30.8214C2.06126 31.0323 2.28069 31.2025 2.52914 31.3198C2.77645 31.4366 3.04641 31.4981 3.32014 31.5C3.5044 31.4976 3.68724 31.4675 3.86242 31.4107L3.87109 31.4078L3.87986 31.4053L8.3835 30.1229L8.38492 30.1225C8.95428 29.9622 9.5616 30.0022 10.1048 30.2359C13.0342 31.436 16.2622 31.713 19.3544 31.0297C22.4481 30.3461 25.2571 28.734 27.4031 26.411C29.5491 24.0879 30.9291 21.1655 31.3576 18.0373C31.786 14.9091 31.2424 11.7251 29.7998 8.914C28.3571 6.10293 26.0847 3.79968 23.2882 2.3147C20.4917 0.829717 17.3057 0.234431 14.1592 0.609156C11.0127 0.983881 8.05717 2.31058 5.69065 4.4103C3.32415 6.51001 1.6603 9.28184 0.922878 12.3524ZM9.00816 28.618C9.54953 28.6246 10.0847 28.7334 10.5855 28.9386L9.00816 28.618ZM2.36161 29.5273L2.36152 29.5273L2.36328 29.518L3.27558 24.6929C3.27572 24.6921 3.27586 24.6913 3.276 24.6906C3.39949 23.9979 3.30135 23.2852 2.99702 22.6525L2.93546 22.6116L2.87589 22.4945C1.32414 19.4446 0.896749 15.9482 1.66849 12.616C2.44022 9.28381 4.3619 6.32814 7.09746 4.26501C9.83297 2.20191 13.2085 1.16238 16.6345 1.32768C20.0605 1.49298 23.3196 2.85262 25.8425 5.16951C28.3654 7.48643 29.9917 10.6134 30.4368 14.0043C30.882 17.3952 30.1177 20.8342 28.2777 23.7203C26.4377 26.6064 23.6391 28.7562 20.371 29.7945C17.103 30.8328 13.5728 30.6938 10.397 29.4018L10.3959 29.4013C9.95499 29.2206 9.48383 29.1245 9.00713 29.1181C8.7067 29.1209 8.40842 29.1687 8.12228 29.2599L8.12078 29.2604L3.6601 30.6665C3.66002 30.6665 3.65993 30.6665 3.65985 30.6666C3.48999 30.7206 3.30866 30.7278 3.13511 30.6873C2.96542 30.6477 2.80922 30.564 2.68236 30.4446C2.55749 30.3328 2.46236 30.1914 2.40591 30.0331L2.87684 29.8651L2.4059 30.0331C2.34809 29.8711 2.33285 29.6969 2.36161 29.5273Z" stroke="white"/>
</svg>
