<svg width="22" height="16" viewBox="0 0 22 16" fill="none" xmlns="http://www.w3.org/2000/svg">
<path d="M11.3188 -0.000244141C13.8264 -0.000244141 15.5722 1.53373 15.7581 3.78409L18.4987 2.70184C19.6844 2.23449 20.9782 3.02857 21.0724 4.23524L21.0779 4.37626V11.0153C21.0779 12.2525 19.8279 13.1087 18.6355 12.7369L18.4983 12.6885L15.7581 11.6061C15.5717 13.8551 13.8224 15.3908 11.3188 15.3908H4.82879C2.17325 15.3908 0.373047 13.6717 0.373047 11.2028V4.18776C0.373047 1.71885 2.17325 -0.000244141 4.82879 -0.000244141H11.3188ZM11.3188 1.49976H4.82879C3.02693 1.49976 1.92593 2.55114 1.92593 4.18776V11.2028C1.92593 12.8394 3.02693 13.8908 4.82879 13.8908H11.3188C13.1162 13.8908 14.2217 12.8366 14.2217 11.2028L14.2215 10.5172C14.2212 10.5065 14.2211 10.4958 14.2212 10.4851L14.2217 4.18776C14.2217 2.55153 13.12 1.49976 11.3188 1.49976ZM19.156 4.07135L19.0858 4.0905L15.7746 5.39676V9.99276L19.0854 11.2998C19.2722 11.3735 19.4742 11.2642 19.5168 11.0854L19.525 11.0153V4.37626C19.525 4.18146 19.3434 4.04197 19.156 4.07135Z" fill="white"/>
</svg>
