<svg width="35" height="10" viewBox="0 0 35 10" fill="none" xmlns="http://www.w3.org/2000/svg">
<path d="M8.336 1.136L5.18 9.5H3.92L0.764 1.136H1.928L4.556 8.348L7.184 1.136H8.336ZM10.0974 1.856C9.88938 1.856 9.71338 1.784 9.56938 1.64C9.42538 1.496 9.35338 1.32 9.35338 1.112C9.35338 0.904 9.42538 0.728 9.56938 0.584C9.71338 0.44 9.88938 0.368 10.0974 0.368C10.2974 0.368 10.4654 0.44 10.6014 0.584C10.7454 0.728 10.8174 0.904 10.8174 1.112C10.8174 1.32 10.7454 1.496 10.6014 1.64C10.4654 1.784 10.2974 1.856 10.0974 1.856ZM10.6254 2.924V9.5H9.53338V2.924H10.6254ZM12.0785 6.188C12.0785 5.516 12.2145 4.928 12.4865 4.424C12.7585 3.912 13.1305 3.516 13.6025 3.236C14.0825 2.956 14.6185 2.816 15.2105 2.816C15.7225 2.816 16.1985 2.936 16.6385 3.176C17.0785 3.408 17.4145 3.716 17.6465 4.1V0.62H18.7505V9.5H17.6465V8.264C17.4305 8.656 17.1105 8.98 16.6865 9.236C16.2625 9.484 15.7665 9.608 15.1985 9.608C14.6145 9.608 14.0825 9.464 13.6025 9.176C13.1305 8.888 12.7585 8.484 12.4865 7.964C12.2145 7.444 12.0785 6.852 12.0785 6.188ZM17.6465 6.2C17.6465 5.704 17.5465 5.272 17.3465 4.904C17.1465 4.536 16.8745 4.256 16.5305 4.064C16.1945 3.864 15.8225 3.764 15.4145 3.764C15.0065 3.764 14.6345 3.86 14.2985 4.052C13.9625 4.244 13.6945 4.524 13.4945 4.892C13.2945 5.26 13.1945 5.692 13.1945 6.188C13.1945 6.692 13.2945 7.132 13.4945 7.508C13.6945 7.876 13.9625 8.16 14.2985 8.36C14.6345 8.552 15.0065 8.648 15.4145 8.648C15.8225 8.648 16.1945 8.552 16.5305 8.36C16.8745 8.16 17.1465 7.876 17.3465 7.508C17.5465 7.132 17.6465 6.696 17.6465 6.2ZM26.5959 5.96C26.5959 6.168 26.5839 6.388 26.5599 6.62H21.3039C21.3439 7.268 21.5639 7.776 21.9639 8.144C22.3719 8.504 22.8639 8.684 23.4399 8.684C23.9119 8.684 24.3039 8.576 24.6159 8.36C24.9359 8.136 25.1599 7.84 25.2879 7.472H26.4639C26.2879 8.104 25.9359 8.62 25.4079 9.02C24.8799 9.412 24.2239 9.608 23.4399 9.608C22.8159 9.608 22.2559 9.468 21.7599 9.188C21.2719 8.908 20.8879 8.512 20.6079 8C20.3279 7.48 20.1879 6.88 20.1879 6.2C20.1879 5.52 20.3239 4.924 20.5959 4.412C20.8679 3.9 21.2479 3.508 21.7359 3.236C22.2319 2.956 22.7999 2.816 23.4399 2.816C24.0639 2.816 24.6159 2.952 25.0959 3.224C25.5759 3.496 25.9439 3.872 26.1999 4.352C26.4639 4.824 26.5959 5.36 26.5959 5.96ZM25.4679 5.732C25.4679 5.316 25.3759 4.96 25.1919 4.664C25.0079 4.36 24.7559 4.132 24.4359 3.98C24.1239 3.82 23.7759 3.74 23.3919 3.74C22.8399 3.74 22.3679 3.916 21.9759 4.268C21.5919 4.62 21.3719 5.108 21.3159 5.732H25.4679ZM30.9053 9.608C30.2893 9.608 29.7293 9.468 29.2253 9.188C28.7293 8.908 28.3373 8.512 28.0493 8C27.7693 7.48 27.6293 6.88 27.6293 6.2C27.6293 5.528 27.7733 4.936 28.0613 4.424C28.3573 3.904 28.7573 3.508 29.2613 3.236C29.7653 2.956 30.3293 2.816 30.9533 2.816C31.5773 2.816 32.1413 2.956 32.6453 3.236C33.1493 3.508 33.5453 3.9 33.8333 4.412C34.1293 4.924 34.2773 5.52 34.2773 6.2C34.2773 6.88 34.1253 7.48 33.8213 8C33.5253 8.512 33.1213 8.908 32.6093 9.188C32.0973 9.468 31.5293 9.608 30.9053 9.608ZM30.9053 8.648C31.2973 8.648 31.6653 8.556 32.0093 8.372C32.3533 8.188 32.6293 7.912 32.8373 7.544C33.0533 7.176 33.1613 6.728 33.1613 6.2C33.1613 5.672 33.0573 5.224 32.8493 4.856C32.6413 4.488 32.3693 4.216 32.0333 4.04C31.6973 3.856 31.3333 3.764 30.9413 3.764C30.5413 3.764 30.1733 3.856 29.8373 4.04C29.5093 4.216 29.2453 4.488 29.0453 4.856C28.8453 5.224 28.7453 5.672 28.7453 6.2C28.7453 6.736 28.8413 7.188 29.0333 7.556C29.2333 7.924 29.4973 8.2 29.8253 8.384C30.1533 8.56 30.5133 8.648 30.9053 8.648Z" fill="white"/>
</svg>
