<svg width="22" height="16" viewBox="0 0 22 16" fill="none" xmlns="http://www.w3.org/2000/svg">
<path d="M11.2817 -0.000244141C13.7893 -0.000244141 15.5351 1.53373 15.721 3.78409L18.4616 2.70184C19.6473 2.23449 20.9411 3.02857 21.0353 4.23524L21.0408 4.37626V11.0153C21.0408 12.2525 19.7908 13.1087 18.5984 12.7369L18.4611 12.6885L15.721 11.6061C15.5346 13.8551 13.7853 15.3908 11.2817 15.3908H4.79168C2.13614 15.3908 0.335938 13.6717 0.335938 11.2028V4.18776C0.335938 1.71885 2.13614 -0.000244141 4.79168 -0.000244141H11.2817ZM11.2817 1.49976H4.79168C2.98982 1.49976 1.88882 2.55114 1.88882 4.18776V11.2028C1.88882 12.8394 2.98982 13.8908 4.79168 13.8908H11.2817C13.0791 13.8908 14.1846 12.8366 14.1846 11.2028L14.1844 10.5172C14.184 10.5065 14.184 10.4958 14.1841 10.4851L14.1846 4.18776C14.1846 2.55153 13.0829 1.49976 11.2817 1.49976ZM19.1189 4.07135L19.0487 4.0905L15.7374 5.39676V9.99276L19.0483 11.2998C19.2351 11.3735 19.4371 11.2642 19.4797 11.0854L19.4879 11.0153V4.37626C19.4879 4.18146 19.3063 4.04197 19.1189 4.07135Z" fill="white"/>
</svg>
