<svg width="149" height="148" viewBox="0 0 149 148" fill="none" xmlns="http://www.w3.org/2000/svg">
<g filter="url(#filter0_d_740_3636)">
<g clip-path="url(#clip0_740_3636)">
<rect x="50.0098" y="26" width="48" height="48" rx="24" fill="#7C167D"/>
<path opacity="0.2" d="M74.0098 74C87.2646 74 98.0098 63.2548 98.0098 50C98.0098 36.7452 87.2646 26 74.0098 26C60.7549 26 50.0098 36.7452 50.0098 50C50.0098 63.2548 60.7549 74 74.0098 74Z" fill="url(#paint0_linear_740_3636)"/>
<path opacity="0.5" d="M83.3407 45.205C82.9217 44.9547 82.4067 44.9326 81.9677 45.1444L80.4857 45.8538C79.9377 46.1156 79.5977 46.645 79.5977 47.2341V52.765C79.5977 53.354 79.9377 53.8825 80.4857 54.1462L81.9667 54.8547C82.1677 54.9529 82.3827 55 82.5977 55C82.8557 55 83.1117 54.9307 83.3407 54.795C83.7597 54.5457 84.0097 54.1135 84.0097 53.6399V46.361C84.0097 45.8875 83.7597 45.4553 83.3407 45.205Z" fill="#D8DBFA"/>
<rect x="64.0098" y="43" width="14" height="14" rx="4" fill="white"/>
</g>
</g>
<defs>
<filter id="filter0_d_740_3636" x="0.00976562" y="0" width="148" height="148" filterUnits="userSpaceOnUse" color-interpolation-filters="sRGB">
<feFlood flood-opacity="0" result="BackgroundImageFix"/>
<feColorMatrix in="SourceAlpha" type="matrix" values="0 0 0 0 0 0 0 0 0 0 0 0 0 0 0 0 0 0 127 0" result="hardAlpha"/>
<feOffset dy="24"/>
<feGaussianBlur stdDeviation="25"/>
<feColorMatrix type="matrix" values="0 0 0 0 0.397812 0 0 0 0 0.419717 0 0 0 0 0.475 0 0 0 0.16 0"/>
<feBlend mode="normal" in2="BackgroundImageFix" result="effect1_dropShadow_740_3636"/>
<feBlend mode="normal" in="SourceGraphic" in2="effect1_dropShadow_740_3636" result="shape"/>
</filter>
<linearGradient id="paint0_linear_740_3636" x1="74.0098" y1="26" x2="74.0098" y2="74" gradientUnits="userSpaceOnUse">
<stop stop-color="white"/>
<stop offset="1" stop-color="white" stop-opacity="0"/>
</linearGradient>
<clipPath id="clip0_740_3636">
<rect x="50.0098" y="26" width="48" height="48" rx="24" fill="white"/>
</clipPath>
</defs>
</svg>
