<svg width="26" height="25" viewBox="0 0 26 25" fill="none" xmlns="http://www.w3.org/2000/svg">
<path d="M2.31106 0.0454607C2.10715 0.139954 0.192427 1.73639 0.087987 1.90548C-0.0263993 2.07458 -0.0263993 2.30335 0.087987 2.47244C0.202373 2.65148 2.1171 4.24294 2.32598 4.33744C2.45529 4.39214 2.52989 4.39712 2.65422 4.35236C2.91781 4.26781 3.04711 4.09374 3.07198 3.78042L3.09187 3.50689H9.31847C15.2765 3.50689 15.55 3.50192 15.744 3.4124C16.122 3.23833 16.2612 2.91009 16.2612 2.18896C16.2612 1.46783 16.122 1.13959 15.744 0.965525C15.55 0.876005 15.2765 0.871032 9.3135 0.871032H3.08193V0.657179C3.08193 0.408513 3.00235 0.244394 2.83326 0.12006C2.65422 -0.00924587 2.48513 -0.0341125 2.31106 0.0454607Z" fill="#7C167D"/>
<path d="M22.6318 4.48171C22.4876 4.58615 22.3782 4.83979 22.3782 5.07354V5.24761H16.2262C11.8845 5.24761 10.0095 5.26253 9.87029 5.30231C9.6067 5.37691 9.32322 5.66536 9.24862 5.94387C9.21381 6.07815 9.19889 6.38152 9.20884 6.71473C9.22873 7.3364 9.28841 7.50052 9.58183 7.71934L9.76087 7.8586L16.072 7.87352L22.3782 7.88346V8.08737C22.3782 8.52005 22.6865 8.82342 23.0446 8.75877C23.2585 8.71898 25.3224 7.00319 25.4119 6.78933C25.5014 6.56553 25.4368 6.33676 25.2229 6.13286C25.1235 6.03339 24.6162 5.60568 24.1039 5.17798C23.2236 4.4469 23.159 4.40214 22.9601 4.40214C22.8407 4.40214 22.6965 4.43695 22.6318 4.48171Z" fill="#7C167D"/>
<path d="M10.7168 11.4941C10.4532 11.5438 10.0056 11.7377 8.85179 12.3047C8.01627 12.7125 7.29016 13.0656 7.23546 13.0855C7.18075 13.1104 6.40988 13.1402 5.51966 13.1551L3.90333 13.18L3.57012 16.1391C3.38611 17.7654 3.23691 19.1878 3.23691 19.2972L3.23193 19.4961L3.69445 19.6851C3.94312 19.7846 4.16692 19.8691 4.18681 19.8691C4.2067 19.8691 4.3012 19.7498 4.39569 19.6055C4.5797 19.327 4.71896 19.2077 5.07206 19.0187C5.25607 18.9192 5.37046 18.8993 5.71859 18.8993C6.08165 18.8993 6.17614 18.9192 6.39496 19.0336C6.70828 19.1977 7.09123 19.6155 7.16583 19.8691L7.22551 20.0631L7.57862 20.0531C8.10081 20.0482 8.41413 20.1675 8.75729 20.5107C8.91644 20.6748 9.07061 20.8837 9.12034 21.013L9.20489 21.2368H9.63757C10.0255 21.2368 10.1001 21.2517 10.3388 21.386C10.6621 21.565 10.9555 21.8883 11.0699 22.1917L11.1544 22.4155L11.4081 22.3856C12.1193 22.2961 12.8951 22.8233 13.0841 23.5146C13.1388 23.7135 13.1189 24.2854 13.0542 24.544C13.0294 24.6535 13.0592 24.6932 13.2731 24.8375C13.8052 25.1955 14.3871 24.932 14.3821 24.3401C14.3771 24.1263 14.3175 23.992 14.1185 23.7583C13.9295 23.5394 13.9295 23.3405 14.1185 23.1465C14.2976 22.9675 14.3821 22.9675 14.7402 23.1316C15.0734 23.2858 15.2823 23.2659 15.516 23.0719C15.8244 22.8084 15.8144 22.3956 15.4862 22.0027C15.2375 21.7043 15.2674 21.4407 15.5707 21.2815C15.7548 21.1871 15.9238 21.2318 16.2024 21.4606C16.5803 21.764 16.9931 21.754 17.2318 21.4407C17.5103 21.0727 17.4308 20.7046 16.9981 20.3665C16.5754 20.0283 16.5057 19.8144 16.7544 19.5658C16.9334 19.3867 17.0876 19.3817 17.3959 19.5459C17.6745 19.6951 17.8684 19.705 18.0972 19.5807C18.4503 19.3917 18.5398 18.9341 18.2961 18.5462C18.2265 18.4318 17.5153 17.9047 15.9885 16.8354C14.775 15.9899 13.7057 15.2489 13.6063 15.1892C13.2681 14.9903 13.2383 15.0152 12.0148 16.4823C11.4081 17.2084 10.8312 17.8698 10.7367 17.9494C10.4134 18.223 10.0653 18.3473 9.57292 18.3672C9.20489 18.3821 9.07558 18.3672 8.83686 18.2777C8.25996 18.0588 7.89193 17.6659 7.80241 17.1587C7.75268 16.9001 7.75765 16.8205 7.8422 16.5818C7.96653 16.2088 10.0951 13.1601 10.5427 12.7175C10.8958 12.3594 11.3832 12.0262 11.9253 11.7676C12.1242 11.6731 12.2834 11.5786 12.2834 11.5587C12.2834 11.504 11.6866 11.4145 11.3583 11.4195C11.1992 11.4195 10.9107 11.4543 10.7168 11.4941Z" fill="#7C167D"/>
<path d="M14.5962 11.5041C14.1585 11.6036 11.9454 12.6927 11.5028 13.0259C11.095 13.3343 10.9856 13.4735 9.73229 15.2689C8.93158 16.4128 8.65308 16.8405 8.65308 16.9499C8.65308 17.2632 9.17527 17.5765 9.60795 17.5168C10.0556 17.4571 10.0705 17.4422 11.657 15.5474C12.4278 14.6273 12.577 14.4732 12.8008 14.3687C13.0992 14.2295 13.5816 14.2096 13.8502 14.319C14.0939 14.4234 18.5798 17.5666 18.8136 17.8003C19.102 18.0838 19.2661 18.4717 19.286 18.9392L19.3059 19.3221H20.7681H22.2302L22.2253 19.2078C22.2253 19.1481 22.0761 17.7655 21.8921 16.1392L21.5588 13.1801L20.5841 13.1552L19.6043 13.1304L18.0725 12.3694C16.3717 11.529 16.0285 11.4096 15.3472 11.4195C15.1234 11.4245 14.7902 11.4593 14.5962 11.5041Z" fill="#7C167D"/>
<path d="M0.445312 15.816V19.3221H1.39024C1.91244 19.3221 2.33517 19.3172 2.33517 19.3072C2.33517 19.2973 2.50427 17.7804 2.70817 15.9403C2.91208 14.1002 3.08117 12.5783 3.08117 12.5584C3.08117 12.5435 3.03641 12.4789 2.98171 12.4192C2.88224 12.3147 2.84743 12.3098 1.66378 12.3098H0.445312V15.816Z" fill="#7C167D"/>
<path d="M22.5466 12.3495C22.3675 12.4689 22.3725 12.5236 22.7505 15.9453C22.9544 17.7854 23.1235 19.2973 23.1235 19.3072C23.1235 19.3172 23.5512 19.3221 24.0684 19.3221H25.0133V15.816V12.3098H23.8098C23.1434 12.3098 22.5764 12.3297 22.5466 12.3495Z" fill="#7C167D"/>
<path d="M5.35409 19.8592C5.27451 19.9039 5.13029 20.078 5.03082 20.2421C4.7921 20.63 4.77718 20.9533 4.98606 21.2268C5.23473 21.5551 5.73206 21.5899 6.00062 21.3014C6.15479 21.1373 6.4134 20.625 6.4134 20.4858C6.4134 20.2918 6.28907 20.0481 6.11998 19.9039C5.92602 19.7448 5.57788 19.7199 5.35409 19.8592Z" fill="#7C167D"/>
<path d="M7.36302 20.998C7.17404 21.0925 6.9005 21.4854 6.82093 21.7739C6.73638 22.0723 6.86569 22.4005 7.1243 22.5547C7.32821 22.679 7.63655 22.679 7.84046 22.5597C8.05431 22.4254 8.35271 21.8833 8.35271 21.6296C8.35271 21.1224 7.80565 20.7742 7.36302 20.998Z" fill="#7C167D"/>
<path d="M9.24806 22.2165C9.02924 22.3657 8.75073 22.868 8.75073 23.1166C8.75073 23.6388 9.23314 23.9671 9.70064 23.7582C9.8747 23.6836 9.95925 23.599 10.1084 23.3454C10.382 22.8729 10.3521 22.4751 10.014 22.2115C9.82994 22.0673 9.46689 22.0722 9.24806 22.2165Z" fill="#7C167D"/>
<path d="M11.2567 23.3454C10.9931 23.5046 10.6897 24.0218 10.6897 24.3053C10.6897 24.5142 10.8439 24.7678 11.0478 24.8971C11.2865 25.0413 11.6396 25.0065 11.8385 24.8126C12.0723 24.5888 12.3011 24.0865 12.2662 23.8676C12.1867 23.3703 11.6595 23.0968 11.2567 23.3454Z" fill="#7C167D"/>
</svg>
