<svg width="26" height="27" viewBox="0 0 26 27" fill="none" xmlns="http://www.w3.org/2000/svg">
<path d="M5.9305 1.01432C4.98542 1.15972 4.27522 1.389 3.52027 1.78604C1.78111 2.71434 0.534052 4.37522 0.109047 6.34926C-0.0363491 7.00913 -0.0363491 8.37362 0.109047 9.0335C0.623527 11.4102 2.33473 13.3283 4.59956 14.0609C5.37128 14.3069 5.80188 14.374 6.68544 14.374C7.14959 14.374 7.66407 14.3405 7.88776 14.2957C10.6559 13.7477 12.7418 11.6618 13.2898 8.89369C13.3345 8.67001 13.3681 8.15553 13.3681 7.69138C13.3681 7.22723 13.3345 6.71275 13.2898 6.48906C12.7529 3.76567 10.7286 1.70775 8.01638 1.11498C7.61934 1.0311 6.27162 0.963995 5.9305 1.01432ZM6.21011 3.35744C6.33314 3.47488 6.34991 3.54199 6.34991 3.91666V4.33607H6.85321H7.3565V3.91666C7.3565 3.54199 7.37328 3.47488 7.49631 3.35744C7.6417 3.20646 7.88776 3.1785 8.03316 3.29034C8.18974 3.41337 8.25125 3.59791 8.25125 3.97258C8.25125 4.27456 8.26803 4.34726 8.35191 4.36963C8.63711 4.45351 9.16837 4.76667 9.31936 4.94003C9.42001 5.05187 9.56541 5.28115 9.6437 5.45451C9.76673 5.71175 9.7891 5.83478 9.78351 6.23741C9.77791 6.79104 9.66607 7.1042 9.34172 7.4621L9.13481 7.69138L9.34172 7.92066C9.90094 8.54139 9.96246 9.49206 9.48153 10.219C9.26903 10.5378 9.0006 10.7503 8.59237 10.9125L8.27921 11.0411L8.24566 11.4493C8.21211 11.9358 8.17855 12.0197 7.99401 12.1036C7.78151 12.1987 7.6417 12.1763 7.49631 12.0253C7.37328 11.9079 7.3565 11.8408 7.3565 11.4661V11.0467H6.85321H6.34991V11.4661C6.34991 11.8408 6.33314 11.9079 6.21011 12.0253C6.12622 12.1148 6.00879 12.1651 5.90254 12.1651C5.79629 12.1651 5.67885 12.1148 5.59497 12.0253C5.47194 11.9079 5.45516 11.8408 5.45516 11.4661V11.0467H4.6443C3.85021 11.0467 3.82225 11.0411 3.69363 10.9069C3.50909 10.7223 3.51468 10.5154 3.716 10.3141C3.8614 10.1743 3.92291 10.1519 4.20811 10.1519H4.53246V7.69138V5.23082H4.20811C3.92291 5.23082 3.8614 5.20845 3.716 5.06865C3.51468 4.86733 3.50909 4.66042 3.69363 4.47588C3.82225 4.34167 3.85021 4.33607 4.6443 4.33607H5.45516V3.91666C5.45516 3.54199 5.47194 3.47488 5.59497 3.35744C5.67885 3.26797 5.79629 3.21764 5.90254 3.21764C6.00879 3.21764 6.12622 3.26797 6.21011 3.35744Z" fill="#7C167D"/>
<path d="M5.45949 5.33721C5.42593 5.39872 5.40356 5.83491 5.40356 6.3438V7.24414H6.76246C8.31709 7.24414 8.46248 7.21059 8.73091 6.80795C8.99933 6.39972 8.97137 5.92998 8.65821 5.5553C8.40097 5.25333 8.27794 5.23096 6.83516 5.23096C5.5937 5.23096 5.51541 5.23655 5.45949 5.33721Z" fill="#7C167D"/>
<path d="M5.40356 9.05047C5.40356 9.69916 5.42593 9.98995 5.47626 10.0627C5.53778 10.1465 5.6664 10.1577 6.92464 10.1409C8.22202 10.1242 8.31149 10.1186 8.46248 10.0067C9.10558 9.5314 9.06085 8.61428 8.36742 8.26197C8.13254 8.14454 8.05985 8.13894 6.76246 8.13894H5.40356V9.05047Z" fill="#7C167D"/>
<path d="M14.8793 3.35748C14.7395 3.49169 14.7395 3.50287 14.7395 4.55979C14.7395 5.61671 14.7395 5.6279 14.8793 5.76211L15.0135 5.90191H17.3399H19.6606V7.02035V8.13878H18.9057C18.1731 8.13878 18.1395 8.14438 18.0109 8.27859C17.9159 8.36806 17.8711 8.47431 17.8711 8.59734C17.8711 8.75951 18.0165 8.92728 19.3419 10.247C20.6952 11.6059 20.8238 11.7178 21.0027 11.7178C21.1817 11.7178 21.3103 11.6059 22.6636 10.247C23.989 8.92728 24.1344 8.75951 24.1344 8.59734C24.1344 8.47431 24.0896 8.36806 23.9945 8.27859C23.8659 8.14438 23.8324 8.13878 23.0998 8.13878H22.3449V5.81803V3.49169L22.2051 3.35748L22.0708 3.21767H18.5422H15.0135L14.8793 3.35748Z" fill="#7C167D"/>
<path d="M17.5645 12.6461C16.6195 12.7915 15.9092 13.0208 15.1543 13.4179C13.4151 14.3462 12.1681 16.007 11.7431 17.9811C11.5977 18.641 11.5977 20.0054 11.7431 20.6653C12.3247 23.3608 14.3994 25.3907 17.1172 25.9276C17.626 26.0282 19.0129 26.0282 19.5218 25.9276C22.2899 25.3795 24.3758 23.2936 24.9238 20.5255C24.9686 20.3018 25.0021 19.7874 25.0021 19.3232C25.0021 18.8591 24.9686 18.3446 24.9238 18.1209C24.387 15.3975 22.3626 13.3396 19.6504 12.7468C19.2534 12.6629 17.9057 12.5958 17.5645 12.6461ZM18.627 14.9893C18.7501 15.1067 18.7668 15.1738 18.7668 15.5373V15.9511L18.9961 15.9903C19.5553 16.0797 20.0754 16.4712 20.3327 16.9913C20.6346 17.612 20.6123 18.1209 20.2767 18.2607C19.9804 18.3837 19.6616 18.16 19.6616 17.8357C19.6616 17.5896 19.5721 17.3715 19.3932 17.1814C19.1136 16.885 19.0185 16.8626 17.956 16.8626H16.9774V17.8692V18.8758H18.627H20.2823L20.4165 19.0156L20.5563 19.1498V20.766C20.5563 22.8351 20.6402 22.6785 19.5442 22.6785H18.7668V23.0979C18.7668 23.4726 18.7501 23.5397 18.627 23.6571C18.4481 23.8417 18.1909 23.8417 18.0119 23.6571C17.8889 23.5397 17.8721 23.4726 17.8721 23.1091V22.6953L17.6428 22.6561C16.8655 22.5331 16.2 21.8229 16.0994 21.012C16.0602 20.6597 16.1385 20.4808 16.3678 20.3857C16.6586 20.2627 16.9774 20.4864 16.9774 20.8107C16.9774 21.0568 17.0668 21.2749 17.2458 21.465C17.5254 21.7614 17.6205 21.7838 18.683 21.7838H19.6616V20.7772V19.7706H18.0119H16.3566L16.2224 19.6308L16.0826 19.4966V17.8804C16.0826 15.8113 15.9987 15.9679 17.0948 15.9679H17.8721V15.5485C17.8721 15.1738 17.8889 15.1067 18.0119 14.9893C18.0958 14.8998 18.2132 14.8495 18.3195 14.8495C18.4257 14.8495 18.5432 14.8998 18.627 14.9893Z" fill="#7C167D"/>
<path d="M2.33671 16.7676C1.01136 18.0874 0.865967 18.2552 0.865967 18.4173C0.865967 18.5404 0.910704 18.6466 1.00577 18.7361C1.13439 18.8703 1.16794 18.8759 1.90052 18.8759H2.65546V21.1966V23.523L2.79527 23.6572L2.92948 23.797H6.45814H9.9868L10.121 23.6572C10.2608 23.523 10.2608 23.5118 10.2608 22.4549C10.2608 21.398 10.2608 21.3868 10.121 21.2526L9.9868 21.1128H7.66046H5.3397V19.9943V18.8759H6.09465C6.82722 18.8759 6.86077 18.8703 6.9894 18.7361C7.08446 18.6466 7.1292 18.5404 7.1292 18.4173C7.1292 18.2552 6.9838 18.0874 5.65846 16.7676C4.30515 15.4087 4.17653 15.2969 3.99758 15.2969C3.81863 15.2969 3.69001 15.4087 2.33671 16.7676Z" fill="#7C167D"/>
</svg>
